<?xml version="1.0" encoding="UTF-8" standalone="no"?>
<svg
   xmlns:dc="http://purl.org/dc/elements/1.1/"
   xmlns:cc="http://creativecommons.org/ns#"
   xmlns:rdf="http://www.w3.org/1999/02/22-rdf-syntax-ns#"
   xmlns:svg="http://www.w3.org/2000/svg"
   xmlns="http://www.w3.org/2000/svg"
   xmlns:sodipodi="http://sodipodi.sourceforge.net/DTD/sodipodi-0.dtd"
   xmlns:inkscape="http://www.inkscape.org/namespaces/inkscape"
   inkscape:export-ydpi="682.66998"
   inkscape:export-xdpi="682.66998"
   inkscape:export-filename="/Users/JP25309/personal/custom-emoji/emojis/linking_face.png"
   inkscape:version="1.0 (4035a4f, 2020-05-01)"
   sodipodi:docname="linking_face.svg"
   id="svg845"
   version="1.1"
   viewBox="0 0 36 36">
  <metadata
     id="metadata851">
    <rdf:RDF>
      <cc:Work
         rdf:about="">
        <dc:format>image/svg+xml</dc:format>
        <dc:type
           rdf:resource="http://purl.org/dc/dcmitype/StillImage" />
        <dc:title></dc:title>
      </cc:Work>
    </rdf:RDF>
  </metadata>
  <defs
     id="defs849" />
  <sodipodi:namedview
     inkscape:current-layer="svg845"
     inkscape:window-maximized="1"
     inkscape:window-y="23"
     inkscape:window-x="0"
     inkscape:cy="7.3264846"
     inkscape:cx="2.8105571"
     inkscape:zoom="9.2916665"
     showgrid="false"
     id="namedview847"
     inkscape:window-height="1035"
     inkscape:window-width="1920"
     inkscape:pageshadow="2"
     inkscape:pageopacity="0"
     guidetolerance="10"
     gridtolerance="10"
     objecttolerance="10"
     borderopacity="1"
     bordercolor="#666666"
     pagecolor="#ffffff"
     inkscape:document-rotation="0" />
  <circle
     id="circle833"
     r="17"
     cy="17.018"
     cx="18"
     fill="#FFCB4C" />
  <path
     id="path835"
     d="M14.524 21.036c-.145-.116-.258-.274-.312-.464-.134-.46.13-.918.59-1.021 4.528-1.021 7.577 1.363 7.706 1.465.384.306.459.845.173 1.205-.286.358-.828.401-1.211.097-.11-.084-2.523-1.923-6.182-1.098-.274.061-.554-.016-.764-.184z"
     fill="#65471B" />
  <ellipse
     id="ellipse837"
     ry="2.656"
     rx="2.125"
     cy="11.174"
     cx="13.119"
     fill="#65471B" />
  <ellipse
     id="ellipse839"
     ry="2.656"
     rx="2.125"
     cy="12.236"
     cx="24.375"
     fill="#65471B" />
  <path
     id="path843"
     d="M9.296 6.351c-.164-.088-.303-.224-.391-.399-.216-.428-.04-.927.393-1.112 4.266-1.831 7.699-.043 7.843.034.433.231.608.747.391 1.154-.216.405-.74.546-1.173.318-.123-.063-2.832-1.432-6.278.047-.257.109-.547.085-.785-.042zm12.135 3.75c-.156-.098-.286-.243-.362-.424-.187-.442.023-.927.468-1.084 4.381-1.536 7.685.48 7.823.567.415.26.555.787.312 1.178-.242.39-.776.495-1.191.238-.12-.072-2.727-1.621-6.267-.379-.266.091-.553.046-.783-.096z"
     fill="#65471B" />
  <g
     transform="matrix(0.30416038,0.17560707,-0.17560707,0.30416038,33.766957,6.9831764)"
     id="g867" />
  <path
     d="m -14.192502,16.995418 2.978835,-0.08852 c 0,0 2.9788361,-0.08852 3.0673549,2.890317 0.088519,2.978836 -2.8903169,3.067355 -2.8903169,3.067355 l -3.971782,0.118025 c 0,0 -2.978835,0.08852 -3.067353,-2.890317 -0.0166,-0.558531 0.165326,-1.108552 0.165326,-1.108552 l 1.663468,-0.04819 c 0,0 -0.36304,0.31614 -0.339376,1.112482 0,0 0.04426,1.489418 1.533676,1.445158 l 3.971781,-0.118025 c 0,0 1.4894182,-0.04426 1.4451589,-1.533678 -0.044259,-1.489418 -1.5336769,-1.445158 -1.5336769,-1.445158 l -1.851347,0.05501 c 0,0 -0.107558,-0.83534 -1.357925,-1.45038 z"
     id="path893"
     style="fill:#8899a6;fill-opacity:1;stroke-width:0.351214" />
  <path
     id="path897-2"
     style="fill:#8899a6;fill-opacity:1;stroke-width:0.351214"
     d="m 31.206769,62.064503 c -0.517373,-0.13507 -0.925874,-0.124507 -0.925874,-0.124507 l -3.181373,0.09501 c 1.237342,0.614375 1.344608,1.443691 1.344608,1.443691 l 1.851608,-0.05608 c 0,0 0.124858,0.0059 0.291299,0.03272 0.475961,0.05344 0.775966,0.272217 0.959575,0.533859 0.01519,0.02001 0.02916,0.04098 0.04344,0.06245 0.04439,0.07094 0.0702,0.131598 0.100674,0.202411 0.02957,0.06746 0.0549,0.137437 0.07527,0.216477 0.06274,0.220899 0.09097,0.404825 0.09097,0.404825 0.02366,0.796342 -0.339082,1.111977 -0.339082,1.111977 l 1.660807,-0.04698 c 0.006,-0.01968 0.01206,-0.03795 0.01773,-0.05803 0.0057,-0.01816 0.02256,-0.08625 0.03795,-0.143558 0.06187,-0.270568 0.09599,-0.572068 0.0858,-0.914954 -0.05518,-1.856854 -1.233639,-2.521799 -2.113391,-2.759313 z m -5.987794,1.898228 -1.658905,0.04743 c -0.0066,0.02163 -0.01478,0.04116 -0.02098,0.06328 -0.0054,0.01727 -0.01871,0.07802 -0.03155,0.125 -0.06385,0.273748 -0.0993,0.579961 -0.08894,0.928259 0.05521,1.858084 1.233453,2.522208 2.11339,2.759313 0.0017,4.71e-4 0.004,8.77e-4 0.0057,0.0014 0.514334,0.133311 0.920172,0.123158 0.920172,0.123158 l 3.179472,-0.09546 C 28.399993,67.300737 28.292726,66.47142 28.292726,66.47142 l -1.851608,0.05608 c 0,0 -0.123974,-0.0056 -0.291299,-0.03272 -0.478715,-0.05375 -0.779108,-0.275053 -0.962477,-0.538558 -0.01214,-0.01617 -0.02274,-0.03314 -0.03428,-0.05025 -0.04762,-0.075 -0.07595,-0.139247 -0.107931,-0.214162 -0.02875,-0.06623 -0.05435,-0.134905 -0.07427,-0.212226 -0.06274,-0.220898 -0.09096,-0.404825 -0.09096,-0.404825 -0.02366,-0.796342 0.339082,-1.111978 0.339082,-1.111978 z" />
  <path
     d="m 26.095905,62.064504 c -0.517373,-0.13507 -0.925874,-0.124506 -0.925874,-0.124506 l -3.181373,0.09501 c 1.237342,0.614375 1.344608,1.443691 1.344608,1.443691 l 1.851608,-0.05607 c 0,0 0.124858,0.0059 0.291299,0.03272 0.475961,0.05344 0.775966,0.272217 0.959575,0.533859 0.01519,0.02001 0.02916,0.04098 0.04344,0.06245 0.04439,0.07094 0.0702,0.131599 0.100673,0.202411 0.02957,0.06746 0.0549,0.137437 0.07527,0.216478 0.06274,0.220898 0.09097,0.404824 0.09097,0.404824 0.02366,0.796343 -0.339081,1.111978 -0.339081,1.111978 l 1.660806,-0.04699 c 0.006,-0.01968 0.01205,-0.03794 0.01772,-0.05803 0.0057,-0.01816 0.02255,-0.08625 0.03795,-0.143559 0.06187,-0.270567 0.09599,-0.572067 0.0858,-0.914953 -0.05518,-1.856855 -1.233639,-2.521799 -2.113391,-2.759313 z m -5.987793,1.898228 -1.658906,0.04743 c -0.0066,0.02163 -0.01478,0.04116 -0.02098,0.06328 -0.0054,0.01727 -0.01871,0.07802 -0.03155,0.125 -0.06385,0.273748 -0.0993,0.579961 -0.08894,0.928259 0.05521,1.858085 1.233453,2.522208 2.11339,2.759314 0.0017,4.7e-4 0.004,8.76e-4 0.0057,0.0014 0.514334,0.133311 0.920172,0.123158 0.920172,0.123158 l 3.179475,-0.09545 c -1.237353,-0.61442 -1.34462,-1.443737 -1.34462,-1.443737 l -1.851608,0.05608 c 0,0 -0.123974,-0.0056 -0.2913,-0.03272 -0.478714,-0.05375 -0.779107,-0.275053 -0.962476,-0.538557 -0.01214,-0.01617 -0.02274,-0.03314 -0.03428,-0.05025 -0.04762,-0.075 -0.07594,-0.139247 -0.107931,-0.214162 -0.02875,-0.06623 -0.05435,-0.134906 -0.07427,-0.212227 -0.06274,-0.220898 -0.09097,-0.404825 -0.09097,-0.404825 -0.02366,-0.796341 0.339082,-1.111977 0.339082,-1.111977 z"
     style="fill:#8899a6;fill-opacity:1;stroke-width:0.351214"
     id="path897-2-7" />
  <path
     id="path897-2-7-1"
     style="fill:#8899a6;fill-opacity:1;stroke-width:0.351214"
     d="m 21.005669,62.064504 c -0.517373,-0.13507 -0.925874,-0.124507 -0.925874,-0.124507 l -3.181373,0.09501 c 1.237342,0.614375 1.344608,1.443691 1.344608,1.443691 l 1.851608,-0.05607 c 0,0 0.124859,0.0059 0.291299,0.03272 0.475961,0.05344 0.775966,0.272217 0.959575,0.533859 0.01519,0.02001 0.02916,0.04098 0.04344,0.06245 0.04439,0.07094 0.0702,0.131599 0.100674,0.202411 0.02957,0.06746 0.0549,0.137437 0.07527,0.216477 0.06274,0.220899 0.09097,0.404825 0.09097,0.404825 0.02366,0.796342 -0.339081,1.111978 -0.339081,1.111978 l 1.660806,-0.04698 c 0.006,-0.01968 0.01205,-0.03795 0.01772,-0.05803 0.0057,-0.01816 0.02255,-0.08625 0.03795,-0.143558 0.06187,-0.270567 0.09599,-0.572067 0.0858,-0.914953 -0.05518,-1.856854 -1.233638,-2.521799 -2.11339,-2.759312 z m -5.987793,1.898228 -1.658906,0.04743 c -0.0066,0.02163 -0.01478,0.04116 -0.02098,0.06328 -0.0054,0.01727 -0.01871,0.07802 -0.03155,0.125 -0.06385,0.273748 -0.09929,0.579961 -0.08894,0.928259 0.05521,1.858085 1.233454,2.522208 2.113389,2.759315 0.0016,5.72e-4 0.004,8.51e-4 0.0056,0.0014 0.514336,0.133309 0.920173,0.123156 0.920173,0.123156 l 3.179475,-0.09545 C 18.198811,67.30078 18.091545,66.471463 18.091545,66.471463 l -1.851608,0.05608 c 0,0 -0.123974,-0.0056 -0.2913,-0.03272 -0.478715,-0.05375 -0.779108,-0.275053 -0.962477,-0.538558 -0.01214,-0.01617 -0.02274,-0.03313 -0.03428,-0.05025 -0.04762,-0.07501 -0.07594,-0.139247 -0.10793,-0.214162 -0.02875,-0.06623 -0.05434,-0.134905 -0.07427,-0.212227 -0.06274,-0.220897 -0.09097,-0.404824 -0.09097,-0.404824 -0.02366,-0.796342 0.339081,-1.111978 0.339081,-1.111978 z" />
  <path
     d="M 15.915434,62.064504 C 15.39806,61.929434 14.98956,61.939997 14.98956,61.939997 l -3.181373,0.09501 c 1.237341,0.614375 1.344608,1.443691 1.344608,1.443691 l 1.851608,-0.05607 c 0,0 0.124858,0.0059 0.291299,0.03272 0.47596,0.05344 0.775965,0.272217 0.959574,0.533859 0.01519,0.02001 0.02916,0.04098 0.04344,0.06245 0.04439,0.07094 0.07021,0.131599 0.100674,0.202411 0.02957,0.06746 0.0549,0.137437 0.07527,0.216477 0.06274,0.220899 0.09096,0.404825 0.09096,0.404825 0.02366,0.796342 -0.339081,1.111978 -0.339081,1.111978 l 1.660807,-0.04698 c 0.006,-0.01968 0.01205,-0.03794 0.01772,-0.05803 0.0057,-0.01816 0.02255,-0.08625 0.03795,-0.143558 0.06187,-0.270567 0.09599,-0.572067 0.0858,-0.914953 -0.05518,-1.856855 -1.233639,-2.521799 -2.113391,-2.759313 z m -5.9877931,1.898227 -1.6589061,0.04744 c -0.00663,0.02164 -0.01478,0.04116 -0.020978,0.06328 -0.00542,0.01728 -0.018712,0.07802 -0.031549,0.124998 -0.063856,0.27375 -0.099294,0.579961 -0.088946,0.92826 0.055215,1.858084 1.2334545,2.522207 2.1133912,2.759314 0.0016,5.72e-4 0.004,8.5e-4 0.0056,0.0014 0.514334,0.133312 0.920174,0.123156 0.920174,0.123156 l 3.179472,-0.09545 c -1.23734,-0.614376 -1.344608,-1.443691 -1.344608,-1.443691 l -1.851609,0.05608 c 0,0 -0.123972,-0.0056 -0.2913,-0.03272 -0.478713,-0.05375 -0.779106,-0.275054 -0.9624746,-0.538558 -0.01209,-0.01622 -0.022731,-0.03315 -0.03428,-0.05025 C 9.8139984,65.831 9.7856824,65.766743 9.7536958,65.691829 9.7249448,65.625599 9.6993508,65.556924 9.6794278,65.4796 9.6166878,65.258704 9.5884628,65.074776 9.5884628,65.074776 9.5647988,64.278434 9.927542,63.9628 9.927542,63.9628 Z"
     style="fill:#8899a6;fill-opacity:1;stroke-width:0.351214"
     id="path897-2-7-1-0" />
  <path
     id="path895-1"
     d="m -10.222772,20.527895 -2.978836,0.08852 c 0,0 -2.978836,0.08852 -3.067355,-2.890318 -0.08852,-2.978836 2.890317,-3.067355 2.890317,-3.067355 l 3.9717823,-0.118024 c 0,0 2.978836,-0.08852 3.0673547,2.890317 0.016597,0.558532 -0.1653259,1.108553 -0.1653259,1.108553 l -1.6639653,0.0482 c 0,0 0.3632814,-0.316395 0.3396176,-1.112737 0,0 -0.044259,-1.489418 -1.5336773,-1.445159 l -3.9717821,0.118024 c 0,0 -1.489418,0.04426 -1.445159,1.533678 0.04426,1.489417 1.533679,1.445159 1.533679,1.445159 l 1.851346,-0.05501 c 0,0 0.107559,0.835341 1.357926,1.450381 z"
     style="fill:#8899a6;fill-opacity:1;stroke-width:0.351214" />
  <path
     id="path897-2-7-1-0-0"
     style="fill:#8899a6;fill-opacity:1;stroke-width:0.351214"
     d="M 10.892483,62.064503 C 10.37511,61.929433 9.9666092,61.939996 9.9666092,61.939996 l -3.1813722,0.09501 c 1.2373408,0.614375 1.3446085,1.44369 1.3446085,1.44369 l 1.8516077,-0.05608 c 0,0 0.1248568,0.0059 0.2912988,0.03272 0.475959,0.05344 0.775964,0.272219 0.959574,0.53386 0.01519,0.02001 0.02915,0.04098 0.04344,0.06245 0.0444,0.07093 0.0702,0.131599 0.100675,0.20241 0.02956,0.06747 0.0549,0.137439 0.07527,0.216479 0.06274,0.220899 0.09096,0.404825 0.09096,0.404825 0.02366,0.796342 -0.339082,1.111978 -0.339082,1.111978 l 1.660808,-0.04699 c 0.006,-0.01969 0.01205,-0.03794 0.01772,-0.05803 0.0057,-0.01816 0.02255,-0.08625 0.03795,-0.143557 0.06188,-0.270568 0.09599,-0.572068 0.0858,-0.914954 -0.05518,-1.856854 -1.233639,-2.521799 -2.113391,-2.759312 z M 4.9046897,63.96273 3.2457828,64.01017 c -0.00664,0.02164 -0.014767,0.04118 -0.020975,0.06328 -0.00542,0.01728 -0.018713,0.07802 -0.031551,0.124997 -0.063855,0.27375 -0.099294,0.579961 -0.088944,0.928262 0.055214,1.858082 1.2334537,2.522206 2.1133894,2.759312 0.00163,5.73e-4 0.00398,8.51e-4 0.00562,0.0014 0.5143334,0.133311 0.9201729,0.123156 0.9201729,0.123156 l 3.1794711,-0.09546 C 8.085626,67.300778 7.9783578,66.471463 7.9783578,66.471463 l -1.8516072,0.05608 c 0,0 -0.1239738,-0.0056 -0.2912999,-0.03272 C 5.3567366,66.441073 5.0563441,66.219768 4.872975,65.956264 4.860885,65.940044 4.850244,65.923114 4.838695,65.906014 4.791066,65.831024 4.76275,65.766767 4.7307634,65.691853 4.7020124,65.625623 4.6764184,65.556948 4.6564924,65.479627 4.5937544,65.258728 4.5655274,65.074802 4.5655274,65.074802 4.5418614,64.278459 4.9046092,63.962825 4.9046092,63.962825 Z" />
  <path
     d="M 5.4759704,62.064504 C 4.9585978,61.929433 4.5500972,61.939996 4.5500972,61.939996 l -3.1813722,0.09501 c 1.2373408,0.614376 1.3446061,1.443693 1.3446061,1.443693 l 1.8516077,-0.05608 c 0,0 0.1248592,0.0059 0.2912991,0.03272 0.4759617,0.05344 0.7759661,0.272217 0.959576,0.533858 0.015194,0.02001 0.029153,0.04098 0.043436,0.06245 0.044396,0.07093 0.070205,0.131599 0.1006727,0.202413 0.02956,0.06747 0.054905,0.137436 0.075273,0.216476 0.062738,0.220899 0.090964,0.404824 0.090964,0.404824 0.023664,0.796342 -0.3390816,1.111978 -0.3390816,1.111978 l 1.6608078,-0.04698 c 0.00602,-0.01967 0.012051,-0.03794 0.017722,-0.05803 0.00572,-0.01816 0.022553,-0.08625 0.037947,-0.143556 0.061875,-0.270569 0.09599,-0.572067 0.085802,-0.914955 -0.055178,-1.856851 -1.233639,-2.521796 -2.1133918,-2.759309 z m -5.98779264,1.898226 -1.65890696,0.04744 c -0.00664,0.02164 -0.014767,0.04117 -0.020975,0.06328 -0.00542,0.01728 -0.018713,0.07802 -0.031554,0.124999 -0.063853,0.273747 -0.099294,0.579961 -0.088942,0.928259 0.055214,1.858083 1.2334538,2.522206 2.11338946,2.759312 0.001632,5.73e-4 0.003976,8.51e-4 0.00562,0.0014 0.51433337,0.133312 0.92017315,0.123156 0.92017315,0.123156 L 3.9064546,67.915153 C 2.6691119,67.300781 2.5618461,66.471463 2.5618461,66.471463 l -1.85160743,0.05608 c 0,0 -0.12397384,-0.0056 -0.29129991,-0.03272 -0.47871408,-0.05375 -0.77910907,-0.275052 -0.96247572,-0.538559 -0.0120898,-0.01622 -0.0227308,-0.03314 -0.0342798,-0.05025 -0.0476287,-0.07499 -0.0759445,-0.139246 -0.10793159,-0.21416 -0.0287508,-0.06623 -0.0543449,-0.134906 -0.0742705,-0.212227 -0.0627378,-0.220898 -0.0909648,-0.404824 -0.0909648,-0.404824 -0.0236655,-0.796344 0.33908186,-1.111978 0.33908186,-1.111978 z"
     style="fill:#8899a6;fill-opacity:1;stroke-width:0.351214"
     id="path1003" />
  <path
     id="path1005"
     style="fill:#8899a6;fill-opacity:1;stroke-width:0.351214"
     d="m 36.320121,62.064504 c -0.517374,-0.13507 -0.925875,-0.124507 -0.925875,-0.124507 l -3.181372,0.09501 c 1.237341,0.614375 1.344608,1.443691 1.344608,1.443691 l 1.851607,-0.05607 c 0,0 0.124859,0.0059 0.291299,0.03272 0.475961,0.05344 0.775966,0.272217 0.959575,0.533859 0.01519,0.02001 0.02916,0.04098 0.04344,0.06245 0.04439,0.07094 0.07021,0.131599 0.100674,0.202411 0.02957,0.06746 0.0549,0.137437 0.07527,0.216477 0.06274,0.220899 0.09096,0.404825 0.09096,0.404825 0.02366,0.796342 -0.339081,1.111978 -0.339081,1.111978 l 1.660807,-0.04699 c 0.006,-0.01968 0.01205,-0.03794 0.01772,-0.05803 0.0057,-0.01816 0.02255,-0.08625 0.03795,-0.143558 0.06187,-0.270567 0.09599,-0.572067 0.0858,-0.914954 -0.05518,-1.856854 -1.233638,-2.521798 -2.11339,-2.759312 z m -5.987794,1.898228 -1.658905,0.04743 c -0.0066,0.02163 -0.01478,0.04116 -0.02098,0.06328 -0.0054,0.01727 -0.01871,0.07802 -0.03155,0.125001 -0.06385,0.273747 -0.0993,0.579961 -0.08894,0.928258 0.05521,1.858084 1.233454,2.522208 2.113391,2.759313 0.0017,4.71e-4 0.004,8.77e-4 0.0057,0.0014 0.514334,0.133311 0.920172,0.123158 0.920172,0.123158 l 3.179475,-0.09546 c -1.237342,-0.614374 -1.344609,-1.443691 -1.344609,-1.443691 l -1.851608,0.05608 c 0,0 -0.123974,-0.0056 -0.291299,-0.03272 -0.478715,-0.05375 -0.779108,-0.275053 -0.962477,-0.538557 -0.01214,-0.01617 -0.02274,-0.03314 -0.03428,-0.05025 -0.04762,-0.07501 -0.07594,-0.139246 -0.10793,-0.214161 -0.02875,-0.06623 -0.05435,-0.134906 -0.07427,-0.212227 -0.06274,-0.220898 -0.09096,-0.404825 -0.09096,-0.404825 -0.02366,-0.796342 0.339081,-1.111977 0.339081,-1.111977 z" />
  <path
     d="m 0.32012204,62.064503 c -0.51737496,-0.135068 -0.92587552,-0.124505 -0.92587552,-0.124505 l -3.18137232,0.09501 c 1.2373408,0.614376 1.3446086,1.443691 1.3446086,1.443691 l 1.85160792,-0.05608 c 0,0 0.12485846,0.0059 0.29129914,0.03272 0.47595923,0.05344 0.77596391,0.272219 0.95957352,0.53386 0.0151939,0.02001 0.0291534,0.04098 0.0434361,0.06245 0.044396,0.07093 0.0702047,0.131599 0.10067511,0.20241 0.0295592,0.06747 0.0549024,0.137439 0.0752702,0.216479 0.062738,0.220899 0.0909648,0.404825 0.0909648,0.404825 0.0236637,0.796342 -0.33908187,1.111978 -0.33908187,1.111978 l 1.66080778,-0.04699 c 0.00602,-0.01967 0.01205,-0.03794 0.017722,-0.05803 0.00572,-0.01816 0.022553,-0.08625 0.037947,-0.143557 0.061875,-0.270568 0.09599,-0.572067 0.085802,-0.914955 -0.055179,-1.856853 -1.2336399,-2.521797 -2.11339016,-2.759313 z m -5.98779464,1.898229 -1.6589061,0.04744 c -0.00663,0.02164 -0.01478,0.04116 -0.020975,0.06328 -0.00542,0.01728 -0.018714,0.07803 -0.031552,0.125001 -0.063853,0.273747 -0.099295,0.579961 -0.088946,0.92826 0.055215,1.858084 1.2334546,2.522207 2.1133903,2.759313 0.00163,5.73e-4 0.00398,8.51e-4 0.00562,0.0014 0.5143357,0.133309 0.9201731,0.123156 0.9201731,0.123156 l 3.1794734,-0.09545 c -1.2373418,-0.614352 -1.3446076,-1.44367 -1.3446076,-1.44367 l -1.8516101,0.05608 c 0,0 -0.1239724,-0.0056 -0.2912975,-0.03273 -0.4787162,-0.05375 -0.7791089,-0.275052 -0.9624779,-0.538556 -0.01209,-0.01622 -0.022731,-0.03315 -0.03428,-0.05025 -0.047629,-0.07499 -0.075945,-0.139247 -0.1079292,-0.214163 -0.028751,-0.06623 -0.054345,-0.134906 -0.07427,-0.212227 -0.06274,-0.220896 -0.090965,-0.404824 -0.090965,-0.404824 -0.023664,-0.796342 0.3390816,-1.111978 0.3390816,-1.111978 z"
     style="fill:#8899a6;fill-opacity:1;stroke-width:0.351214"
     id="path1011" />
  <path
     id="path1013"
     style="fill:#8899a6;fill-opacity:1;stroke-width:0.351214"
     d="m 41.475971,62.064503 c -0.517374,-0.13507 -0.925875,-0.124507 -0.925875,-0.124507 l -3.181372,0.09501 c 1.237341,0.614375 1.344608,1.443691 1.344608,1.443691 l 1.851607,-0.05608 c 0,0 0.124859,0.0059 0.2913,0.03272 0.475961,0.05344 0.775965,0.272217 0.959574,0.533859 0.0152,0.02002 0.02916,0.04098 0.04344,0.06245 0.04439,0.07094 0.0702,0.131597 0.100673,0.20241 0.02957,0.06746 0.05491,0.137437 0.07527,0.216477 0.06274,0.220898 0.09096,0.404824 0.09096,0.404824 0.02366,0.796343 -0.339081,1.111979 -0.339081,1.111979 l 1.660808,-0.04698 c 0.006,-0.01967 0.01206,-0.03794 0.01772,-0.05803 0.0057,-0.01816 0.02256,-0.08625 0.03795,-0.143558 0.06187,-0.270567 0.09599,-0.572066 0.0858,-0.914954 -0.05518,-1.856853 -1.233639,-2.521798 -2.11339,-2.759312 z m -5.987795,1.898228 -1.658905,0.04743 c -0.0066,0.02163 -0.01477,0.04118 -0.02097,0.06328 -0.0054,0.01727 -0.01871,0.07802 -0.03155,0.124999 -0.06385,0.273748 -0.09929,0.579961 -0.08894,0.92826 0.05521,1.858083 1.233453,2.522207 2.11339,2.759312 0.0017,4.71e-4 0.004,8.77e-4 0.0057,0.0014 0.514334,0.133311 0.920171,0.123157 0.920171,0.123157 l 3.179472,-0.09546 c -1.23734,-0.614372 -1.344608,-1.443692 -1.344608,-1.443692 l -1.851607,0.05608 c 0,0 -0.123974,-0.0056 -0.2913,-0.03272 -0.478714,-0.05375 -0.779107,-0.275054 -0.962476,-0.538559 -0.01214,-0.01617 -0.02274,-0.03314 -0.03428,-0.05025 -0.04762,-0.07501 -0.07594,-0.139247 -0.107931,-0.214162 -0.02875,-0.06623 -0.05434,-0.134905 -0.07427,-0.212226 -0.06274,-0.220898 -0.09097,-0.404825 -0.09097,-0.404825 -0.02366,-0.796344 0.339082,-1.111978 0.339082,-1.111978 z" />
  <path
     sodipodi:nodetypes="sccccccccccccccsssccccssccccccccccccc"
     d="M 3.3451378,28.656085 C 2.8277645,28.521015 2.4192637,28.531578 2.4192637,28.531578 l -4.4728525,0.09501 c 1.23734149,0.614375 1.34460799,1.443691 1.34460799,1.443691 l 3.14308751,-0.05608 c 0,0 0.1248582,0.0059 0.2912991,0.03272 0.4759607,0.05344 0.7759656,0.272217 0.9595747,0.533859 0.015191,0.02001 0.029158,0.04098 0.043441,0.06245 0.044386,0.07094 0.070205,0.131599 0.1006739,0.202412 0.029569,0.06746 0.054904,0.137436 0.075272,0.216477 0.062738,0.220899 0.090964,0.404825 0.090964,0.404825 0.023663,0.796342 -0.3390813,1.111977 -0.3390813,1.111977 l 1.6608066,-0.04698 c 0.00603,-0.01968 0.012051,-0.03795 0.017723,-0.05803 0.00572,-0.01816 0.022554,-0.08625 0.037948,-0.143558 0.061874,-0.270567 0.09599,-0.572066 0.085801,-0.914953 -0.055179,-1.856854 -1.2336394,-2.521799 -2.1133914,-2.759312 z m -5.9877943,1.898228 -1.6589058,0.04743 c -0.00663,0.02163 -0.014768,0.04118 -0.020975,0.06328 -0.00542,0.01727 -0.018714,0.07802 -0.031553,0.124998 -0.063853,0.273748 -0.099294,0.579961 -0.088943,0.92826 0.055213,1.858084 1.2334525,2.522208 2.1133894,2.759313 0.00173,4.7e-4 0.00395,8.76e-4 0.00569,0.0014 0.5143338,0.133311 0.9201719,0.123157 0.9201719,0.123157 l 4.4709519,-0.09546 C 1.8298316,33.892285 1.7225653,33.062968 1.7225653,33.062968 l -3.1430882,0.05608 c 0,0 -0.1239738,-0.0056 -0.2912996,-0.03272 -0.4787148,-0.05375 -0.7791079,-0.275054 -0.9624767,-0.538558 -0.012138,-0.01617 -0.02274,-0.03314 -0.034282,-0.05025 -0.047617,-0.075 -0.075944,-0.139247 -0.1079304,-0.214162 -0.028748,-0.06623 -0.054345,-0.134906 -0.07427,-0.212227 -0.062739,-0.220898 -0.090965,-0.404824 -0.090965,-0.404824 -0.023665,-0.796344 0.3390819,-1.111978 0.3390819,-1.111978 z"
     style="fill:#8899a6;fill-opacity:1;stroke-width:0.351214"
     id="path1015" />
  <path
     id="path1028"
     style="fill:#8899a6;fill-opacity:1;stroke-width:0.351214"
     d="m 33.095137,28.656084 c -0.517373,-0.13507 -0.925873,-0.124507 -0.925873,-0.124507 l -4.472853,0.09501 c 1.237341,0.614375 1.344608,1.443691 1.344608,1.443691 l 3.143088,-0.05608 c 0,0 0.124858,0.0059 0.291299,0.03272 0.47596,0.05344 0.775965,0.272217 0.959574,0.533859 0.01519,0.02001 0.02916,0.04098 0.04344,0.06245 0.04439,0.07094 0.07021,0.131599 0.100674,0.202411 0.02957,0.06746 0.0549,0.137437 0.07527,0.216478 0.06274,0.220899 0.09096,0.404824 0.09096,0.404824 0.02366,0.796343 -0.339081,1.111978 -0.339081,1.111978 l 1.660807,-0.04698 c 0.006,-0.01968 0.01205,-0.03795 0.01772,-0.05803 0.0057,-0.01816 0.02256,-0.08625 0.03795,-0.143558 0.06187,-0.270567 0.09599,-0.572066 0.0858,-0.914953 -0.05518,-1.856854 -1.23364,-2.521798 -2.113392,-2.759312 z m -5.987794,1.898228 -1.658905,0.04743 c -0.0066,0.02163 -0.01477,0.04118 -0.02097,0.06328 -0.0054,0.01727 -0.01871,0.07802 -0.03155,0.124998 -0.06385,0.273748 -0.09929,0.579961 -0.08894,0.92826 0.05521,1.858083 1.233453,2.522207 2.11339,2.759313 0.0017,4.7e-4 0.004,8.76e-4 0.0057,0.0014 0.514334,0.133312 0.920172,0.123158 0.920172,0.123158 l 4.470952,-0.09546 C 31.57985,33.892317 31.472584,33.063 31.472584,33.063 l -3.143088,0.05608 c 0,0 -0.123974,-0.0056 -0.291299,-0.03272 -0.478715,-0.05375 -0.779108,-0.275054 -0.962477,-0.538558 -0.01214,-0.01617 -0.02274,-0.03314 -0.03428,-0.05025 -0.04762,-0.075 -0.07594,-0.139248 -0.107931,-0.214162 -0.02875,-0.06623 -0.05435,-0.134906 -0.07427,-0.212227 -0.06274,-0.220898 -0.09096,-0.404825 -0.09096,-0.404825 -0.02367,-0.796343 0.339082,-1.111977 0.339082,-1.111977 z"
     sodipodi:nodetypes="sccccccccccccccsssccccssccccccccccccc" />
  <path
     sodipodi:nodetypes="sccccccccccccccsssccccssccccccccccccc"
     d="m 26.845137,28.656084 c -0.517373,-0.13507 -0.925874,-0.124507 -0.925874,-0.124507 l -4.472852,0.09501 c 1.237341,0.614375 1.344608,1.443691 1.344608,1.443691 l 3.143087,-0.05608 c 0,0 0.124859,0.0059 0.2913,0.03272 0.47596,0.05344 0.775965,0.272217 0.959574,0.533859 0.01519,0.02001 0.02916,0.04098 0.04344,0.06245 0.04439,0.07094 0.0702,0.131599 0.100674,0.202412 0.02957,0.06746 0.0549,0.137437 0.07527,0.216477 0.06274,0.220899 0.09096,0.404825 0.09096,0.404825 0.02366,0.796342 -0.339081,1.111977 -0.339081,1.111977 l 1.660807,-0.04698 c 0.006,-0.01968 0.01205,-0.03795 0.01772,-0.05803 0.0057,-0.01816 0.02255,-0.08625 0.03795,-0.143558 0.06187,-0.270567 0.09599,-0.572066 0.0858,-0.914953 -0.05518,-1.856854 -1.233639,-2.521798 -2.113391,-2.759312 z m -5.987794,1.898228 -1.658905,0.04743 c -0.0066,0.02163 -0.01477,0.04118 -0.02097,0.06328 -0.0054,0.01727 -0.01871,0.07802 -0.03155,0.124998 -0.06385,0.273748 -0.09929,0.579961 -0.08894,0.92826 0.05521,1.858083 1.233453,2.522207 2.11339,2.759312 0.0017,4.71e-4 0.004,8.77e-4 0.0057,0.0014 0.514334,0.133312 0.920172,0.123158 0.920172,0.123158 l 4.470952,-0.09546 C 25.32985,33.892316 25.222584,33.062999 25.222584,33.062999 l -3.143088,0.05608 c 0,0 -0.123974,-0.0056 -0.291299,-0.03272 -0.478715,-0.05375 -0.779108,-0.275054 -0.962477,-0.538558 -0.01214,-0.01617 -0.02274,-0.03314 -0.03428,-0.05025 -0.04762,-0.07501 -0.07594,-0.139247 -0.107931,-0.214161 -0.02875,-0.06623 -0.05435,-0.134906 -0.07427,-0.212227 -0.06274,-0.220898 -0.09096,-0.404825 -0.09096,-0.404825 -0.02367,-0.796343 0.339081,-1.111977 0.339081,-1.111977 z"
     style="fill:#8899a6;fill-opacity:1;stroke-width:0.351214"
     id="path1030" />
  <path
     id="path1032"
     style="fill:#8899a6;fill-opacity:1;stroke-width:0.351214"
     d="m 20.595137,28.656084 c -0.517373,-0.13507 -0.925873,-0.124507 -0.925873,-0.124507 l -4.472853,0.09501 c 1.237342,0.614375 1.344608,1.443691 1.344608,1.443691 l 3.143088,-0.05608 c 0,0 0.124858,0.0059 0.291299,0.03272 0.47596,0.05344 0.775965,0.272217 0.959574,0.533859 0.01519,0.02001 0.02916,0.04098 0.04344,0.06245 0.04439,0.07094 0.07021,0.131599 0.100674,0.202411 0.02957,0.06746 0.0549,0.137437 0.07527,0.216478 0.06274,0.220899 0.09096,0.404824 0.09096,0.404824 0.02366,0.796343 -0.339081,1.111978 -0.339081,1.111978 l 1.660807,-0.04698 c 0.006,-0.01968 0.01205,-0.03795 0.01772,-0.05803 0.0057,-0.01816 0.02255,-0.08625 0.03795,-0.143558 0.06187,-0.270567 0.09599,-0.572067 0.0858,-0.914953 -0.05518,-1.856854 -1.23364,-2.521798 -2.113392,-2.759312 z m -5.987794,1.898228 -1.658905,0.04743 c -0.0066,0.02163 -0.01477,0.04118 -0.02097,0.06328 -0.0054,0.01727 -0.01871,0.07802 -0.03155,0.124998 -0.06385,0.273748 -0.09929,0.579961 -0.08894,0.92826 0.05521,1.858083 1.233453,2.522207 2.11339,2.759312 0.0017,4.71e-4 0.004,8.77e-4 0.0057,0.0014 0.514334,0.133312 0.920172,0.123158 0.920172,0.123158 l 4.470952,-0.09546 C 19.07985,33.892316 18.972584,33.062999 18.972584,33.062999 l -3.143088,0.05608 c 0,0 -0.123974,-0.0056 -0.291299,-0.03272 -0.478715,-0.05375 -0.779108,-0.275054 -0.962477,-0.538558 -0.01214,-0.01617 -0.02274,-0.03314 -0.03428,-0.05025 -0.04762,-0.07501 -0.07594,-0.139247 -0.107931,-0.214161 -0.02875,-0.06623 -0.05435,-0.134906 -0.07427,-0.212227 -0.06274,-0.220898 -0.09096,-0.404825 -0.09096,-0.404825 -0.02367,-0.796343 0.339081,-1.111977 0.339081,-1.111977 z"
     sodipodi:nodetypes="sccccccccccccccsssccccssccccccccccccc" />
  <path
     id="path1040"
     style="fill:#8899a6;fill-opacity:1;stroke-width:0.351214"
     d="M 9.5951378,28.656085 C 9.0777645,28.521015 8.6692637,28.531578 8.6692637,28.531578 l -4.4728525,0.09501 c 1.2373415,0.614375 1.344608,1.443691 1.344608,1.443691 l 3.1430875,-0.05608 c 0,0 0.1248582,0.0059 0.2912991,0.03272 0.4759607,0.05344 0.7759656,0.272217 0.9595747,0.533859 0.015192,0.02001 0.029158,0.04098 0.043441,0.06245 0.044388,0.07094 0.070207,0.131599 0.1006735,0.202412 0.02957,0.06746 0.0549,0.137437 0.07527,0.216477 0.06274,0.220899 0.09096,0.404825 0.09096,0.404825 0.02366,0.796342 -0.3390817,1.111977 -0.3390817,1.111977 l 1.6608067,-0.04698 c 0.006,-0.01968 0.01205,-0.03795 0.01772,-0.05803 0.0057,-0.01816 0.02255,-0.08625 0.03795,-0.143558 0.06187,-0.270567 0.09599,-0.572066 0.0858,-0.914953 -0.05518,-1.856854 -1.23364,-2.521799 -2.1133916,-2.759312 z m -5.9877943,1.898228 -1.6589058,0.04743 c -0.00663,0.02163 -0.014768,0.04118 -0.020975,0.06328 -0.00542,0.01727 -0.018714,0.07802 -0.031553,0.124998 -0.063853,0.273748 -0.099294,0.579961 -0.088943,0.92826 0.055213,1.858084 1.2334525,2.522208 2.1133894,2.759313 0.00173,4.7e-4 0.00395,8.76e-4 0.00569,0.0014 0.5143338,0.133311 0.9201719,0.123157 0.9201719,0.123157 l 4.4709519,-0.09546 C 8.0798316,33.892285 7.9725653,33.062968 7.9725653,33.062968 l -3.1430882,0.05608 c 0,0 -0.1239738,-0.0056 -0.2912996,-0.03272 C 4.0594627,33.032578 3.7590696,32.811274 3.5757008,32.54777 3.5635628,32.5316 3.5529608,32.51463 3.5414188,32.49752 3.4938018,32.42252 3.4654748,32.358273 3.4334884,32.283358 3.4047399,32.21712 3.3791433,32.148445 3.359218,32.071124 3.2964792,31.850227 3.2682534,31.6663 3.2682534,31.6663 3.2445881,30.869956 3.6073353,30.554322 3.6073353,30.554322 Z"
     sodipodi:nodetypes="sccccccccccccccsssccccssccccccccccccc" />
  <path
     id="path841"
     d="m 17.276,35.149 c 0,0 1.265,-0.411 1.429,-1.352 0.173,-0.972 -0.624,-1.167 -0.624,-1.167 0,0 1.041,-0.208 1.172,-1.376 0.123,-1.101 -0.861,-1.363 -0.861,-1.363 0,0 0.97,-0.4 1.016,-1.539 0.038,-0.959 -0.995,-1.428 -0.995,-1.428 0,0 5.038,-1.221 5.556,-1.341 0.516,-0.12 1.32,-0.615 1.069,-1.694 -0.249,-1.08 -1.204,-1.118 -1.697,-1.003 -0.494,0.115 -6.744,1.566 -8.9,2.068 l -1.439,0.334 c -0.54,0.127 -0.785,-0.11 -0.404,-0.512 0.508,-0.536 0.833,-1.129 0.946,-2.113 0.119,-1.035 -0.232,-2.313 -0.433,-2.809 -0.374,-0.921 -1.005,-1.649 -1.734,-1.899 -1.137,-0.39 -1.945,0.321 -1.542,1.561 0.604,1.854 0.208,3.375 -0.833,4.293 -2.449,2.157 -3.588,3.695 -2.83,6.973 0.828,3.575 4.377,5.876 7.952,5.048 z"
     fill="#f19020" />
  <path
     id="path1079"
     style="fill:#8899a6;fill-opacity:1;stroke-width:0.351214"
     d="m 39.345138,28.656085 c -0.517374,-0.13507 -0.925874,-0.124507 -0.925874,-0.124507 l -4.472853,0.09501 c 1.237342,0.614375 1.344608,1.443691 1.344608,1.443691 l 3.143088,-0.05608 c 0,0 0.124858,0.0059 0.291299,0.03272 0.47596,0.05344 0.775965,0.272217 0.959575,0.533859 0.01519,0.02001 0.02916,0.04098 0.04344,0.06245 0.04438,0.07094 0.0702,0.131599 0.100673,0.202412 0.02957,0.06746 0.0549,0.137436 0.07527,0.216477 0.06274,0.220899 0.09096,0.404825 0.09096,0.404825 0.02366,0.796342 -0.339081,1.111977 -0.339081,1.111977 l 1.660807,-0.04698 c 0.006,-0.01968 0.01205,-0.03795 0.01772,-0.05803 0.0057,-0.01816 0.02255,-0.08625 0.03795,-0.143558 0.06187,-0.270567 0.09599,-0.572066 0.0858,-0.914953 -0.05518,-1.856854 -1.23364,-2.521799 -2.113392,-2.759312 z m -5.987795,1.898228 -1.658905,0.04743 c -0.0066,0.02163 -0.01477,0.04118 -0.02097,0.06328 -0.0054,0.01727 -0.01871,0.07802 -0.03155,0.124998 -0.06385,0.273748 -0.09929,0.579961 -0.08894,0.92826 0.05521,1.858084 1.233452,2.522208 2.113389,2.759313 0.0017,4.7e-4 0.004,8.76e-4 0.0057,0.0014 0.514334,0.133311 0.920172,0.123157 0.920172,0.123157 l 4.470952,-0.09546 c -1.237338,-0.614406 -1.344605,-1.443723 -1.344605,-1.443723 l -3.143088,0.05608 c 0,0 -0.123974,-0.0056 -0.291299,-0.03272 -0.478715,-0.05375 -0.779108,-0.275054 -0.962477,-0.538558 -0.01214,-0.01617 -0.02274,-0.03314 -0.03428,-0.05025 -0.04762,-0.075 -0.07594,-0.139247 -0.107931,-0.214162 -0.02875,-0.06623 -0.05434,-0.134906 -0.07427,-0.212227 -0.06274,-0.220898 -0.09096,-0.404824 -0.09096,-0.404824 -0.02367,-0.796344 0.339082,-1.111978 0.339082,-1.111978 z"
     sodipodi:nodetypes="sccccccccccccccsssccccssccccccccccccc" />
</svg>
