<?xml version="1.0" encoding="UTF-8" standalone="no"?>
<svg
   xmlns:dc="http://purl.org/dc/elements/1.1/"
   xmlns:cc="http://creativecommons.org/ns#"
   xmlns:rdf="http://www.w3.org/1999/02/22-rdf-syntax-ns#"
   xmlns:svg="http://www.w3.org/2000/svg"
   xmlns="http://www.w3.org/2000/svg"
   xmlns:sodipodi="http://sodipodi.sourceforge.net/DTD/sodipodi-0.dtd"
   xmlns:inkscape="http://www.inkscape.org/namespaces/inkscape"
   inkscape:export-ydpi="682.66998"
   inkscape:export-xdpi="682.66998"
   inkscape:export-filename="/Users/JP25309/personal/custom-emoji/emojis/dinging_face.png"
   inkscape:version="1.0 (4035a4f, 2020-05-01)"
   sodipodi:docname="dinging_face.svg"
   id="svg1473"
   version="1.1"
   viewBox="0 0 36 36">
  <metadata
     id="metadata1479">
    <rdf:RDF>
      <cc:Work
         rdf:about="">
        <dc:format>image/svg+xml</dc:format>
        <dc:type
           rdf:resource="http://purl.org/dc/dcmitype/StillImage" />
      </cc:Work>
    </rdf:RDF>
  </metadata>
  <defs
     id="defs1477" />
  <sodipodi:namedview
     inkscape:snap-page="true"
     inkscape:current-layer="svg1473"
     inkscape:window-maximized="1"
     inkscape:window-y="23"
     inkscape:window-x="0"
     inkscape:cy="68.459923"
     inkscape:cx="-58.069871"
     inkscape:zoom="4.6458333"
     showgrid="false"
     id="namedview1475"
     inkscape:window-height="1035"
     inkscape:window-width="1920"
     inkscape:pageshadow="2"
     inkscape:pageopacity="0"
     guidetolerance="10"
     gridtolerance="10"
     objecttolerance="10"
     borderopacity="1"
     bordercolor="#666666"
     pagecolor="#ffffff" />
  <g
     transform="matrix(0.86425077,0,0,0.86425077,2.4434861,2.4434861)"
     id="g2045">
    <path
       fill="#ffac33"
       d="m 28,13 c 0,11 5,10 5,15 0,0 0,2 -2,2 H 5 C 3,30 3,28 3,28 3,23 8,24 8,13 8,7.478 12.477,3 18,3 23.523,3 28,7.478 28,13 Z"
       id="path1467" />
    <circle
       fill="#ffac33"
       cx="18"
       cy="3"
       r="3"
       id="circle1469" />
    <path
       fill="#ffac33"
       d="m 18,36 c 2.209,0 4,-1.791 4,-4 h -8 c 0,2.209 1.791,4 4,4 z"
       id="path1471" />
  </g>
  <path
     style="fill:#ce7a19;fill-opacity:1"
     id="path2055"
     d="m 15.90352,35.155771 c 0,0 1.265,-0.411 1.429,-1.352 0.173,-0.972 -0.624,-1.167 -0.624,-1.167 0,0 1.041,-0.208 1.172,-1.376 0.123,-1.101 -0.861,-1.363 -0.861,-1.363 0,0 0.97,-0.4 1.016,-1.539 0.038,-0.959 -0.995,-1.428 -0.995,-1.428 0,0 5.038,-1.221 5.556,-1.341 0.516,-0.12 1.32,-0.615 1.069,-1.694 -0.249,-1.08 -1.204,-1.118 -1.697,-1.003 -0.494,0.115 -6.744,1.566 -8.9,2.068 l -1.439,0.334 c -0.54,0.127 -0.785,-0.11 -0.404,-0.512 0.508,-0.536 0.833,-1.129 0.946,-2.113 0.119,-1.035 -0.232,-2.313 -0.433,-2.809 -0.374,-0.921 -1.005,-1.649 -1.734,-1.899 -1.1369998,-0.39 -1.9449998,0.321 -1.5419998,1.561 0.604,1.854 0.208,3.375 -0.833,4.293 -2.449,2.157 -3.588,3.695 -2.83,6.973 0.828,3.575 4.377,5.876 7.9519998,5.048 z"
     fill="#f19020" />
  <g
     transform="matrix(0.86040049,0,0,0.86040049,2.0261145,3.2373982)"
     id="g2085">
    <path
       fill="#65471b"
       d="m 14.443,20.935148 c -0.145,-0.116 -0.258,-0.274 -0.312,-0.464 -0.134,-0.46 0.13,-0.918 0.59,-1.021 4.528,-1.021 7.577,1.363 7.706,1.465 0.384,0.306 0.459,0.845 0.173,1.205 -0.286,0.358 -0.828,0.401 -1.211,0.097 -0.11,-0.084 -2.523,-1.923 -6.182,-1.098 -0.274,0.061 -0.554,-0.016 -0.764,-0.184 z"
       id="path2049" />
    <ellipse
       fill="#65471b"
       cx="13.038"
       cy="11.073148"
       rx="2.125"
       ry="2.6559999"
       id="ellipse2051" />
    <ellipse
       fill="#65471b"
       cx="24.294001"
       cy="12.135148"
       rx="2.125"
       ry="2.6559999"
       id="ellipse2053" />
    <path
       fill="#65471b"
       d="m 9.215,6.250148 c -0.164,-0.088 -0.303,-0.224 -0.391,-0.399 -0.216,-0.428 -0.04,-0.927 0.393,-1.112 4.266,-1.831 7.699,-0.043 7.843,0.034 0.433,0.231 0.608,0.747 0.391,1.154 -0.216,0.405 -0.74,0.546 -1.173,0.318 -0.123,-0.063 -2.832,-1.432 -6.278,0.047 -0.257,0.109 -0.547,0.085 -0.785,-0.042 z m 12.135,3.75 c -0.156,-0.098 -0.286,-0.243 -0.362,-0.424 -0.187,-0.442 0.023,-0.927 0.468,-1.084 4.381,-1.536 7.685,0.48 7.823,0.567 0.415,0.26 0.555,0.787 0.312,1.178 -0.242,0.39 -0.776,0.495 -1.191,0.238 -0.12,-0.072 -2.727,-1.621 -6.267,-0.379 -0.266,0.091 -0.553,0.046 -0.783,-0.096 z"
       id="path2057" />
  </g>
</svg>
