<?xml version="1.0" encoding="UTF-8" standalone="no"?>
<svg
   xmlns:dc="http://purl.org/dc/elements/1.1/"
   xmlns:cc="http://creativecommons.org/ns#"
   xmlns:rdf="http://www.w3.org/1999/02/22-rdf-syntax-ns#"
   xmlns:svg="http://www.w3.org/2000/svg"
   xmlns="http://www.w3.org/2000/svg"
   xmlns:sodipodi="http://sodipodi.sourceforge.net/DTD/sodipodi-0.dtd"
   xmlns:inkscape="http://www.inkscape.org/namespaces/inkscape"
   inkscape:export-ydpi="682.66998"
   inkscape:export-xdpi="682.66998"
   inkscape:export-filename="/Users/JP25309/personal/custom-emoji/emojis/dotted_thinking_face.png"
   inkscape:version="1.0 (4035a4f, 2020-05-01)"
   sodipodi:docname="dotted_thinking_face.svg"
   id="svg843"
   version="1.1"
   xml:space="preserve"
   viewBox="0 0 36 36"><metadata
     id="metadata849"><rdf:RDF><cc:Work
         rdf:about=""><dc:format>image/svg+xml</dc:format><dc:type
           rdf:resource="http://purl.org/dc/dcmitype/StillImage" /></cc:Work></rdf:RDF></metadata><defs
     id="defs847" /><sodipodi:namedview
     inkscape:current-layer="svg843"
     inkscape:window-maximized="1"
     inkscape:window-y="23"
     inkscape:window-x="0"
     inkscape:cy="2.4220103"
     inkscape:cx="5.1777892"
     inkscape:zoom="6.5702005"
     showgrid="false"
     id="namedview845"
     inkscape:window-height="1035"
     inkscape:window-width="1920"
     inkscape:pageshadow="2"
     inkscape:pageopacity="0"
     guidetolerance="10"
     gridtolerance="10"
     objecttolerance="10"
     borderopacity="1"
     bordercolor="#666666"
     pagecolor="#ffffff" /><path
     id="path833"
     d="M35.25 18c0 9.527-7.723 17.25-17.25 17.25C8.473 35.25.75 27.527.75 18 .75 8.473 8.473.75 18 .75 27.527.75 35.25 8.473 35.25 18"
     fill="#FFF5DB" /><path
     id="path835"
     fill="#FFCC4D"
     d="M18.079 35.949c-.789 0-1.571-.043-2.325-.129l.17-1.49c1.492.169 3.091.158 4.74-.04l.281 1.475-.096.015c-.945.113-1.874.169-2.77.169zm-7.281-1.399a16.756 16.756 0 0 1-4.378-2.68l.97-1.145a15.235 15.235 0 0 0 3.988 2.439l-.58 1.386zm15.031-.323-.652-1.35a16.552 16.552 0 0 0 3.894-2.626l1.006 1.113a18.043 18.043 0 0 1-4.248 2.863zm-22.783-6.22a18.6 18.6 0 0 1-2.138-4.648l1.436-.436a17.099 17.099 0 0 0 1.965 4.273l-1.263.811zm30.305-.577-1.277-.787a16.23 16.23 0 0 0 1.861-4.308l1.449.389a17.804 17.804 0 0 1-2.033 4.706zM.087 18.314a18.58 18.58 0 0 1 .553-5.086l1.454.367a17.067 17.067 0 0 0-.508 4.676l-1.499.043zm34.41-.645a16.466 16.466 0 0 0-.759-4.632l1.43-.452c.516 1.631.794 3.33.829 5.053l-1.5.031zM3.894 9.272l-1.283-.777a16.701 16.701 0 0 1 3.304-3.93l.987 1.13a15.203 15.203 0 0 0-3.008 3.577zm27.803-.461a16.645 16.645 0 0 0-3.147-3.487l.961-1.152a18.13 18.13 0 0 1 3.431 3.801l-1.245.838zM10.848 3.155l-.629-1.361A21.776 21.776 0 0 1 15.062.236l.295 1.471a20.309 20.309 0 0 0-4.509 1.448zm13.706-.297a16.358 16.358 0 0 0-4.527-1.234l.184-1.488c1.704.209 3.367.663 4.941 1.347l-.598 1.375z" /><path
     id="path853"
     d="m 14.524,21.02755 c -0.145,-0.116 -0.258,-0.274 -0.312,-0.464 -0.134,-0.46 0.13,-0.918 0.59,-1.021 4.528,-1.021 7.577,1.363 7.706,1.465 0.384,0.306 0.459,0.845 0.173,1.205 -0.286,0.358 -0.828,0.401 -1.211,0.097 -0.11,-0.084 -2.523,-1.923 -6.182,-1.098 -0.274,0.061 -0.554,-0.016 -0.764,-0.184 z"
     fill="#65471b" /><ellipse
     id="ellipse855"
     ry="2.6559999"
     rx="2.125"
     cy="11.165549"
     cx="13.119"
     fill="#65471b" /><ellipse
     id="ellipse857"
     ry="2.6559999"
     rx="2.125"
     cy="12.22755"
     cx="24.375"
     fill="#65471b" /><path
     id="path859"
     d="m 17.276,35.14055 c 0,0 1.265,-0.411 1.429,-1.352 0.173,-0.972 -0.624,-1.167 -0.624,-1.167 0,0 1.041,-0.208 1.172,-1.376 0.123,-1.101 -0.861,-1.363 -0.861,-1.363 0,0 0.97,-0.4 1.016,-1.539 0.038,-0.959 -0.995,-1.428 -0.995,-1.428 0,0 5.038,-1.221 5.556,-1.341 0.516,-0.12 1.32,-0.615 1.069,-1.694 -0.249,-1.08 -1.204,-1.118 -1.697,-1.003 -0.494,0.115 -6.744,1.566 -8.9,2.068 l -1.439,0.334 c -0.54,0.127 -0.785,-0.11 -0.404,-0.512 0.508,-0.536 0.833,-1.129 0.946,-2.113 0.119,-1.035 -0.232,-2.313 -0.433,-2.809 -0.374,-0.921 -1.005,-1.649 -1.734,-1.899 -1.137,-0.39 -1.945,0.321 -1.542,1.561 0.604,1.854 0.208,3.375 -0.833,4.293 -2.449,2.157 -3.588,3.695 -2.83,6.973 0.828,3.575 4.377,5.876 7.952,5.048 z"
     fill="#f19020" /><path
     id="path861"
     d="m 9.296,6.3425496 c -0.164,-0.088 -0.303,-0.224 -0.391,-0.399 -0.216,-0.428 -0.04,-0.927 0.393,-1.112 4.266,-1.831 7.699,-0.043 7.843,0.034 0.433,0.231 0.608,0.747 0.391,1.154 -0.216,0.405 -0.74,0.546 -1.173,0.318 -0.123,-0.063 -2.832,-1.432 -6.278,0.047 -0.257,0.109 -0.547,0.085 -0.785,-0.042 z M 21.431,10.09255 c -0.156,-0.098 -0.286,-0.2430004 -0.362,-0.4240004 -0.187,-0.442 0.023,-0.927 0.468,-1.084 4.381,-1.536 7.685,0.48 7.823,0.567 0.415,0.26 0.555,0.787 0.312,1.1780004 -0.242,0.39 -0.776,0.495 -1.191,0.238 -0.12,-0.072 -2.727,-1.6210004 -6.267,-0.379 -0.266,0.091 -0.553,0.046 -0.783,-0.096 z"
     fill="#65471b" /></svg>
