<?xml version="1.0" encoding="UTF-8" standalone="no"?>
<svg
   xmlns:dc="http://purl.org/dc/elements/1.1/"
   xmlns:cc="http://creativecommons.org/ns#"
   xmlns:rdf="http://www.w3.org/1999/02/22-rdf-syntax-ns#"
   xmlns:svg="http://www.w3.org/2000/svg"
   xmlns="http://www.w3.org/2000/svg"
   xmlns:sodipodi="http://sodipodi.sourceforge.net/DTD/sodipodi-0.dtd"
   xmlns:inkscape="http://www.inkscape.org/namespaces/inkscape"
   inkscape:export-ydpi="682.66998"
   inkscape:export-xdpi="682.66998"
   inkscape:export-filename="/Users/JP25309/personal/custom-emoji/emojis/linking_face.png"
   viewBox="0 0 36 36"
   version="1.1"
   id="svg2698"
   sodipodi:docname="linking_face.svg"
   inkscape:version="1.0 (4035a4f, 2020-05-01)">
  <metadata
     id="metadata2704">
    <rdf:RDF>
      <cc:Work
         rdf:about="">
        <dc:format>image/svg+xml</dc:format>
        <dc:type
           rdf:resource="http://purl.org/dc/dcmitype/StillImage" />
      </cc:Work>
    </rdf:RDF>
  </metadata>
  <defs
     id="defs2702" />
  <sodipodi:namedview
     inkscape:snap-page="true"
     inkscape:document-rotation="0"
     pagecolor="#ffffff"
     bordercolor="#666666"
     borderopacity="1"
     objecttolerance="10"
     gridtolerance="10"
     guidetolerance="10"
     inkscape:pageopacity="0"
     inkscape:pageshadow="2"
     inkscape:window-width="1920"
     inkscape:window-height="1035"
     id="namedview2700"
     showgrid="false"
     inkscape:zoom="2.3229167"
     inkscape:cx="-119.43802"
     inkscape:cy="47.53897"
     inkscape:window-x="0"
     inkscape:window-y="23"
     inkscape:window-maximized="1"
     inkscape:current-layer="svg2698" />
  <g
     transform="translate(1,-0.02322818)"
     id="g2767">
    <circle
       fill="#ffcb4c"
       cx="18"
       cy="17.018"
       r="17"
       id="circle2741" />
    <path
       fill="#65471b"
       d="m 14.219595,22.405821 c -0.145,-0.116 -0.258,-0.274 -0.312,-0.464 -0.134,-0.46 0.13,-0.918 0.59,-1.021 4.528,-1.021 7.577,1.363 7.706,1.465 0.384,0.306 0.459,0.845 0.173,1.205 -0.286,0.358 -0.828,0.401 -1.211,0.097 -0.11,-0.084 -2.523,-1.923 -6.182,-1.098 -0.274,0.061 -0.554,-0.016 -0.764,-0.184 z"
       id="path2743" />
    <ellipse
       fill="#65471b"
       cx="11.673078"
       cy="13.228731"
       rx="2.125"
       ry="2.6559999"
       id="ellipse2745" />
    <ellipse
       fill="#65471b"
       cx="22.929077"
       cy="14.290731"
       rx="2.125"
       ry="2.6559999"
       id="ellipse2747" />
    <path
       fill="#65471b"
       d="M 9.296,6.351 C 9.132,6.263 8.993,6.127 8.905,5.952 8.689,5.524 8.865,5.025 9.298,4.84 c 4.266,-1.831 7.699,-0.043 7.843,0.034 0.433,0.231 0.608,0.747 0.391,1.154 -0.216,0.405 -0.74,0.546 -1.173,0.318 C 16.236,6.283 13.527,4.914 10.081,6.393 9.824,6.502 9.534,6.478 9.296,6.351 Z m 12.135,3.75 C 21.275,10.003 21.145,9.858 21.069,9.677 20.882,9.235 21.092,8.75 21.537,8.593 c 4.381,-1.536 7.685,0.48 7.823,0.567 0.415,0.26 0.555,0.787 0.312,1.178 -0.242,0.39 -0.776,0.495 -1.191,0.238 -0.12,-0.072 -2.727,-1.621 -6.267,-0.379 -0.266,0.091 -0.553,0.046 -0.783,-0.096 z"
       id="path2751" />
  </g>
  <g
     transform="matrix(0.4857997,0,0,0.4857997,-1.4573991,18.511211)"
     id="g2894">
    <path
       fill="#e1e8ed"
       d="m 32.415,9.586 -9,-9 C 23.054,0.225 22.553,0 22,0 c -1.104,0 -1.999,0.896 -2,2 0,0.552 0.224,1.053 0.586,1.415 l -3.859,3.859 9,9 3.859,-3.859 C 29.948,12.776 30.448,13 31,13 c 1.104,0 2.001,-0.896 2,-2 0,-0.552 -0.224,-1.052 -0.585,-1.414 z"
       id="path2877" />
    <path
       fill="#ccd6dd"
       d="M 22,0 H 7 C 4.791,0 3,1.791 3,4 v 28 c 0,2.209 1.791,4 4,4 h 22 c 2.209,0 4,-1.791 4,-4 V 11 h -9 c -1,0 -2,-1 -2,-2 z"
       id="path2879" />
    <path
       fill="#99aab5"
       d="m 22,0 h -2 v 9 c 0,2.209 1.791,4 4,4 h 9 v -2 h -9 c -1,0 -2,-1 -2,-2 z m -5,8 c 0,0.552 -0.448,1 -1,1 H 8 C 7.448,9 7,8.552 7,8 7,7.448 7.448,7 8,7 h 8 c 0.552,0 1,0.448 1,1 z m 0,4 c 0,0.552 -0.448,1 -1,1 H 8 C 7.448,13 7,12.552 7,12 7,11.448 7.448,11 8,11 h 8 c 0.552,0 1,0.448 1,1 z m 12,4 c 0,0.552 -0.447,1 -1,1 H 8 C 7.448,17 7,16.552 7,16 7,15.448 7.448,15 8,15 h 20 c 0.553,0 1,0.448 1,1 z m 0,4 c 0,0.553 -0.447,1 -1,1 H 8 C 7.448,21 7,20.553 7,20 7,19.447 7.448,19 8,19 h 20 c 0.553,0 1,0.447 1,1 z m 0,4 c 0,0.553 -0.447,1 -1,1 H 8 C 7.448,25 7,24.553 7,24 7,23.447 7.448,23 8,23 h 20 c 0.553,0 1,0.447 1,1 z m 0,4 c 0,0.553 -0.447,1 -1,1 H 8 C 7.448,29 7,28.553 7,28 7,27.447 7.448,27 8,27 h 20 c 0.553,0 1,0.447 1,1 z"
       id="path2881" />
  </g>
  <g
     style="fill:#3989f7;fill-opacity:1"
     transform="matrix(0.46086723,0,0,0.46086723,1.2183065,17.674925)"
     id="g2910">
    <path
       style="fill:#3989f7;fill-opacity:1"
       fill="#8899a6"
       d="m 15,9 6,-6 c 0,0 6,-6 12,0 6,6 0,12 0,12 l -8,8 c 0,0 -6,6 -12,0 -1.125,-1.125 -1.822,-2.62 -1.822,-2.62 l 3.353,-3.348 c 0,0 -0.135,1.364 1.469,2.968 0,0 3,3 6,0 l 8,-8 c 0,0 3,-3 0,-6 -3,-3 -6,0 -6,0 l -3.729,3.729 c 0,0 -1.854,-1.521 -5.646,-0.354 z"
       id="path2896" />
    <path
       style="fill:#3989f7;fill-opacity:1"
       fill="#8899a6"
       d="m 20.845,27 -6,6 c 0,0 -6,6 -12,0 -6,-6 0,-12 0,-12 l 8,-8 c 0,0 6,-6 12,0 1.125,1.125 1.822,2.62 1.822,2.62 l -3.354,3.349 c 0,0 0.135,-1.365 -1.469,-2.969 0,0 -3,-3 -6,0 l -8,8 c 0,0 -3,3 0,6 3,3 6,0 6,0 l 3.729,-3.729 c 0,0 1.854,1.521 5.646,0.354 z"
       id="path2898" />
  </g>
</svg>
