<?xml version="1.0" encoding="UTF-8" standalone="no"?>
<svg
   xmlns:dc="http://purl.org/dc/elements/1.1/"
   xmlns:cc="http://creativecommons.org/ns#"
   xmlns:rdf="http://www.w3.org/1999/02/22-rdf-syntax-ns#"
   xmlns:svg="http://www.w3.org/2000/svg"
   xmlns="http://www.w3.org/2000/svg"
   xmlns:sodipodi="http://sodipodi.sourceforge.net/DTD/sodipodi-0.dtd"
   xmlns:inkscape="http://www.inkscape.org/namespaces/inkscape"
   viewBox="0 0 36 36"
   version="1.1"
   id="svg1091"
   sodipodi:docname="oinking_face.svg"
   inkscape:version="1.0 (4035a4f, 2020-05-01)"
   inkscape:export-filename="/Users/JP25309/personal/custom-emoji/emojis/oinking_face.png"
   inkscape:export-xdpi="682.66998"
   inkscape:export-ydpi="682.66998">
  <metadata
     id="metadata1097">
    <rdf:RDF>
      <cc:Work
         rdf:about="">
        <dc:format>image/svg+xml</dc:format>
        <dc:type
           rdf:resource="http://purl.org/dc/dcmitype/StillImage" />
      </cc:Work>
    </rdf:RDF>
  </metadata>
  <defs
     id="defs1095" />
  <sodipodi:namedview
     inkscape:document-rotation="0"
     pagecolor="#ffffff"
     bordercolor="#666666"
     borderopacity="1"
     objecttolerance="10"
     gridtolerance="10"
     guidetolerance="10"
     inkscape:pageopacity="0"
     inkscape:pageshadow="2"
     inkscape:window-width="1920"
     inkscape:window-height="1035"
     id="namedview1093"
     showgrid="false"
     inkscape:zoom="13.767524"
     inkscape:cx="4.6278405"
     inkscape:cy="16.992869"
     inkscape:window-x="0"
     inkscape:window-y="23"
     inkscape:window-maximized="1"
     inkscape:current-layer="svg1091" />
  <path
     fill="#f4abba"
     d="m 34.193,12.187482 c 0.387,-0.371 0.733,-0.795 1.019,-1.28 1.686,-2.8539997 0.27,-10.29199967 -0.592,-10.79999967 -0.695,-0.411 -5.529,1.04999997 -8.246,3.13199997 -2.498,-1.497 -5.343,-2.38099997 -8.374,-2.38099997 -3.021,0 -5.856,0.87899997 -8.349,2.36699997 -2.721,-2.074 -7.532,-3.52799997 -8.227,-3.11799997 -0.861,0.508 -2.276,7.94699997 -0.592,10.79999967 0.278,0.471 0.615,0.884 0.989,1.249 -1.155,2.552 -1.821,5.342 -1.821,8.181 0,9.989 8.011,12.521 18,12.521 9.989,0 18,-2.532 18,-12.521 0,-2.828 -0.66,-5.606 -1.807,-8.15 z"
     id="path1081" />
  <path
     d="m 33.753,11.242482 c 0.733,-3.2669997 0.219,-7.9279997 -0.351,-8.2649997 -0.398,-0.235 -2.635,0.578 -4.801,1.845 2.114,1.739 3.88,3.938 5.152,6.4199997 z"
     id="path1713"
     style="fill:#ea596e;fill-opacity:1" />
  <path
     d="m 7.398,4.8234823 c -2.166,-1.267 -4.402,-2.08 -4.8,-1.845 -0.57,0.337 -1.083,4.998 -0.352,8.2649997 1.273,-2.4829997 3.04,-4.6819997 5.152,-6.4199997 z"
     id="path1083"
     style="fill:#ea596e;fill-opacity:1" />
  <g
     id="g1719"
     transform="matrix(0.79452682,0,0,0.79452682,3.6985172,2.8285211)">
    <path
       style="fill:#ea596e;fill-opacity:1"
       id="path1715"
       d="m 28,21.983482 c 0,4.487 -3.097,9.375 -10,9.375 -6.904,0 -10,-4.888 -10,-9.375 0,-4.487 3.096,-5.625 10,-5.625 6.903,0 10,1.138 10,5.625 z" />
    <path
       id="path1085"
       d="m 15,23.458482 c 0,1.857 -0.34,2.4 -1.5,2.4 -1.16,0 -1.5,-0.543 -1.5,-2.4 0,-1.856 0.34,-2.399 1.5,-2.399 1.16,0 1.5,0.542 1.5,2.399 z m 9,0 c 0,1.857 -0.34,2.4 -1.5,2.4 -1.16,0 -1.5,-0.543 -1.5,-2.4 0,-1.856 0.34,-2.399 1.5,-2.399 1.16,0 1.5,0.542 1.5,2.399 z"
       fill="#662113" />
  </g>
  <circle
     fill="#292f33"
     cx="9.7396421"
     cy="10.584284"
     r="2"
     id="circle1087" />
  <circle
     fill="#292F33"
     cx="27.554077"
     cy="12.410712"
     r="2"
     id="circle1089" />
  <path
     id="path1670"
     d="m 6.881332,4.2424467 c -0.164,-0.088 -0.303,-0.224 -0.391,-0.399 -0.216,-0.428 -0.04,-0.927 0.393,-1.112 4.266,-1.83100003 7.699,-0.043 7.843,0.034 0.433,0.231 0.608,0.747 0.391,1.154 -0.216,0.405 -0.74,0.546 -1.173,0.318 -0.123,-0.063 -2.832,-1.432 -6.278,0.047 -0.257,0.109 -0.547,0.085 -0.785,-0.042 z" />
  <path
     fill="#f19020"
     d="m 11.974307,35.23455 c 0,0 1.127103,-0.366197 1.273225,-1.204619 0.154141,-0.866042 -0.555978,-1.039786 -0.555978,-1.039786 0,0 0.927521,-0.185325 1.044241,-1.226002 0.109591,-0.98098 -0.767143,-1.21442 -0.767143,-1.21442 0,0 0.864261,-0.356396 0.905246,-1.371233 0.03386,-0.85446 -0.886535,-1.272334 -0.886535,-1.272334 0,0 4.488808,-1.087899 4.950341,-1.194818 0.459751,-0.106919 1.176107,-0.547959 0.952469,-1.509337 -0.221857,-0.96227 -1.072753,-0.996127 -1.512011,-0.893663 -0.440149,0.102463 -6.008837,1.39529 -7.9298112,1.842567 L 8.166216,26.448496 C 7.6850813,26.561652 7.4667887,26.350487 7.8062559,25.992309 8.2588789,25.514738 8.5484507,24.986381 8.6491326,24.109647 8.7551604,23.187472 8.4424229,22.048787 8.2633339,21.606856 7.9301036,20.786254 7.3678888,20.137613 6.718357,19.914865 5.7053012,19.567379 4.9853812,20.200873 5.3444502,21.305701 c 0.5381581,1.651896 0.185326,3.007092 -0.7421948,3.825021 -2.1820348,1.921865 -3.1968726,3.292208 -2.5215021,6.212874 0.7377399,3.185289 3.8998639,5.235458 7.0851536,4.497718 z"
     id="path1668"
     style="stroke-width:0.89099;fill:#b0492c;fill-opacity:1" />
  <path
     id="path1690"
     d="m 23.7788,8.2207503 c -0.156,-0.098 -0.286,-0.243 -0.362,-0.424 -0.187,-0.442 0.023,-0.927 0.468,-1.084 4.381,-1.5360001 7.685,0.48 7.823,0.567 0.415,0.26 0.555,0.787 0.312,1.178 -0.242,0.3900001 -0.776,0.4950001 -1.191,0.2380001 -0.12,-0.072 -2.727,-1.6210001 -6.267,-0.3790001 -0.266,0.091 -0.553,0.046 -0.783,-0.096 z" />
</svg>
