<?xml version="1.0" encoding="UTF-8" standalone="no"?>
<svg
   xmlns:dc="http://purl.org/dc/elements/1.1/"
   xmlns:cc="http://creativecommons.org/ns#"
   xmlns:rdf="http://www.w3.org/1999/02/22-rdf-syntax-ns#"
   xmlns:svg="http://www.w3.org/2000/svg"
   xmlns="http://www.w3.org/2000/svg"
   xmlns:sodipodi="http://sodipodi.sourceforge.net/DTD/sodipodi-0.dtd"
   xmlns:inkscape="http://www.inkscape.org/namespaces/inkscape"
   inkscape:export-ydpi="682.66998"
   inkscape:export-xdpi="682.66998"
   inkscape:export-filename="/Users/JP25309/personal/custom-emoji/emojis/picking_face.png"
   viewBox="0 0 36 36"
   version="1.1"
   id="svg2698"
   sodipodi:docname="picking_face.svg"
   inkscape:version="1.0 (4035a4f, 2020-05-01)">
  <metadata
     id="metadata2704">
    <rdf:RDF>
      <cc:Work
         rdf:about="">
        <dc:format>image/svg+xml</dc:format>
        <dc:type
           rdf:resource="http://purl.org/dc/dcmitype/StillImage" />
      </cc:Work>
    </rdf:RDF>
  </metadata>
  <defs
     id="defs2702" />
  <sodipodi:namedview
     inkscape:snap-page="true"
     inkscape:document-rotation="0"
     pagecolor="#ffffff"
     bordercolor="#666666"
     borderopacity="1"
     objecttolerance="10"
     gridtolerance="10"
     guidetolerance="10"
     inkscape:pageopacity="0"
     inkscape:pageshadow="2"
     inkscape:window-width="1920"
     inkscape:window-height="1035"
     id="namedview2700"
     showgrid="false"
     inkscape:zoom="6.5702005"
     inkscape:cx="-27.920376"
     inkscape:cy="38.633387"
     inkscape:window-x="0"
     inkscape:window-y="23"
     inkscape:window-maximized="1"
     inkscape:current-layer="svg2698" />
  <g
     transform="translate(0.96860986,-0.02322818)"
     id="g2767">
    <circle
       fill="#ffcb4c"
       cx="18"
       cy="17.018"
       r="17"
       id="circle2741" />
    <path
       fill="#65471b"
       d="m 14.219595,22.405821 c -0.145,-0.116 -0.258,-0.274 -0.312,-0.464 -0.134,-0.46 0.13,-0.918 0.59,-1.021 4.528,-1.021 7.577,1.363 7.706,1.465 0.384,0.306 0.459,0.845 0.173,1.205 -0.286,0.358 -0.828,0.401 -1.211,0.097 -0.11,-0.084 -2.523,-1.923 -6.182,-1.098 -0.274,0.061 -0.554,-0.016 -0.764,-0.184 z"
       id="path2743" />
    <ellipse
       fill="#65471b"
       cx="11.673078"
       cy="13.228731"
       rx="2.125"
       ry="2.6559999"
       id="ellipse2745" />
    <ellipse
       fill="#65471b"
       cx="22.929077"
       cy="14.290731"
       rx="2.125"
       ry="2.6559999"
       id="ellipse2747" />
    <path
       fill="#65471b"
       d="M 9.296,6.351 C 9.132,6.263 8.993,6.127 8.905,5.952 8.689,5.524 8.865,5.025 9.298,4.84 c 4.266,-1.831 7.699,-0.043 7.843,0.034 0.433,0.231 0.608,0.747 0.391,1.154 -0.216,0.405 -0.74,0.546 -1.173,0.318 C 16.236,6.283 13.527,4.914 10.081,6.393 9.824,6.502 9.534,6.478 9.296,6.351 Z m 12.135,3.75 C 21.275,10.003 21.145,9.858 21.069,9.677 20.882,9.235 21.092,8.75 21.537,8.593 c 4.381,-1.536 7.685,0.48 7.823,0.567 0.415,0.26 0.555,0.787 0.312,1.178 -0.242,0.39 -0.776,0.495 -1.191,0.238 -0.12,-0.072 -2.727,-1.621 -6.267,-0.379 -0.266,0.091 -0.553,0.046 -0.783,-0.096 z"
       id="path2751" />
  </g>
  <g
     transform="matrix(0.42545619,-0.09017972,0.18390839,0.40361507,0.27031837,18.797386)"
     id="g2137">
    <path
       fill="#99aab5"
       d="M 33.958,2.042 C 32.6,0.684 30.072,1.01 28.312,2.771 26.4,4.683 1.099,34.901 1.099,34.901 1.099,34.901 31.317,9.6 33.229,7.688 34.99,5.928 35.316,3.4 33.958,2.042 Z M 28.279,7.721 C 27.736,7.178 28.094,5.939 29.15,4.883 c 1.056,-1.056 2.353,-1.472 2.896,-0.929 0.543,0.543 0.127,1.84 -0.929,2.896 -1.056,1.056 -2.295,1.414 -2.838,0.871 z"
       id="path2117" />
    <path
       fill="#ccd6dd"
       d="M 33.736,2.191 C 32.378,0.833 30.105,1.322 28.345,3.082 26.432,4.995 5.079,30.921 5.079,30.921 c 0,0 3.904,-3.731 9.337,-8.297 2.532,-2.128 8.814,-8.792 11.287,-10.99 1.069,-0.95 3.788,-1.417 4.634,-1.96 0.832,-0.535 1.928,-1.733 2.33,-2.135 1.76,-1.761 2.427,-3.99 1.069,-5.348 z m -5.907,5.98 c -0.767,-0.767 -0.401,-2.378 0.907,-3.686 1.308,-1.308 2.991,-1.747 3.758,-0.979 0.767,0.767 0.329,2.45 -0.979,3.758 -1.308,1.308 -2.918,1.674 -3.686,0.907 z"
       id="path2119" />
    <path
       fill="#e1e8ed"
       d="m 24.647,8.652 c 0.979,-1.03 1.693,-2.183 1.827,-1.158 0.134,1.025 0.49,1.515 1.025,1.515 0.535,0 0.04,0.962 -0.802,1.203 -2.495,0.713 -10.515,9.847 -12.342,11.54 -1.827,1.693 -2.851,2.45 -1.069,0.178 C 15.068,19.658 23.8,9.543 24.647,8.652 Z"
       id="path2123" />
  </g>
  <g
     transform="matrix(0.42048983,0,0,0.42048983,-1.8647805,19.543981)"
     id="g2115">
    <path
       fill="#aab8c2"
       d="M 18,0 C 13.388,0 9.517,3.126 8.361,7.371 l 3.855,1.052 C 12.91,5.876 15.233,4 18,4 c 3.313,0 6,2.687 6,6 v 10 h 4 V 10 C 28,4.478 23.523,0 18,0 Z"
       id="path2101" />
    <path
       fill="#ffac33"
       d="m 31,32 c 0,2.209 -1.791,4 -4,4 H 9 C 6.791,36 5,34.209 5,32 V 20 c 0,-2.209 1.791,-4 4,-4 h 18 c 2.209,0 4,1.791 4,4 z"
       id="path2103" />
  </g>
</svg>
