<?xml version="1.0" encoding="UTF-8" standalone="no"?>
<svg
   xmlns:dc="http://purl.org/dc/elements/1.1/"
   xmlns:cc="http://creativecommons.org/ns#"
   xmlns:rdf="http://www.w3.org/1999/02/22-rdf-syntax-ns#"
   xmlns:svg="http://www.w3.org/2000/svg"
   xmlns="http://www.w3.org/2000/svg"
   xmlns:sodipodi="http://sodipodi.sourceforge.net/DTD/sodipodi-0.dtd"
   xmlns:inkscape="http://www.inkscape.org/namespaces/inkscape"
   inkscape:export-ydpi="682.66998"
   inkscape:export-xdpi="682.66998"
   inkscape:export-filename="/Users/JP25309/personal/custom-emoji/emojis/reading_face.png"
   viewBox="0 0 36 36"
   version="1.1"
   id="svg2698"
   sodipodi:docname="reading_face.svg"
   inkscape:version="1.0 (4035a4f, 2020-05-01)">
  <metadata
     id="metadata2704">
    <rdf:RDF>
      <cc:Work
         rdf:about="">
        <dc:format>image/svg+xml</dc:format>
        <dc:type
           rdf:resource="http://purl.org/dc/dcmitype/StillImage" />
      </cc:Work>
    </rdf:RDF>
  </metadata>
  <defs
     id="defs2702" />
  <sodipodi:namedview
     inkscape:snap-page="true"
     inkscape:document-rotation="0"
     pagecolor="#ffffff"
     bordercolor="#666666"
     borderopacity="1"
     objecttolerance="10"
     gridtolerance="10"
     guidetolerance="10"
     inkscape:pageopacity="0"
     inkscape:pageshadow="2"
     inkscape:window-width="1920"
     inkscape:window-height="1035"
     id="namedview2700"
     showgrid="false"
     inkscape:zoom="6.5702005"
     inkscape:cx="-16.023296"
     inkscape:cy="-0.020038026"
     inkscape:window-x="0"
     inkscape:window-y="23"
     inkscape:window-maximized="1"
     inkscape:current-layer="svg2698" />
  <g
     transform="translate(0,-0.02322818)"
     id="g2767">
    <circle
       fill="#ffcb4c"
       cx="18"
       cy="17.018"
       r="17"
       id="circle2741" />
    <path
       fill="#65471b"
       d="m 14.219595,22.405821 c -0.145,-0.116 -0.258,-0.274 -0.312,-0.464 -0.134,-0.46 0.13,-0.918 0.59,-1.021 4.528,-1.021 7.577,1.363 7.706,1.465 0.384,0.306 0.459,0.845 0.173,1.205 -0.286,0.358 -0.828,0.401 -1.211,0.097 -0.11,-0.084 -2.523,-1.923 -6.182,-1.098 -0.274,0.061 -0.554,-0.016 -0.764,-0.184 z"
       id="path2743" />
    <ellipse
       fill="#65471b"
       cx="11.673078"
       cy="13.228731"
       rx="2.125"
       ry="2.6559999"
       id="ellipse2745" />
    <ellipse
       fill="#65471b"
       cx="22.929077"
       cy="14.290731"
       rx="2.125"
       ry="2.6559999"
       id="ellipse2747" />
    <path
       fill="#65471b"
       d="M 9.296,6.351 C 9.132,6.263 8.993,6.127 8.905,5.952 8.689,5.524 8.865,5.025 9.298,4.84 c 4.266,-1.831 7.699,-0.043 7.843,0.034 0.433,0.231 0.608,0.747 0.391,1.154 -0.216,0.405 -0.74,0.546 -1.173,0.318 C 16.236,6.283 13.527,4.914 10.081,6.393 9.824,6.502 9.534,6.478 9.296,6.351 Z m 12.135,3.75 C 21.275,10.003 21.145,9.858 21.069,9.677 20.882,9.235 21.092,8.75 21.537,8.593 c 4.381,-1.536 7.685,0.48 7.823,0.567 0.415,0.26 0.555,0.787 0.312,1.178 -0.242,0.39 -0.776,0.495 -1.191,0.238 -0.12,-0.072 -2.727,-1.621 -6.267,-0.379 -0.266,0.091 -0.553,0.046 -0.783,-0.096 z"
       id="path2751" />
  </g>
  <g
     transform="matrix(0.40815763,0,0,0.40815763,5.5957632,20.198047)"
     id="g2776">
    <path
       sodipodi:nodetypes="ssssscccs"
       id="path2688"
       d="m 16.257741,24.596816 c 0,2.209 -1.855472,4.529794 -4,4 L -9.7422592,23.161838 c -2.1445278,-0.529793 -3.9999998,-1.791 -3.9999998,-4 V 0.59681635 c 0,-5.07936145 4.6777668,-4.57387515 5.5223553,-4.15602675 L 4.0383787,4 16.257741,13.942108 Z"
       fill="#ccd6dd" />
    <path
       style="stroke-width:0.786864"
       sodipodi:nodetypes="sssssscss"
       fill="#3b88c3"
       d="m -13.709809,21.064147 c 0.0029,1.582953 2.915654,6.162596 4.0652346,5.184219 l 7.9581947,-6.773006 c 1.14958114,-0.978378 2.301504,-1.669881 2.7334654,-3.624145 L 2.9496152,7.243862 C 3.2872766,5.716227 -0.32794093,3.9702484 -1.6863797,3.0608952 l -9.0929513,-6.086917 c -1.252735,-0.7920562 -2.972909,0.7905957 -2.968529,3.19556358 z"
       id="path2692-3" />
    <path
       style="stroke-width:0.786864"
       sodipodi:nodetypes="scsssssss"
       fill="#55acee"
       d="m -12.81927,18.933314 c 0,5.296603 -0.08439,4.838986 2.410596,7.619457 L 2.2899069,34.931819 C 3.0853623,35.456693 2.8502563,30.930812 2.873514,28.929513 L 3.1018175,9.2842384 C 3.1175791,7.9279665 -0.34170716,5.9917804 -1.6863797,5.0344026 L -10.4854,-1.2303104 c -1.344672,-0.9573776 -2.33387,-0.2620549 -2.33387,1.73937902 z"
       id="path2694-1" />
    <path
       sodipodi:nodetypes="ssssscsss"
       id="path2690"
       d="m 31,31 c 0,1.657 -1.343,3 -3,3 H 4 C 2.343,34 0.78892582,32.643502 1,31 L 4.0737931,7.0663085 C 4.1041907,6.8296212 4.0383787,4 4.0383787,4 H 28 c 1.657,0 3,1.343 3,3 z"
       fill="#e1e8ed" />
    <path
       id="path2692"
       d="m 31,32 c 0,2.209 -1.791,4 -4,4 H 6 C 3.791,36 2,34.209 2,32 V 10 C 2,7.791 3.791,6 6,6 h 21 c 2.209,0 4,1.791 4,4 z"
       fill="#3b88c3" />
    <path
       id="path2694"
       d="m 29,32 c 0,2.209 -1.791,4 -4,4 H 6 C 3.791,36 2,34.209 2,32 V 12 C 2,9.791 3.791,8 6,8 H 25.335 C 27.544,8 29,9.456 29,11.665 Z"
       fill="#55acee" />
    <path
       sodipodi:nodetypes="cccsccc"
       id="path2696"
       d="M 4.3136533,6 C 2.7919578,6 1,4.72814 1,4.72814 L 0.86547085,33.991032 c 0,0 2.79255405,2.145841 4.82062785,2.06278 L 7,36 V 6 C 7,6 5.6993036,6.0134529 4.3136533,6 Z"
       fill="#226699" />
  </g>
</svg>
