<?xml version="1.0" encoding="UTF-8" standalone="no"?>
<svg
   inkscape:version="1.3.2 (091e20e, 2023-11-25)"
   sodipodi:docname="reading_dead.svg"
   id="svg2698"
   version="1.1"
   viewBox="0 0 36 36"
   inkscape:export-filename="/Users/JP25309/personal/custom-emoji/emojis/reading_face.png"
   inkscape:export-xdpi="682.66998"
   inkscape:export-ydpi="682.66998"
   xml:space="preserve"
   xmlns:inkscape="http://www.inkscape.org/namespaces/inkscape"
   xmlns:sodipodi="http://sodipodi.sourceforge.net/DTD/sodipodi-0.dtd"
   xmlns="http://www.w3.org/2000/svg"
   xmlns:svg="http://www.w3.org/2000/svg"
   xmlns:rdf="http://www.w3.org/1999/02/22-rdf-syntax-ns#"
   xmlns:cc="http://creativecommons.org/ns#"
   xmlns:dc="http://purl.org/dc/elements/1.1/"><metadata
     id="metadata2704"><rdf:RDF><cc:Work
         rdf:about=""><dc:format>image/svg+xml</dc:format><dc:type
           rdf:resource="http://purl.org/dc/dcmitype/StillImage" /></cc:Work></rdf:RDF></metadata><defs
     id="defs2702" /><sodipodi:namedview
     inkscape:current-layer="svg2698"
     inkscape:window-maximized="1"
     inkscape:window-y="25"
     inkscape:window-x="1920"
     inkscape:cy="-30.905644"
     inkscape:cx="14.78096"
     inkscape:zoom="2.2326019"
     showgrid="false"
     id="namedview2700"
     inkscape:window-height="787"
     inkscape:window-width="1440"
     inkscape:pageshadow="2"
     inkscape:pageopacity="0"
     guidetolerance="10"
     gridtolerance="10"
     objecttolerance="10"
     borderopacity="1"
     bordercolor="#666666"
     pagecolor="#ffffff"
     inkscape:document-rotation="0"
     inkscape:snap-page="true"
     inkscape:showpageshadow="2"
     inkscape:pagecheckerboard="0"
     inkscape:deskcolor="#d1d1d1" /><g
     id="g1"
     transform="matrix(0.92898332,0,0,0.95028833,5.8731481,3.5361143)"><g
       id="layer1"
       inkscape:label="Layer 1"
       style="display:inline"
       transform="translate(-5.0319418,-2.5954226)"><circle
         fill="#ffcc4d"
         cx="18"
         cy="18"
         r="18"
         id="circle10" /><path
         fill="#ffac33"
         d="m 33.175,8.316 c 0,0 -9.042,0.161 -15.175,0.161 C 14.095,8.477 2.794,8.359 2.794,8.359 L 2.273,9.235 c 3.043,1.856 9.064,2.917 15.727,2.917 6.596,0 12.576,-1.04 15.652,-2.86 L 33.73,9.245 c 0,0 -0.374,-0.664 -0.555,-0.929 z"
         id="path14" /></g></g><g
     id="g2767"
     transform="translate(0,-0.02322818)"><path
       id="path2743"
       d="m 14.219595,22.405821 c -0.145,-0.116 -0.258,-0.274 -0.312,-0.464 -0.134,-0.46 0.13,-0.918 0.59,-1.021 4.528,-1.021 7.577,1.363 7.706,1.465 0.384,0.306 0.459,0.845 0.173,1.205 -0.286,0.358 -0.828,0.401 -1.211,0.097 -0.11,-0.084 -2.523,-1.923 -6.182,-1.098 -0.274,0.061 -0.554,-0.016 -0.764,-0.184 z"
       fill="#65471b" /><ellipse
       id="ellipse2745"
       ry="2.6559999"
       rx="2.125"
       cy="13.228731"
       cx="11.673078"
       fill="#65471b" /><ellipse
       id="ellipse2747"
       ry="2.6559999"
       rx="2.125"
       cy="14.290731"
       cx="22.929077"
       fill="#65471b" /></g><path
     d="m 21.431,8.7744718 c -0.156,-0.098 -0.286,-0.243 -0.362,-0.424 -0.187,-0.442 0.023,-0.927 0.468,-1.084 4.381,-1.536 7.685,0.48 7.823,0.567 0.415,0.26 0.555,0.787 0.312,1.178 -0.242,0.39 -0.776,0.495 -1.191,0.238 -0.12,-0.072 -2.727,-1.621 -6.267,-0.379 -0.266,0.091 -0.553,0.046 -0.783,-0.096 z"
     id="path1"
     style="fill:#65471b;fill-opacity:1" /><g
     style="display:inline"
     inkscape:label="Layer 3"
     id="layer3"
     transform="matrix(0.92898332,0,0,0.95028833,1.1985581,1.0697145)"
     sodipodi:insensitive="true"><path
       fill="#5dadec"
       d="M 23.777,0.345 C 22.565,0.251 21.304,0.186 20.004,0.155 19.343,0.139 18.676,0.129 18,0.129 c -0.672,0 -1.336,0.01 -1.993,0.025 C 14.705,0.185 13.443,0.25 12.23,0.344 5.34,0.88 0.169,2.451 0.169,5.287 c 0,3.588 8.264,5.771 17.831,5.771 9.567,0 17.831,-2.183 17.831,-5.771 0,-2.835 -5.168,-4.405 -12.054,-4.942 z M 18,7.383 C 11.139,7.383 5.09,6.55 5.09,4.647 5.09,4.111 5.584,3.624 6.429,3.198 7.582,2.617 9.407,2.154 11.618,1.849 13.529,1.587 15.716,1.439 18,1.439 c 2.291,0 4.485,0.148 6.4,0.413 2.242,0.31 4.086,0.783 5.232,1.377 0.807,0.418 1.278,0.894 1.278,1.418 0,1.903 -6.049,2.736 -12.91,2.736 z"
       id="path16"
       style="display:inline" /><path
       fill="#3b94d9"
       d="m 24.4,1.853 c 2.242,0.31 4.086,0.783 5.232,1.377 l 0.062,0.017 C 27.409,1.573 25.124,0.687 23.777,0.345 22.565,0.251 21.304,0.186 20.004,0.155 l 0.018,0.007 z M 6.429,3.199 C 7.582,2.618 9.407,2.155 11.618,1.85 L 15.984,0.162 16.007,0.154 C 14.705,0.185 13.443,0.25 12.23,0.344 10.883,0.686 8.597,1.571 6.311,3.246 Z"
       id="path18"
       style="display:inline" /><path
       fill="#ffcc4d"
       d="M 28.472,3.375 C 27.812,2.932 27.126,2.465 26.471,2.115 23.947,0.765 21.063,0 18,0 15.071,0 12.305,0.7 9.86,1.941 8.771,2.494 7.979,2.94 7.69,3.375 Z"
       id="path20"
       style="display:inline" /></g><path
     d="M 9.296,6.351 C 9.132,6.263 8.993,6.127 8.905,5.952 8.689,5.524 8.865,5.025 9.298,4.84 c 4.266,-1.831 7.699,-0.043 7.843,0.034 0.433,0.231 0.608,0.747 0.391,1.154 -0.216,0.405 -0.74,0.546 -1.173,0.318 C 16.236,6.283 13.527,4.914 10.081,6.393 9.824,6.502 9.534,6.478 9.296,6.351 Z"
     transform="translate(0,-0.02322818)"
     id="path2751"
     style="fill:#65471b;fill-opacity:1" /><g
     id="g2776"
     transform="matrix(0.40815763,0,0,0.40815763,5.5957632,20.198047)"><path
       fill="#ccd6dd"
       d="m 16.257741,24.596816 c 0,2.209 -1.855472,4.529794 -4,4 L -9.7422592,23.161838 c -2.1445278,-0.529793 -3.9999998,-1.791 -3.9999998,-4 V 0.59681635 c 0,-5.07936145 4.6777668,-4.57387515 5.5223553,-4.15602675 L 4.0383787,4 16.257741,13.942108 Z"
       id="path2688"
       sodipodi:nodetypes="ssssscccs" /><path
       id="path2692-3"
       d="m -13.709809,18.163659 c 0.0033,1.582952 2.915654,9.063084 4.0652346,8.084707 l 7.9581947,-6.773006 c 1.14958114,-0.978378 2.301504,-1.669881 2.7334654,-3.624145 L 2.9496152,7.243862 C 3.2872766,5.716227 -0.32794093,3.9702484 -1.6863797,3.0608952 l -9.0929513,-6.086917 c -1.516416,-0.9568567 -2.973615,0.7905971 -2.968529,3.19556358 z"
       fill="#3b88c3"
       sodipodi:nodetypes="sssssscss"
       style="stroke-width:0.786864" /><path
       id="path2694-1"
       d="m -13.70491,18.933314 c 0,3.338873 0.708025,5.2585 3.296236,7.619457 L 2.2899069,34.931819 C 3.0853623,35.456693 2.8502563,30.930812 2.873514,28.929513 L 3.1018175,9.2842384 C 3.1175791,7.9279665 -0.32505057,5.967944 -1.6863797,5.0344026 L -10.4854,-0.99958973 c -3.30072,-2.26349297 -3.21951,-0.49277557 -3.21951,1.50865835 z"
       fill="#55acee"
       sodipodi:nodetypes="scsssssss"
       style="stroke-width:0.786864" /><path
       fill="#e1e8ed"
       d="m 31,31 c 0,1.657 -1.343,3 -3,3 H 4 C 2.343,34 0.78892582,32.643502 1,31 L 4.0737931,7.0663085 C 4.1041907,6.8296212 4.0383787,4 4.0383787,4 H 28 c 1.657,0 3,1.343 3,3 z"
       id="path2690"
       sodipodi:nodetypes="ssssscsss" /><path
       fill="#3b88c3"
       d="m 31,32 c 0,2.209 -1.791,4 -4,4 H 6 C 3.791,36 2,34.209 2,32 V 10 C 2,7.791 3.791,6 6,6 h 21 c 2.209,0 4,1.791 4,4 z"
       id="path2692" /><path
       fill="#55acee"
       d="m 29,32 c 0,2.209 -1.791,4 -4,4 H 6 C 3.791,36 2,34.209 2,32 V 12 C 2,9.791 3.791,8 6,8 H 25.335 C 27.544,8 29,9.456 29,11.665 Z"
       id="path2694" /><path
       fill="#226699"
       d="M 4.3136533,6 C 2.7919578,6 1,4.72814 1,4.72814 L 0.86547085,33.991032 c 0,0 2.79255405,2.145841 4.82062785,2.06278 L 7,36 V 6 C 7,6 5.6993036,6.0134529 4.3136533,6 Z"
       id="path2696"
       sodipodi:nodetypes="cccsccc" /></g></svg>
