<?xml version="1.0" encoding="UTF-8" standalone="no"?>
<svg
   xmlns:dc="http://purl.org/dc/elements/1.1/"
   xmlns:cc="http://creativecommons.org/ns#"
   xmlns:rdf="http://www.w3.org/1999/02/22-rdf-syntax-ns#"
   xmlns:svg="http://www.w3.org/2000/svg"
   xmlns="http://www.w3.org/2000/svg"
   xmlns:sodipodi="http://sodipodi.sourceforge.net/DTD/sodipodi-0.dtd"
   xmlns:inkscape="http://www.inkscape.org/namespaces/inkscape"
   inkscape:export-ydpi="682.66998"
   inkscape:export-xdpi="682.66998"
   inkscape:export-filename="/Users/JP25309/personal/custom-emoji/emojis/ringing_face.png"
   inkscape:version="1.0 (4035a4f, 2020-05-01)"
   sodipodi:docname="ringing_face.svg"
   id="svg925"
   version="1.1"
   viewBox="0 0 36 36">
  <metadata
     id="metadata931">
    <rdf:RDF>
      <cc:Work
         rdf:about="">
        <dc:format>image/svg+xml</dc:format>
        <dc:type
           rdf:resource="http://purl.org/dc/dcmitype/StillImage" />
      </cc:Work>
    </rdf:RDF>
  </metadata>
  <defs
     id="defs929" />
  <sodipodi:namedview
     inkscape:current-layer="g1520"
     inkscape:window-maximized="1"
     inkscape:window-y="23"
     inkscape:window-x="0"
     inkscape:cy="17.044295"
     inkscape:cx="3.7792395"
     inkscape:zoom="9.2916667"
     showgrid="false"
     id="namedview927"
     inkscape:window-height="1035"
     inkscape:window-width="1920"
     inkscape:pageshadow="2"
     inkscape:pageopacity="0"
     guidetolerance="10"
     gridtolerance="10"
     objecttolerance="10"
     borderopacity="1"
     bordercolor="#666666"
     pagecolor="#ffffff" />
  <path
     id="path919"
     d="M 35.877102,12.748519 C 36.381975,9.7527646 34.165215,4.8542529 19.373799,2.3614605 4.5823826,-0.13133186 0.88257677,3.7700629 0.37770323,6.7658176 c -0.007478,0.044374 0.006106,0.078101 0.001918,0.1210014 -0.0444056,0.1912803 -0.0885009,0.3927539 -0.12655756,0.6185695 -0.43590629,2.5865255 1.58466721,4.0699445 4.30727391,4.5287845 2.7226066,0.45884 5.1177638,-0.280397 5.5536705,-2.8669229 0.03623,-0.2149686 0.04776,-0.4097608 0.04892,-0.5971739 2.44961,0.056882 5.189863,0.2124376 8.047565,0.6940451 2.857701,0.4816075 5.497579,1.2327637 7.830526,1.9818847 -0.06033,0.177442 -0.113275,0.365254 -0.149504,0.580223 -0.435906,2.586525 1.583681,4.069778 4.307274,4.528784 2.723593,0.459007 5.117764,-0.280397 5.55367,-2.866923 0.03739,-0.221871 0.06242,-0.42453 0.07954,-0.616353 0.01159,-0.0447 0.03696,-0.0749 0.0451,-0.123218 z"
     fill="#be1931" />
  <path
     id="path921"
     d="m 34.934,27.035874 c -0.482,-1.031 -2.31,-4.19 -3.968,-7.007 -1.558,-2.647 -3.966,-4.993 -5.966,-4.993 v -2 c 0,-1.104 -0.896,-2 -2,-2 -1.104,0 -2,0.896 -2,2 v 2 h -6 v -2 c 0,-1.104 -0.896,-2 -2,-2 -1.104,0 -2,0.896 -2,2 v 2 c -2,0 -4.41,2.351 -5.97,5 -1.657,2.815 -3.483,5.97 -3.964,7 -0.578,1.239 -1.066,2 -1.066,4 0,2 1.791,5 4,5 h 28 c 2.209,0 4,-3 4,-5 0,-2 -0.448,-2.676 -1.066,-4 z"
     fill="#dd2e44" />
  <path
     style="fill:#bf1e33;fill-opacity:1"
     id="path923"
     d="m 20.046,18.853874 c 0,0.452 -0.916,0.818 -2.046,0.818 -1.13,0 -2.045,-0.366 -2.045,-0.818 0,-0.452 0.915,-0.818 2.045,-0.818 1.13,0 2.046,0.366 2.046,0.818 z m -4.91,0 c 0,0.452 -0.915,0.818 -2.045,0.818 -1.13,0 -2.045,-0.366 -2.045,-0.818 0,-0.452 0.916,-0.818 2.045,-0.818 1.129,0 2.045,0.366 2.045,0.818 z m 9.818,0 c 0,0.452 -0.915,0.818 -2.045,0.818 -1.13,0 -2.046,-0.366 -2.046,-0.818 0,-0.452 0.916,-0.818 2.046,-0.818 1.13,0 2.045,0.366 2.045,0.818 z m -4.5,2.864 c 0,0.679 -1.099,1.228 -2.454,1.228 -1.355,0 -2.455,-0.549 -2.455,-1.228 0,-0.677 1.099,-1.227 2.455,-1.227 1.356,0 2.454,0.549 2.454,1.227 z m 5.728,0 c 0,0.679 -1.1,1.228 -2.454,1.228 -1.355,0 -2.455,-0.549 -2.455,-1.228 0,-0.677 1.1,-1.227 2.455,-1.227 1.354,0 2.454,0.549 2.454,1.227 z m -11.455,0 c 0,0.679 -1.099,1.228 -2.454,1.228 -1.355,0 -2.455,-0.549 -2.455,-1.228 0,-0.677 1.099,-1.227 2.455,-1.227 1.355,0 2.454,0.549 2.454,1.227 z m 6.545,3.681 c 0,0.906 -1.465,1.637 -3.272,1.637 -1.807,0 -3.273,-0.731 -3.273,-1.637 0,-0.903 1.466,-1.636 3.273,-1.636 1.807,0.001 3.272,0.733 3.272,1.636 z m 7.365,0 c 0,0.905 -1.467,1.637 -3.273,1.637 -1.807,0 -3.273,-0.731 -3.273,-1.637 0,-0.903 1.466,-1.636 3.273,-1.636 1.806,0.001 3.273,0.733 3.273,1.636 z m -14.728,0 c 0,0.905 -1.466,1.637 -3.273,1.637 -1.807,0 -3.272,-0.731 -3.272,-1.637 0,-0.903 1.465,-1.636 3.272,-1.636 1.807,0.001 3.273,0.733 3.273,1.636 z"
     fill="#FFF" />
  <g
     transform="translate(-16.547085,-2.0263876)"
     id="g1520">
    <path
       style="fill:#ffffff;fill-opacity:1"
       fill="#65471b"
       d="m 30.936556,34.494323 c -0.145,-0.116 -0.258,-0.274 -0.312,-0.464 -0.134,-0.46 0.13,-0.918 0.59,-1.021 4.528,-1.021 7.577,1.363 7.706,1.465 0.384,0.306 0.459,0.845 0.173,1.205 -0.286,0.358 -0.828,0.401 -1.211,0.097 -0.11,-0.084 -2.523,-1.923 -6.182,-1.098 -0.274,0.061 -0.554,-0.016 -0.764,-0.184 z"
       id="path1496" />
    <ellipse
       style="fill:#ffffff;fill-opacity:1"
       fill="#65471b"
       cx="29.531557"
       cy="26.078245"
       rx="2.125"
       ry="2.6559999"
       id="ellipse1498" />
    <ellipse
       style="fill:#ffffff;fill-opacity:1"
       fill="#65471b"
       cx="40.787556"
       cy="27.140245"
       rx="2.125"
       ry="2.6559999"
       id="ellipse1500" />
    <path
       style="fill:#ffffff;fill-opacity:1"
       fill="#65471b"
       d="m 25.708556,21.255245 c -0.164,-0.088 -0.303,-0.224 -0.391,-0.399 -0.216,-0.428 -0.04,-0.927 0.393,-1.112 4.266,-1.831 7.699,-0.043 7.843,0.034 0.433,0.231 0.608,0.747 0.391,1.154 -0.216,0.405 -0.74,0.546 -1.173,0.318 -0.123,-0.063 -2.832,-1.432 -6.278,0.047 -0.257,0.109 -0.547,0.085 -0.785,-0.042 z m 12.135,3.75 c -0.156,-0.098 -0.286,-0.243 -0.362,-0.424 -0.187,-0.442 0.023,-0.927 0.468,-1.084 4.381,-1.536 7.685,0.48 7.823,0.567 0.415,0.26 0.555,0.787 0.312,1.178 -0.242,0.39 -0.776,0.495 -1.191,0.238 -0.12,-0.072 -2.727,-1.621 -6.267,-0.379 -0.266,0.091 -0.553,0.046 -0.783,-0.096 z"
       id="path1504" />
  </g>
</svg>
