<?xml version="1.0" encoding="UTF-8" standalone="no"?>
<svg
   xmlns:dc="http://purl.org/dc/elements/1.1/"
   xmlns:cc="http://creativecommons.org/ns#"
   xmlns:rdf="http://www.w3.org/1999/02/22-rdf-syntax-ns#"
   xmlns:svg="http://www.w3.org/2000/svg"
   xmlns="http://www.w3.org/2000/svg"
   xmlns:sodipodi="http://sodipodi.sourceforge.net/DTD/sodipodi-0.dtd"
   xmlns:inkscape="http://www.inkscape.org/namespaces/inkscape"
   inkscape:export-ydpi="677.33301"
   inkscape:export-xdpi="677.33301"
   inkscape:export-filename="/Users/JP25309/personal/custom-emoji/shrinking_face.png"
   inkscape:version="1.0 (4035a4f, 2020-05-01)"
   sodipodi:docname="shrinking_face.svg"
   id="svg845"
   version="1.1"
   viewBox="0 0 36 36">
  <metadata
     id="metadata851">
    <rdf:RDF>
      <cc:Work
         rdf:about="">
        <dc:format>image/svg+xml</dc:format>
        <dc:type
           rdf:resource="http://purl.org/dc/dcmitype/StillImage" />
      </cc:Work>
    </rdf:RDF>
  </metadata>
  <defs
     id="defs849" />
  <sodipodi:namedview
     inkscape:current-layer="g939"
     inkscape:window-maximized="1"
     inkscape:window-y="23"
     inkscape:window-x="0"
     inkscape:cy="16.923767"
     inkscape:cx="11.704036"
     inkscape:zoom="18.583333"
     showgrid="false"
     id="namedview847"
     inkscape:window-height="1035"
     inkscape:window-width="1920"
     inkscape:pageshadow="2"
     inkscape:pageopacity="0"
     guidetolerance="10"
     gridtolerance="10"
     objecttolerance="10"
     borderopacity="1"
     bordercolor="#666666"
     pagecolor="#ffffff" />
  <g
     inkscape:groupmode="layer"
     id="g931"
     inkscape:label="Layer 1 コピー コピー コピー"
     style="display:inline">
    <circle
       style="opacity:0.1"
       fill="#ffcb4c"
       cx="18"
       cy="17.018"
       r="17"
       id="circle919" />
  </g>
  <g
     style="display:inline"
     inkscape:label="Layer 1 コピー コピー"
     id="g917"
     inkscape:groupmode="layer">
    <circle
       style="opacity:0.19;stroke-width:0.920401"
       id="circle905"
       r="15.646817"
       cy="18.463022"
       cx="16.646818"
       fill="#ffcb4c" />
  </g>
  <g
     inkscape:groupmode="layer"
     id="g903"
     inkscape:label="Layer 1 コピー"
     style="display:inline">
    <circle
       style="opacity:0.33;stroke-width:0.806912"
       fill="#ffcb4c"
       cx="14.717489"
       cy="20.595215"
       r="13.717489"
       id="circle891" />
  </g>
  <g
     style="display:inline"
     inkscape:label="Layer 1 コピー コピー 1"
     id="g939"
     inkscape:groupmode="layer">
    <circle
       id="circle937"
       r="11.618834"
       cy="22.693869"
       cx="12.618834"
       fill="#ffcb4c"
       style="opacity:0.4;stroke-width:0.683462" />
  </g>
  <g
     style="display:inline"
     inkscape:label="Layer 1"
     id="layer1"
     inkscape:groupmode="layer">
    <circle
       style="stroke-width:0.586916"
       r="9.9775791"
       id="circle833"
       cy="24.858698"
       cx="10.977579"
       fill="#ffcb4c" />
    <path
       style="stroke-width:0.586916"
       id="path835"
       d="M 8.9374573,27.216929 C 8.8523546,27.148854 8.786033,27.056114 8.754339,26.9446 c -0.078648,-0.269982 0.0763,-0.53879 0.3462812,-0.599242 2.6575568,-0.599241 4.4470648,0.799967 4.5227778,0.859833 0.225375,0.179596 0.269393,0.495945 0.101537,0.707234 -0.167858,0.210116 -0.485968,0.235354 -0.710757,0.05694 -0.06456,-0.0493 -1.480789,-1.12864 -3.6283164,-0.644435 -0.1608153,0.0358 -0.325152,-0.0094 -0.4484043,-0.107992 z"
       fill="#65471b" />
    <ellipse
       style="stroke-width:0.586916"
       id="ellipse837"
       ry="1.5588499"
       rx="1.2471974"
       cy="21.428761"
       cx="8.1128397"
       fill="#65471b" />
    <ellipse
       style="stroke-width:0.586916"
       id="ellipse839"
       ry="1.5588499"
       rx="1.2471974"
       cy="22.052067"
       cx="14.71917"
       fill="#65471b" />
    <path
       style="stroke-width:0.586916"
       id="path841"
       d="m 10.552651,35.500081 c 0,0 0.742449,-0.241224 0.838704,-0.793511 0.101536,-0.570483 -0.366237,-0.684932 -0.366237,-0.684932 0,0 0.61098,-0.122079 0.687867,-0.807598 0.07219,-0.646194 -0.505335,-0.799966 -0.505335,-0.799966 0,0 0.569308,-0.234766 0.596306,-0.903265 0.02231,-0.562852 -0.583981,-0.838116 -0.583981,-0.838116 0,0 2.956885,-0.716625 3.260907,-0.787056 0.30285,-0.07043 0.77473,-0.360952 0.627414,-0.994235 -0.146142,-0.633869 -0.706648,-0.656172 -0.995997,-0.588678 -0.289936,0.0675 -3.958164,0.919112 -5.2235562,1.213744 l -0.8445724,0.19603 C 7.7272357,29.787036 7.5834411,29.647935 7.8070563,29.411996 8.1052098,29.097409 8.2959578,28.749367 8.3622791,28.171842 8.4321218,27.564383 8.2261143,26.814304 8.1081443,26.523194 7.8886376,25.982644 7.5182934,25.555369 7.0904314,25.40864 c -0.667324,-0.228898 -1.1415525,0.1884 -0.9050251,0.916177 0.3544974,1.088142 0.1220785,1.980842 -0.4889015,2.519631 -1.4373581,1.265979 -2.1058559,2.168657 -1.6609733,4.092568 0.4859668,2.098226 2.5689331,3.448721 4.6671589,2.962755 z"
       fill="#f19020" />
    <path
       style="stroke-width:0.586916"
       id="path843"
       d="m 5.8690583,18.598062 c -0.096254,-0.05165 -0.1778356,-0.131469 -0.2294842,-0.23418 -0.126774,-0.251201 -0.023477,-0.544071 0.2306581,-0.652651 2.5037856,-1.074643 4.5186698,-0.02524 4.6031848,0.01996 0.254134,0.135577 0.356845,0.438426 0.229484,0.677302 -0.126774,0.2377 -0.434318,0.320456 -0.688452,0.186639 -0.072192,-0.03698 -1.6621475,-0.840464 -3.6846613,0.02759 -0.1508376,0.06397 -0.3210432,0.04989 -0.4607294,-0.02465 z m 7.1222307,2.200936 c -0.09156,-0.05752 -0.167859,-0.14262 -0.212465,-0.248852 -0.109752,-0.259418 0.01351,-0.544072 0.274678,-0.636217 2.57128,-0.901504 4.510452,0.28172 4.591447,0.332781 0.24357,0.152599 0.325738,0.461904 0.183118,0.691387 -0.142034,0.228898 -0.455448,0.290524 -0.699018,0.139687 -0.07043,-0.04226 -1.600521,-0.951391 -3.678204,-0.222441 -0.156121,0.0534 -0.324566,0.027 -0.459556,-0.05634 z"
       fill="#65471b" />
  </g>
</svg>
