<?xml version="1.0" encoding="UTF-8" standalone="no"?>
<svg
   xmlns:dc="http://purl.org/dc/elements/1.1/"
   xmlns:cc="http://creativecommons.org/ns#"
   xmlns:rdf="http://www.w3.org/1999/02/22-rdf-syntax-ns#"
   xmlns:svg="http://www.w3.org/2000/svg"
   xmlns="http://www.w3.org/2000/svg"
   xmlns:sodipodi="http://sodipodi.sourceforge.net/DTD/sodipodi-0.dtd"
   xmlns:inkscape="http://www.inkscape.org/namespaces/inkscape"
   inkscape:export-ydpi="682.66998"
   inkscape:export-xdpi="682.66998"
   inkscape:export-filename="/Users/JP25309/personal/custom-emoji/shushing_with_money_face.png"
   inkscape:version="1.0 (4035a4f, 2020-05-01)"
   sodipodi:docname="shushing_with_money_face.svg"
   id="svg924"
   version="1.1"
   viewBox="0 0 36 36">
  <metadata
     id="metadata930">
    <rdf:RDF>
      <cc:Work
         rdf:about="">
        <dc:format>image/svg+xml</dc:format>
        <dc:type
           rdf:resource="http://purl.org/dc/dcmitype/StillImage" />
      </cc:Work>
    </rdf:RDF>
  </metadata>
  <defs
     id="defs928" />
  <sodipodi:namedview
     inkscape:current-layer="layer4"
     inkscape:window-maximized="1"
     inkscape:window-y="23"
     inkscape:window-x="0"
     inkscape:cy="11.555824"
     inkscape:cx="68.805334"
     inkscape:zoom="6.5702005"
     showgrid="false"
     id="namedview926"
     inkscape:window-height="1035"
     inkscape:window-width="1920"
     inkscape:pageshadow="2"
     inkscape:pageopacity="0"
     guidetolerance="10"
     gridtolerance="10"
     objecttolerance="10"
     borderopacity="1"
     bordercolor="#666666"
     pagecolor="#ffffff" />
  <g
     style="display:inline"
     inkscape:label="Layer 1"
     id="layer4"
     inkscape:groupmode="layer">
    <path
       id="path916"
       d="m 34.139013,17.107623 c 0,9.389 -7.611,17 -17,17 -9.3889995,0 -16.99999955,-7.611 -16.99999955,-17 0,-9.3889997 7.61100005,-16.99999968 16.99999955,-16.99999968 9.389,0 17,7.61099998 17,16.99999968"
       fill="#ffcb4c" />
    <g
       transform="translate(-0.86098655,0.10762332)"
       id="g1003">
      <path
         d="M 6.114,10.271 C 5.892,10.271 5.669,10.202 5.477,10.058 5.008,9.706 4.913,9.04 5.265,8.571 8.731,3.949 13.357,3.896 13.552,3.896 c 0.587,0 1.062,0.476 1.062,1.063 0,0.585 -0.473,1.06 -1.058,1.062 -0.166,0.002 -3.792,0.091 -6.592,3.825 -0.208,0.278 -0.527,0.425 -0.85,0.425 z"
         id="path973"
         style="fill:#65471b;fill-opacity:1" />
      <path
         d="m 21.778,13.222 c 0,1.391 0.846,2.519 1.889,2.519 1.043,0 1.889,-1.127 1.889,-2.519 0,-1.391 -0.845,-2.519 -1.889,-2.519 -1.044,0.001 -1.889,1.128 -1.889,2.519 z"
         id="path971"
         style="fill:#65471b;fill-opacity:1" />
      <path
         d="m 29.886,10.271 c 0.222,0 0.445,-0.069 0.637,-0.213 0.47,-0.352 0.564,-1.018 0.212,-1.487 -3.466,-4.622 -8.092,-4.675 -8.287,-4.675 -0.587,0 -1.062,0.476 -1.062,1.063 0,0.585 0.473,1.06 1.058,1.062 0.166,0.002 3.792,0.091 6.592,3.825 0.208,0.278 0.527,0.425 0.85,0.425 z"
         id="path969"
         style="fill:#65471b;fill-opacity:1" />
      <path
         d="m 14.222,13.222 c 0,1.391 -0.846,2.519 -1.889,2.519 -1.043,0 -1.889,-1.127 -1.889,-2.519 0,-1.391 0.845,-2.519 1.889,-2.519 1.043,0.001 1.889,1.128 1.889,2.519 z"
         id="path967"
         style="fill:#65471b;fill-opacity:1" />
      <ellipse
         fill="#65471b"
         cx="17.812"
         cy="23.125"
         rx="4.0619998"
         ry="1.9299999"
         id="ellipse918" />
    </g>
  </g>
  <g
     style="display:inline"
     inkscape:label="Layer 2"
     id="layer5"
     inkscape:groupmode="layer">
    <g
       transform="matrix(0.54339293,0,0,0.54339293,17.498028,16.423442)"
       id="g949">
      <path
         fill="#fdd888"
         d="M 31.898,23.938 C 31.3,17.32 28,14 28,14 L 22,6 H 14 L 8,14 C 8,14 6.581,15.433 5.433,18.275 3.444,18.935 2,20.789 2,23 2,24.448 2.625,25.742 3.609,26.655 3.233,27.357 3,28.147 3,29 3,30.958 4.136,32.636 5.775,33.456 7.058,35.378 8.772,36 10,36 h 16 c 1.379,0 3.373,-0.779 4.678,-3.31 C 32.609,31.999 34,30.17 34,28 34,26.322 33.166,24.846 31.898,23.938 Z M 18,6 C 18.55,6 19.058,5.842 19.5,5.584 19.943,5.842 20.451,6 21,6 22.657,6 25,3.656 25,2 25,2 25,0 23,0 22.212,0 22,1 21,1 20,1 20,0 18,0 16,0 16,1 15,1 14,1 13.789,0 13,0 11,0 11,2 11,2 11,3.656 13.344,6 15,6 15.549,6 16.057,5.842 16.5,5.584 16.943,5.842 17.451,6 18,6 Z"
         id="path932" />
      <path
         fill="#bf6952"
         d="m 24,6 c 0,0.552 -0.447,1 -1,1 H 13 C 12.448,7 12,6.552 12,6 12,5.448 12.448,5 13,5 h 10 c 0.553,0 1,0.448 1,1 z"
         id="path934" />
      <path
         fill="#67757f"
         d="m 23.901,24.542 c 0,-4.477 -8.581,-4.185 -8.581,-6.886 0,-1.308 1.301,-1.947 2.811,-1.947 2.538,0 2.99,1.569 4.139,1.569 0.813,0 1.205,-0.493 1.205,-1.046 0,-1.284 -2.024,-2.256 -3.965,-2.592 V 12.4 C 19.51,11.627 18.86,11 18.056,11 17.251,11 16.6,11.627 16.6,12.4 v 1.283 c -2.116,0.463 -3.937,1.875 -3.937,4.176 0,4.299 8.579,4.125 8.579,7.145 0,1.047 -1.178,2.093 -3.111,2.093 -2.901,0 -3.867,-1.889 -5.045,-1.889 -0.574,0 -1.087,0.464 -1.087,1.164 0,1.113 1.938,2.451 4.603,2.824 l -0.001,0.01 v 1.398 c 0,0.772 0.652,1.4 1.456,1.4 0.804,0 1.455,-0.628 1.455,-1.4 v -1.398 c 0,-0.017 -0.008,-0.03 -0.009,-0.045 2.398,-0.43 4.398,-1.932 4.398,-4.619 z"
         id="path936" />
    </g>
  </g>
  <g
     style="display:inline"
     inkscape:label="Layer 3"
     id="layer6"
     inkscape:groupmode="layer">
    <g
       transform="translate(-0.9147982)"
       id="g996">
      <path
         style="display:inline"
         fill="#f19020"
         d="m 25.35,25.981 -0.033,-0.02 c -0.839,-0.515 -1.947,-0.25 -2.462,0.589 l -0.151,0.245 c -0.542,-0.562 -1.25,-0.974 -2.068,-1.141 l -1.399,-0.286 1.272,-6.224 c 0.197,-0.965 -0.431,-1.915 -1.395,-2.112 l -0.038,-0.008 c -0.965,-0.197 -1.915,0.431 -2.112,1.395 l -1.673,8.183 -0.015,0.074 -0.313,1.531 -10e-4,0.01 -1.128,5.533 c -0.22,1.078 0.27,2.25 1.895,2.25 H 19 c 2.804,0 3.635,-1.01 4.198,-3.093 l 2.741,-4.463 c 0.514,-0.839 0.25,-1.947 -0.589,-2.463 z"
         id="path920" />
      <path
         style="display:inline;fill:#65471b;fill-opacity:1"
         d="m 19.15,35.473 c -0.253,0 -0.53,-0.031 -0.833,-0.102 -0.61,-0.144 -1.04,-0.499 -1.18,-0.975 -0.118,-0.401 -0.01,-0.825 0.289,-1.135 0.388,-0.402 1.003,-0.534 1.695,-0.358 0.181,0.046 0.291,0.231 0.245,0.413 -0.046,0.18 -0.229,0.291 -0.413,0.245 -0.445,-0.114 -0.825,-0.05 -1.038,0.171 -0.128,0.132 -0.175,0.309 -0.127,0.473 0.069,0.236 0.319,0.421 0.685,0.506 1.18,0.277 1.833,-0.186 2.174,-0.625 0.508,-0.653 0.568,-1.538 0.387,-1.885 -0.422,-0.812 -2.049,-0.992 -2.64,-0.993 -0.187,0 -0.339,-0.152 -0.339,-0.339 0,-0.187 0.152,-0.339 0.339,-0.339 0.103,0 2.542,0.015 3.242,1.359 0.305,0.585 0.218,1.751 -0.454,2.614 -0.308,0.394 -0.943,0.97 -2.032,0.97 z"
         id="path965" />
      <path
         style="display:inline;fill:#65471b;fill-opacity:1"
         d="m 22.409,30.743 c -0.02,0 -0.042,-0.002 -0.064,-0.006 -0.184,-0.034 -0.305,-0.212 -0.269,-0.397 0.059,-0.312 -0.002,-0.587 -0.187,-0.839 -0.59,-0.808 -2.289,-1.175 -2.894,-1.248 -0.186,-0.022 -0.319,-0.192 -0.296,-0.377 0.022,-0.186 0.184,-0.321 0.377,-0.296 0.101,0.011 2.474,0.31 3.36,1.521 0.298,0.407 0.401,0.868 0.306,1.368 -0.031,0.161 -0.173,0.274 -0.333,0.274 z"
         id="path922" />
    </g>
  </g>
</svg>
