<?xml version="1.0" encoding="UTF-8" standalone="no"?>
<svg
   xmlns:dc="http://purl.org/dc/elements/1.1/"
   xmlns:cc="http://creativecommons.org/ns#"
   xmlns:rdf="http://www.w3.org/1999/02/22-rdf-syntax-ns#"
   xmlns:svg="http://www.w3.org/2000/svg"
   xmlns="http://www.w3.org/2000/svg"
   xmlns:sodipodi="http://sodipodi.sourceforge.net/DTD/sodipodi-0.dtd"
   xmlns:inkscape="http://www.inkscape.org/namespaces/inkscape"
   inkscape:export-ydpi="682.66998"
   inkscape:export-xdpi="682.66998"
   inkscape:export-filename="/Users/JP25309/personal/custom-emoji/emojis/singing_face.png"
   inkscape:version="1.0 (4035a4f, 2020-05-01)"
   sodipodi:docname="singing_face.svg"
   id="svg845"
   version="1.1"
   viewBox="0 0 36 36">
  <metadata
     id="metadata851">
    <rdf:RDF>
      <cc:Work
         rdf:about="">
        <dc:format>image/svg+xml</dc:format>
        <dc:type
           rdf:resource="http://purl.org/dc/dcmitype/StillImage" />
      </cc:Work>
    </rdf:RDF>
  </metadata>
  <defs
     id="defs849" />
  <sodipodi:namedview
     inkscape:current-layer="g964"
     inkscape:window-maximized="1"
     inkscape:window-y="23"
     inkscape:window-x="0"
     inkscape:cy="42.786675"
     inkscape:cx="-102.83616"
     inkscape:zoom="3.2851003"
     showgrid="false"
     id="namedview847"
     inkscape:window-height="1035"
     inkscape:window-width="1920"
     inkscape:pageshadow="2"
     inkscape:pageopacity="0"
     guidetolerance="10"
     gridtolerance="10"
     objecttolerance="10"
     borderopacity="1"
     bordercolor="#666666"
     pagecolor="#ffffff" />
  <g
     transform="matrix(0.70403587,0,0,0.70403587,5.4618834,8.9380627)"
     id="g922">
    <circle
       fill="#ffcb4c"
       cx="18"
       cy="17.018"
       r="17"
       id="circle833" />
    <path
       fill="#65471b"
       d="m 14.524,21.036 c -0.145,-0.116 -0.258,-0.274 -0.312,-0.464 -0.134,-0.46 0.13,-0.918 0.59,-1.021 4.528,-1.021 7.577,1.363 7.706,1.465 0.384,0.306 0.459,0.845 0.173,1.205 -0.286,0.358 -0.828,0.401 -1.211,0.097 -0.11,-0.084 -2.523,-1.923 -6.182,-1.098 -0.274,0.061 -0.554,-0.016 -0.764,-0.184 z"
       id="path835" />
    <ellipse
       fill="#65471b"
       cx="13.119"
       cy="11.174"
       rx="2.125"
       ry="2.6559999"
       id="ellipse837" />
    <ellipse
       fill="#65471b"
       cx="24.375"
       cy="12.236"
       rx="2.125"
       ry="2.6559999"
       id="ellipse839" />
    <path
       fill="#65471b"
       d="M 9.296,6.351 C 9.132,6.263 8.993,6.127 8.905,5.952 8.689,5.524 8.865,5.025 9.298,4.84 c 4.266,-1.831 7.699,-0.043 7.843,0.034 0.433,0.231 0.608,0.747 0.391,1.154 -0.216,0.405 -0.74,0.546 -1.173,0.318 C 16.236,6.283 13.527,4.914 10.081,6.393 9.824,6.502 9.534,6.478 9.296,6.351 Z m 12.135,3.75 C 21.275,10.003 21.145,9.858 21.069,9.677 20.882,9.235 21.092,8.75 21.537,8.593 c 4.381,-1.536 7.685,0.48 7.823,0.567 0.415,0.26 0.555,0.787 0.312,1.178 -0.242,0.39 -0.776,0.495 -1.191,0.238 -0.12,-0.072 -2.727,-1.621 -6.267,-0.379 -0.266,0.091 -0.553,0.046 -0.783,-0.096 z"
       id="path843" />
  </g>
  <g
     id="g964">
    <path
       sodipodi:nodetypes="ssccsssccss"
       fill="#66757f"
       d="m 18.080718,1.8460225 c -8.2840005,0 -15.0000005,6.716 -15.0000005,14.9999995 v 9 l 3,-2.58744 v -6.41256 c 0,-6.9999998 5.2690005,-12.1879995 12.0000005,-12.1879995 6.73,0 12,5.1879997 12,12.1879995 l 0,6.271042 3,2.728958 v -9 c 0,-8.2839995 -6.716,-14.9999995 -15,-14.9999995 z"
       id="path940" />
    <path
       fill="#31373d"
       d="m 6.0807175,24.019594 c 0,1.104 -0.896,2 -2,2 h -2 c -1.10399999,0 -1.99999999,-0.896 -1.99999999,-2 v -9 c 0,-1.104 0.896,-2 1.99999999,-2 h 2 c 1.104,0 2,0.896 2,2 z m 30.0000005,0 c 0,1.104 -0.896,2 -2,2 h -2 c -1.104,0 -2,-0.896 -2,-2 v -9 c 0,-1.104 0.896,-2 2,-2 h 2 c 1.104,0 2,0.896 2,2 z"
       id="path942" />
  </g>
  <g
     transform="matrix(0.41014142,0,0,0.41014142,3.0838227,21.183167)"
     id="g915">
    <path
       fill="#292f33"
       d="m 6,15 h 24 v 2 H 6 Z m 15,15 c 0,2.208 -0.792,4 -3,4 -2.209,0 -3,-1.792 -3,-4 0,-2.208 0.791,-2 3,-2 2.208,0 3,-0.208 3,2 z"
       id="path853" />
    <path
       fill="#66757f"
       d="M 18,31 C 11.373,31 8,32.343 8,34 v 2 h 20 v -2 c 0,-1.657 -3.373,-3 -10,-3 z"
       id="path855" />
    <path
       fill="#99aab5"
       d="M 18,0 C 13.029,0 9,4.029 9,9 v 7 H 27 V 9 C 27,4.029 22.971,0 18,0 Z"
       id="path857" />
    <g
       fill="#292f33"
       id="g883">
      <circle
         cx="15.5"
         cy="2.5"
         r="1.5"
         id="circle859" />
      <circle
         cx="20.5"
         cy="2.5"
         r="1.5"
         id="circle861" />
      <circle
         cx="17.5"
         cy="6.5"
         r="1.5"
         id="circle863" />
      <circle
         cx="22.5"
         cy="6.5"
         r="1.5"
         id="circle865" />
      <circle
         cx="12.5"
         cy="6.5"
         r="1.5"
         id="circle867" />
      <circle
         cx="15.5"
         cy="10.5"
         r="1.5"
         id="circle869" />
      <circle
         cx="10.5"
         cy="10.5"
         r="1.5"
         id="circle871" />
      <circle
         cx="20.5"
         cy="10.5"
         r="1.5"
         id="circle873" />
      <circle
         cx="25.5"
         cy="10.5"
         r="1.5"
         id="circle875" />
      <circle
         cx="17.5"
         cy="14.5"
         r="1.5"
         id="circle877" />
      <circle
         cx="22.5"
         cy="14.5"
         r="1.5"
         id="circle879" />
      <circle
         cx="12.5"
         cy="14.5"
         r="1.5"
         id="circle881" />
    </g>
    <path
       fill="#66757f"
       d="M 9,15.062 V 17 c 0,4.971 4.029,9 9,9 4.971,0 9,-4.029 9,-9 v -1.938 z"
       id="path885" />
    <path
       fill="#66757f"
       d="m 30,14 c -0.553,0 -1,0.448 -1,1 v 2 C 29,23.074 24.075,28 18,28 11.925,28 7,23.074 7,17 V 15 C 7,14.448 6.552,14 6,14 5.448,14 5,14.448 5,15 v 2 c 0,7.18 5.82,13 13,13 7.18,0 13,-5.82 13,-13 v -2 c 0,-0.552 -0.447,-1 -1,-1 z"
       id="path887" />
  </g>
</svg>
