<?xml version="1.0" encoding="UTF-8" standalone="no"?>
<svg
   xmlns:dc="http://purl.org/dc/elements/1.1/"
   xmlns:cc="http://creativecommons.org/ns#"
   xmlns:rdf="http://www.w3.org/1999/02/22-rdf-syntax-ns#"
   xmlns:svg="http://www.w3.org/2000/svg"
   xmlns="http://www.w3.org/2000/svg"
   xmlns:sodipodi="http://sodipodi.sourceforge.net/DTD/sodipodi-0.dtd"
   xmlns:inkscape="http://www.inkscape.org/namespaces/inkscape"
   viewBox="0 0 36 36"
   version="1.1"
   id="svg841"
   sodipodi:docname="slightly_smiling_angry.svg"
   inkscape:version="1.0 (4035a4f, 2020-05-01)"
   inkscape:export-filename="/Users/JP25309/personal/custom-emoji/emojis/slightly_smiling_angry.png"
   inkscape:export-xdpi="682.66998"
   inkscape:export-ydpi="682.66998">
  <metadata
     id="metadata847">
    <rdf:RDF>
      <cc:Work
         rdf:about="">
        <dc:format>image/svg+xml</dc:format>
        <dc:type
           rdf:resource="http://purl.org/dc/dcmitype/StillImage" />
      </cc:Work>
    </rdf:RDF>
  </metadata>
  <defs
     id="defs845" />
  <sodipodi:namedview
     inkscape:document-rotation="0"
     pagecolor="#ffffff"
     bordercolor="#666666"
     borderopacity="1"
     objecttolerance="10"
     gridtolerance="10"
     guidetolerance="10"
     inkscape:pageopacity="0"
     inkscape:pageshadow="2"
     inkscape:window-width="1458"
     inkscape:window-height="843"
     id="namedview843"
     showgrid="false"
     inkscape:zoom="9.2916667"
     inkscape:cx="12.106218"
     inkscape:cy="21.783515"
     inkscape:window-x="0"
     inkscape:window-y="23"
     inkscape:window-maximized="0"
     inkscape:current-layer="svg841" />
  <g
     transform="matrix(0.91330344,0,0,0.90134529,1.5605381,1.7757848)"
     id="g855">
    <circle
       id="circle833"
       r="18"
       cy="18"
       cx="18"
       fill="#ffcc4d" />
    <path
       id="path835"
       d="M 10.515,23.621 C 10.56,23.8 11.683,28 18,28 c 6.318,0 7.44,-4.2 7.485,-4.379 0.055,-0.217 -0.043,-0.442 -0.237,-0.554 -0.195,-0.111 -0.439,-0.078 -0.6,0.077 C 24.629,23.163 22.694,25 18,25 13.306,25 11.37,23.163 11.352,23.145 11.256,23.05 11.128,23 11,23 c -0.084,0 -0.169,0.021 -0.246,0.064 -0.196,0.112 -0.294,0.339 -0.239,0.557 z"
       fill="#664500" />
    <ellipse
       id="ellipse837"
       ry="3.5"
       rx="2.5"
       cy="13.5"
       cx="12"
       fill="#664500" />
    <ellipse
       id="ellipse839"
       ry="3.5"
       rx="2.5"
       cy="13.5"
       cx="24"
       fill="#664500" />
  </g>
  <path
     id="path849"
     d="M 23.636535,8.7510372 23.018684,7.5723695 23.608019,7.263635 C 24.517875,6.7864646 25.502252,6.2073966 25.666125,5.3694019 25.793498,4.7177126 25.433814,3.8854211 24.596959,2.8957204 l -0.429643,-0.5079677 1.015936,-0.8592868 0.429644,0.5079677 c 1.125817,1.3315144 1.570669,2.5052393 1.358889,3.5880929 -0.299609,1.5349294 -1.891571,2.3691216 -2.746296,2.8173955 z m 6.9549,4.2302768 -0.308734,-0.589334 c -0.47717,-0.910236 -1.056238,-1.894233 -1.894234,-2.058106 -0.651308,-0.127753 -1.48398,0.232312 -2.473681,1.069166 l -0.507967,0.429643 -0.859286,-1.015936 0.507967,-0.429643 c 1.331133,-1.126198 2.503718,-1.5718105 3.588092,-1.3588898 1.534931,0.2996097 2.369122,1.8911918 2.817396,2.7462958 l 0.308736,0.589334 z M 33.835053,11.452088 33.405409,10.94412 C 32.279212,9.6126053 31.834741,8.4388803 32.04652,7.355647 32.34613,5.8210978 33.937712,4.9869051 34.792815,4.5386311 L 35.38215,4.2298962 36,5.4085641 35.410665,5.7172988 c -0.910235,0.4771704 -1.894233,1.0562385 -2.058104,1.8938526 -0.127373,0.6520694 0.232311,1.4839807 1.068784,2.4736816 l 0.429644,0.507968 z m -2.9307,-7.4476594 c -0.179081,0 -0.355122,-0.01711 -0.529259,-0.050949 C 28.840164,3.65387 28.005972,2.061908 27.557698,1.2071838 L 27.248963,0.61785 28.427631,0 28.736745,0.58933385 c 0.477171,0.90985545 1.056239,1.89423315 1.893854,2.05810595 0.650547,0.126992 1.483599,-0.2319313 2.47368,-1.0691657 l 0.507968,-0.4296435 0.859286,1.0159356 -0.507967,0.4296435 C 32.845353,3.539425 31.838922,4.0044286 30.904353,4.0044286 Z"
     fill="#be1931"
     style="stroke-width:0.380214" />
</svg>
