<?xml version="1.0" encoding="UTF-8" standalone="no"?>
<svg
   xmlns:dc="http://purl.org/dc/elements/1.1/"
   xmlns:cc="http://creativecommons.org/ns#"
   xmlns:rdf="http://www.w3.org/1999/02/22-rdf-syntax-ns#"
   xmlns:svg="http://www.w3.org/2000/svg"
   xmlns="http://www.w3.org/2000/svg"
   xmlns:sodipodi="http://sodipodi.sourceforge.net/DTD/sodipodi-0.dtd"
   xmlns:inkscape="http://www.inkscape.org/namespaces/inkscape"
   inkscape:export-ydpi="682.66998"
   inkscape:export-xdpi="682.66998"
   inkscape:export-filename="/Users/JP25309/personal/custom-emoji/emojis/thinking_cloud.png"
   inkscape:version="1.0 (4035a4f, 2020-05-01)"
   sodipodi:docname="thinking_cloud.svg"
   id="svg837"
   version="1.1"
   viewBox="0 0 36 36">
  <metadata
     id="metadata843">
    <rdf:RDF>
      <cc:Work
         rdf:about="">
        <dc:format>image/svg+xml</dc:format>
        <dc:type
           rdf:resource="http://purl.org/dc/dcmitype/StillImage" />
      </cc:Work>
    </rdf:RDF>
  </metadata>
  <defs
     id="defs841" />
  <sodipodi:namedview
     inkscape:current-layer="svg837"
     inkscape:window-maximized="1"
     inkscape:window-y="23"
     inkscape:window-x="0"
     inkscape:cy="86.9463"
     inkscape:cx="-115.68353"
     inkscape:zoom="2.3229167"
     showgrid="false"
     id="namedview839"
     inkscape:window-height="1035"
     inkscape:window-width="1920"
     inkscape:pageshadow="2"
     inkscape:pageopacity="0"
     guidetolerance="10"
     gridtolerance="10"
     objecttolerance="10"
     borderopacity="1"
     bordercolor="#666666"
     pagecolor="#ffffff" />
  <path
     id="path833"
     d="m 27.053812,5.955157 c -0.701,0 -1.377,0.106 -2.015,0.298 0.005,-0.1 0.015,-0.197 0.015,-0.298 0,-3.313 -2.687,-6.00000005 -6,-6.00000005 -2.769,0 -5.093,1.87800005 -5.785,4.42700005 -0.686,-0.273 -1.432,-0.427 -2.215,-0.427 -3.3140003,0 -6.0000003,2.686 -6.0000003,6 0,3.312 2.686,6 6.0000003,6 2.769,0 5.093,-1.878 5.785,-4.428 0.686,0.273 1.432,0.428 2.215,0.428 0.375,0 0.74,-0.039 1.096,-0.104 -0.058,0.36 -0.096,0.727 -0.096,1.104 0,3.865 3.135,7 7,7 3.865,0 7,-3.135 7,-7 0,-3.866 -3.135,-7 -7,-7 z"
     fill="#ccd6dd" />
  <path
     id="path835"
     d="m 31.053812,19.955157 c -0.467,0 -0.91,0.085 -1.339,0.204 0.216,-0.526 0.339,-1.1 0.339,-1.704 0,-2.485 -2.015,-4.5 -4.5,-4.5 -1.019,0 -1.947,0.351 -2.701,0.921 -0.706,-2.825 -3.255,-4.921 -6.299,-4.921 -2.838,0 -5.245,1.822 -6.131,4.357 -0.7480003,-0.232 -1.5440003,-0.357 -2.3690003,-0.357 -4.418,0 -8.00000004,3.582 -8.00000004,8 0,4.419 3.58200004,8 8.00000004,8 H 31.053812 c 2.762,0 5,-2.238 5,-5 0,-2.762 -2.238,-5 -5,-5 z"
     fill="#e1e8ed" />
  <path
     style="fill:#3b3a46;fill-opacity:1"
     id="path847"
     d="m 13.528484,21.054455 c -0.145,-0.116 -0.258,-0.274 -0.312,-0.464 -0.134,-0.46 0.13,-0.918 0.59,-1.021 4.528,-1.021 7.577,1.363 7.706,1.465 0.384,0.306 0.459,0.845 0.173,1.205 -0.286,0.358 -0.828,0.401 -1.211,0.097 -0.11,-0.084 -2.523,-1.923 -6.182,-1.098 -0.274,0.061 -0.554,-0.016 -0.764,-0.184 z"
     fill="#65471b" />
  <ellipse
     style="fill:#3b3a46;fill-opacity:1"
     id="ellipse849"
     ry="2.6559999"
     rx="2.125"
     cy="11.192455"
     cx="12.123486"
     fill="#65471b" />
  <ellipse
     style="fill:#3b3a46;fill-opacity:1"
     id="ellipse851"
     ry="2.6559999"
     rx="2.125"
     cy="12.254456"
     cx="23.379484"
     fill="#65471b" />
  <path
     style="fill:#818390;fill-opacity:1"
     id="path853"
     d="m 16.280484,35.167455 c 0,0 1.265,-0.411 1.429,-1.352 0.173,-0.972 -0.624,-1.167 -0.624,-1.167 0,0 1.041,-0.208 1.172,-1.376 0.123,-1.101 -0.861,-1.363 -0.861,-1.363 0,0 0.97,-0.4 1.016,-1.539 0.038,-0.959 -0.995,-1.428 -0.995,-1.428 0,0 5.038,-1.221 5.556,-1.341 0.516,-0.12 1.32,-0.615 1.069,-1.694 -0.249,-1.08 -1.204,-1.118 -1.697,-1.003 -0.494,0.115 -6.744,1.566 -8.9,2.068 l -1.439,0.334 c -0.54,0.127 -0.785,-0.11 -0.404,-0.512 0.508,-0.536 0.833,-1.129 0.946,-2.113 0.119,-1.035 -0.232,-2.313 -0.433,-2.809 -0.374,-0.921 -1.005,-1.649 -1.734,-1.899 -1.1369997,-0.39 -1.9449997,0.321 -1.5419997,1.561 0.604,1.854 0.208,3.375 -0.833,4.293 -2.449,2.157 -3.588,3.695 -2.83,6.973 0.828,3.575 4.377,5.876 7.9519997,5.048 z"
     fill="#f19020" />
  <path
     style="fill:#3b3a46;fill-opacity:1"
     id="path855"
     d="m 8.3004843,6.3694554 c -0.164,-0.088 -0.303,-0.224 -0.391,-0.399 -0.216,-0.428 -0.04,-0.927 0.393,-1.112 4.2659997,-1.831 7.6989997,-0.043 7.8429997,0.034 0.433,0.231 0.608,0.747 0.391,1.154 -0.216,0.405 -0.74,0.546 -1.173,0.318 -0.123,-0.063 -2.832,-1.432 -6.2779997,0.047 -0.257,0.109 -0.547,0.085 -0.785,-0.042 z M 20.435484,10.119455 c -0.156,-0.098 -0.286,-0.2429996 -0.362,-0.4239996 -0.187,-0.442 0.023,-0.927 0.468,-1.084 4.381,-1.536 7.685,0.48 7.823,0.567 0.415,0.26 0.555,0.787 0.312,1.1779996 -0.242,0.39 -0.776,0.495 -1.191,0.238 -0.12,-0.072 -2.727,-1.6209996 -6.267,-0.379 -0.266,0.091 -0.553,0.046 -0.783,-0.096 z"
     fill="#65471b" />
</svg>
