<?xml version="1.0" encoding="UTF-8" standalone="no"?>
<svg
   xmlns:dc="http://purl.org/dc/elements/1.1/"
   xmlns:cc="http://creativecommons.org/ns#"
   xmlns:rdf="http://www.w3.org/1999/02/22-rdf-syntax-ns#"
   xmlns:svg="http://www.w3.org/2000/svg"
   xmlns="http://www.w3.org/2000/svg"
   xmlns:sodipodi="http://sodipodi.sourceforge.net/DTD/sodipodi-0.dtd"
   xmlns:inkscape="http://www.inkscape.org/namespaces/inkscape"
   inkscape:export-ydpi="682.55017"
   inkscape:export-xdpi="682.55017"
   inkscape:export-filename="/Users/JP25309/personal/custom-emoji/thinking_skull.png"
   inkscape:version="1.0 (4035a4f, 2020-05-01)"
   sodipodi:docname="thinking_skull.svg"
   id="svg841"
   version="1.1"
   viewBox="0 0 36 36">
  <metadata
     id="metadata847">
    <rdf:RDF>
      <cc:Work
         rdf:about="">
        <dc:format>image/svg+xml</dc:format>
        <dc:type
           rdf:resource="http://purl.org/dc/dcmitype/StillImage" />
      </cc:Work>
    </rdf:RDF>
  </metadata>
  <defs
     id="defs845" />
  <sodipodi:namedview
     inkscape:current-layer="g881"
     inkscape:window-maximized="1"
     inkscape:window-y="23"
     inkscape:window-x="0"
     inkscape:cy="18.376682"
     inkscape:cx="7.0224215"
     inkscape:zoom="18.583333"
     showgrid="false"
     id="namedview843"
     inkscape:window-height="1035"
     inkscape:window-width="1920"
     inkscape:pageshadow="2"
     inkscape:pageopacity="0"
     guidetolerance="10"
     gridtolerance="10"
     objecttolerance="10"
     borderopacity="1"
     bordercolor="#666666"
     pagecolor="#ffffff" />
  <g
     inkscape:label="Layer 1"
     id="layer1"
     inkscape:groupmode="layer">
    <path
       id="path833"
       d="M27.865 16.751c0-6.242-4.411-9.988-9.927-9.988s-9.835 3.746-9.835 9.988c0 3.48-.103 6.485 3.897 7.89v2.722c0 1.034.966 1.872 2 1.872 1.035 0 2-.838 2-1.872v-1.97 1.97c0 1.034.965 1.872 2 1.872 1.036 0 2-.838 2-1.872v-1.97 1.97c0 1.034.966 1.872 2 1.872s2-.838 2-1.872v-2.722c4-1.405 3.865-4.41 3.865-7.89z"
       fill="#CCD6DD" />
    <circle
       id="circle835"
       r="3.1210001"
       cy="13.565781"
       cx="13.629"
       fill="#292f33" />
    <path
       id="path893"
       d="m 19.187,19.22178 c -0.157,-0.382 -0.626,-0.662 -1.189,-0.662 -0.561,0 -1.031,0.28 -1.188,0.662 -0.394,0.11 -0.685,0.469 -0.685,0.898 0,0.517 0.419,0.936 0.937,0.936 0.409,0 0.753,-0.263 0.88,-0.628 0.019,0 0.037,0.004 0.056,0.004 0.019,0 0.037,-0.004 0.057,-0.004 0.128,0.365 0.472,0.628 0.88,0.628 0.517,0 0.936,-0.419 0.936,-0.936 0,-0.429 -0.291,-0.786 -0.684,-0.898 z" />
    <path
       id="path837"
       d="m 25.488,13.56578 c 0,1.724 0,3.121 -3.121,3.121 -3.12,0 -3.12,-1.397 -3.12,-3.121 0,-1.724 1.396,-3.121 3.12,-3.121 1.725,0 3.121,1.397 3.121,3.121 z" />
    <path
       id="path839"
       fill="#AAB8C2"
       d="M11 27c0-.367.075-.713.195-1.038-.984-.447-1.831-1.082-2.503-1.97-1.107.969-2.163 1.876-3.127 2.695C4.985 26.26 4.275 26 3.5 26 1.567 26 0 27.566 0 29.5c0 1.778 1.33 3.229 3.046 3.454C3.271 34.671 4.722 36 6.5 36c1.933 0 3.5-1.566 3.5-3.5 0-.775-.26-1.485-.686-2.065.6-.706 1.246-1.46 1.931-2.25C11.088 27.821 11 27.421 11 27zm16.872-15.482c.884-.769 1.729-1.495 2.515-2.163.569.403 1.262.645 2.013.645 1.934 0 3.5-1.567 3.5-3.5 0-1.743-1.277-3.177-2.945-3.444C32.735 1.335 31.281 0 29.5 0 27.566 0 26 1.567 26 3.5c0 .775.26 1.485.687 2.065-.594.7-1.233 1.445-1.911 2.227 1.3.871 2.361 2.095 3.096 3.726zM3.5 10c.775 0 1.485-.26 2.065-.687.799.679 1.661 1.419 2.564 2.204.735-1.631 1.795-2.855 3.096-3.726-.679-.781-1.317-1.527-1.912-2.226.427-.58.687-1.29.687-2.065C10 1.567 8.433 0 6.5 0 4.722 0 3.271 1.33 3.046 3.046 1.33 3.271 0 4.722 0 6.5 0 8.433 1.567 10 3.5 10zm28.9 16c-.752 0-1.444.242-2.014.645-.952-.809-1.99-1.701-3.079-2.653-.672.889-1.519 1.523-2.503 1.971.121.324.196.67.196 1.037 0 .421-.088.821-.245 1.185.685.79 1.331 1.544 1.931 2.25-.426.58-.686 1.29-.686 2.065 0 1.934 1.566 3.5 3.5 3.5 1.781 0 3.235-1.334 3.455-3.056 1.668-.267 2.945-1.701 2.945-3.444 0-1.934-1.566-3.5-3.5-3.5z" />
  </g>
  <g
     inkscape:label="Layer 2"
     id="layer2"
     inkscape:groupmode="layer">
    <g
       style="fill:#607786;fill-opacity:1"
       transform="translate(-0.99551566,0.01845519)"
       id="g881">
      <path
         style="fill:#607786;fill-opacity:1"
         fill="#f19020"
         d="m 17.276,35.149 c 0,0 1.265,-0.411 1.429,-1.352 0.173,-0.972 -0.624,-1.167 -0.624,-1.167 0,0 1.041,-0.208 1.172,-1.376 0.123,-1.101 -0.861,-1.363 -0.861,-1.363 0,0 0.97,-0.4 1.016,-1.539 0.038,-0.959 -0.995,-1.428 -0.995,-1.428 0,0 5.038,-1.221 5.556,-1.341 0.516,-0.12 1.32,-0.615 1.069,-1.694 -0.249,-1.08 -1.204,-1.118 -1.697,-1.003 -0.494,0.115 -6.744,1.566 -8.9,2.068 l -1.439,0.334 c -0.54,0.127 -0.785,-0.11 -0.404,-0.512 0.508,-0.536 0.833,-1.129 0.946,-2.113 0.119,-1.035 -0.232,-2.313 -0.433,-2.809 -0.374,-0.921 -1.005,-1.649 -1.734,-1.899 -1.137,-0.39 -1.945,0.321 -1.542,1.561 0.604,1.854 0.208,3.375 -0.833,4.293 -2.449,2.157 -3.588,3.695 -2.83,6.973 0.828,3.575 4.377,5.876 7.952,5.048 z"
         id="path863" />
      <path
         id="path889"
         d="M 20.448626,9.5294267 C 20.311424,9.4432356 20.197089,9.3157079 20.130247,9.1565182 19.96578,8.7677786 20.150477,8.3412205 20.541854,8.2031388 24.394949,6.8522249 27.300821,8.6252994 27.422192,8.701816 27.787185,8.9304864 27.910315,9.3939835 27.696596,9.7378685 27.483757,10.080874 27.014103,10.173222 26.64911,9.94719 26.54357,9.88387 24.25071,8.5215183 21.137276,9.6138588 c -0.233947,0.080035 -0.486364,0.040457 -0.68865,-0.084432 z"
         style="fill:#607786;fill-opacity:1;stroke-width:0.879501" />
      <path
         id="path865"
         d="M 9.7758782,6.7694137 C 9.63164,6.6920176 9.5093894,6.5724054 9.4319933,6.4184927 9.242021,6.0420662 9.3968132,5.603195 9.7776372,5.4404873 13.52959,3.8301205 16.548918,5.4026688 16.675566,5.4703904 c 0.380824,0.2031647 0.534737,0.6569874 0.343885,1.0149444 -0.189972,0.356198 -0.650831,0.4802077 -1.031655,0.2796814 -0.108179,-0.055409 -2.490748,-1.2594458 -5.521509,0.041337 -0.226032,0.095866 -0.4810875,0.074758 -0.6904088,-0.036939 z"
         style="fill:#607786;fill-opacity:1;stroke-width:0.879501" />
    </g>
  </g>
</svg>
