<?xml version="1.0" encoding="UTF-8" standalone="no"?>
<svg
   xmlns:dc="http://purl.org/dc/elements/1.1/"
   xmlns:cc="http://creativecommons.org/ns#"
   xmlns:rdf="http://www.w3.org/1999/02/22-rdf-syntax-ns#"
   xmlns:svg="http://www.w3.org/2000/svg"
   xmlns="http://www.w3.org/2000/svg"
   xmlns:sodipodi="http://sodipodi.sourceforge.net/DTD/sodipodi-0.dtd"
   xmlns:inkscape="http://www.inkscape.org/namespaces/inkscape"
   inkscape:export-ydpi="682.66998"
   inkscape:export-xdpi="682.66998"
   inkscape:export-filename="/Users/JP25309/personal/custom-emoji/thinking_sleep.png"
   inkscape:version="1.0 (4035a4f, 2020-05-01)"
   sodipodi:docname="thinking_sleep.svg"
   id="svg851"
   version="1.1"
   viewBox="0 0 36 36">
  <metadata
     id="metadata857">
    <rdf:RDF>
      <cc:Work
         rdf:about="">
        <dc:format>image/svg+xml</dc:format>
        <dc:type
           rdf:resource="http://purl.org/dc/dcmitype/StillImage" />
      </cc:Work>
    </rdf:RDF>
  </metadata>
  <defs
     id="defs855" />
  <sodipodi:namedview
     inkscape:current-layer="layer2"
     inkscape:window-maximized="1"
     inkscape:window-y="23"
     inkscape:window-x="0"
     inkscape:cy="58.232423"
     inkscape:cx="110.51656"
     inkscape:zoom="3.2851003"
     showgrid="false"
     id="namedview853"
     inkscape:window-height="1035"
     inkscape:window-width="1920"
     inkscape:pageshadow="2"
     inkscape:pageopacity="0"
     guidetolerance="10"
     gridtolerance="10"
     objecttolerance="10"
     borderopacity="1"
     bordercolor="#666666"
     pagecolor="#ffffff" />
  <g
     style="display:inline"
     inkscape:label="Layer 1"
     id="layer1"
     inkscape:groupmode="layer" />
  <g
     style="display:inline"
     inkscape:label="Layer 3"
     id="layer3"
     inkscape:groupmode="layer">
    <g
       transform="translate(0.13452957,0.07226709)"
       id="g893">
      <circle
         fill="#ffcb4c"
         cx="18"
         cy="17.018"
         r="17"
         id="circle867" />
      <path
         fill="#65471b"
         d="m 14.524,21.036 c -0.145,-0.116 -0.258,-0.274 -0.312,-0.464 -0.134,-0.46 0.13,-0.918 0.59,-1.021 4.528,-1.021 7.577,1.363 7.706,1.465 0.384,0.306 0.459,0.845 0.173,1.205 -0.286,0.358 -0.828,0.401 -1.211,0.097 -0.11,-0.084 -2.523,-1.923 -6.182,-1.098 -0.274,0.061 -0.554,-0.016 -0.764,-0.184 z"
         id="path869" />
      <path
         fill="#f19020"
         d="m 17.276,35.149 c 0,0 1.265,-0.411 1.429,-1.352 0.173,-0.972 -0.624,-1.167 -0.624,-1.167 0,0 1.041,-0.208 1.172,-1.376 0.123,-1.101 -0.861,-1.363 -0.861,-1.363 0,0 0.97,-0.4 1.016,-1.539 0.038,-0.959 -0.995,-1.428 -0.995,-1.428 0,0 5.038,-1.221 5.556,-1.341 0.516,-0.12 1.32,-0.615 1.069,-1.694 -0.249,-1.08 -1.204,-1.118 -1.697,-1.003 -0.494,0.115 -6.744,1.566 -8.9,2.068 l -1.439,0.334 c -0.54,0.127 -0.785,-0.11 -0.404,-0.512 0.508,-0.536 0.833,-1.129 0.946,-2.113 0.119,-1.035 -0.232,-2.313 -0.433,-2.809 -0.374,-0.921 -1.005,-1.649 -1.734,-1.899 -1.137,-0.39 -1.945,0.321 -1.542,1.561 0.604,1.854 0.208,3.375 -0.833,4.293 -2.449,2.157 -3.588,3.695 -2.83,6.973 0.828,3.575 4.377,5.876 7.952,5.048 z"
         id="path875" />
    </g>
  </g>
  <g
     style="display:inline"
     inkscape:label="Layer 2"
     id="layer2"
     inkscape:groupmode="layer">
    <path
       style="stroke-width:0.842693"
       id="path839"
       d="m 33.446296,10.58198 c 0.0034,-0.03708 0.01938,-0.06489 0.01938,-0.103651 0,-0.635391 -0.461796,-1.0011199 -1.032299,-1.0011199 H 29.41485 l 3.605884,-5.0502603 c 0.173595,-0.2384822 0.23764,-0.38174 0.23764,-0.6834242 0,-0.6193795 -0.539324,-0.7154465 -0.745784,-0.7154465 h -4.507566 l -0.02697,-0.579773 c 0,0 -1.187355,0.7002781 -1.266568,0.7483116 -0.07921,0.048034 -0.42556,0.3134819 -0.42556,0.8317382 0,0.6353907 0.460111,1.0002768 1.032299,1.0002768 h 2.653641 L 26.38115,10.078892 c -0.07921,0.127247 -0.205617,0.364886 -0.205617,0.61938 0,0.524155 0.428088,0.778648 0.936232,0.778648 h 5.321608 c 0.217415,0 0.433987,-0.06405 0.573874,-0.148314 l 1.266568,-0.748311 H 33.44629 Z"
       fill="#ffac33" />
    <path
       style="stroke-width:0.842693"
       id="path841"
       d="m 31.205575,4.3039156 h -2.653641 c -0.572189,0 -1.032299,-0.3648862 -1.032299,-1.0002769 0,-0.6353906 0.46011,-1.0011195 1.032299,-1.0011195 h 5.194361 c 0.20646,0 0.745783,0.095224 0.745783,0.7146039 0,0.3016841 -0.06404,0.444942 -0.237639,0.6834241 l -3.605884,5.0502604 h 3.018527 c 0.570503,0 1.032299,0.3648861 1.032299,1.0002768 0,0.6353906 -0.461796,1.0002766 -1.032299,1.0002766 h -5.321608 c -0.508144,0 -0.936232,-0.254493 -0.936232,-0.7786483 0,-0.2544933 0.126404,-0.4921328 0.205617,-0.6193795 z"
       fill="#2a6797" />
    <path
       style="stroke-width:0.842693"
       id="path843"
       d="m 25.403632,6.3230085 c 0.0025,-0.027809 0.01517,-0.048876 0.01517,-0.077528 0,-0.475279 -0.345504,-0.7491543 -0.77275,-0.7491543 h -2.260103 l 2.699146,-3.7811643 c 0.13146,-0.178651 0.178651,-0.285673 0.178651,-0.5106721 0,-0.46348127 -0.40365,-0.53511019 -0.558705,-0.53511019 h -3.374144 l -0.02022,-0.433987 c 0,0 -0.889041,0.52415517 -0.948029,0.56039098 -0.05899,0.0362358 -0.318538,0.23511141 -0.318538,0.62275031 0,0.4752789 0.344661,0.7491542 0.772749,0.7491542 h 1.986222 L 20.11489,5.9488525 c -0.05899,0.095224 -0.154213,0.2730326 -0.154213,0.4634813 0,0.392695 0.320223,0.582301 0.701121,0.582301 h 3.984253 c 0.16264,0 0.324437,-0.048034 0.429774,-0.1112355 l 0.94803,-0.560391 z"
       fill="#ffac33" />
    <path
       style="stroke-width:0.842693"
       id="path845"
       d="m 23.726673,1.6233085 h -1.986228 c -0.428088,0 -0.77275,-0.2730326 -0.77275,-0.74915425 0,-0.47527896 0.344662,-0.74915425 0.77275,-0.74915425 h 3.889029 c 0.155056,0 0.558706,0.0716289 0.558706,0.53511018 0,0.22584178 -0.04803,0.33286381 -0.177809,0.51151482 l -2.699146,3.7811643 h 2.260103 c 0.42556,0 0.771065,0.2730326 0.771065,0.7491543 0,0.4761216 -0.345505,0.7491542 -0.77275,0.7491542 h -3.984254 c -0.380897,0 -0.70112,-0.1904486 -0.70112,-0.582301 0,-0.1904486 0.09522,-0.3682569 0.154213,-0.4634812 z"
       fill="#2a6797" />
    <path
       style="stroke-width:0.842693"
       id="path847"
       d="m 19.382589,8.8047399 c 0.0025,-0.023595 0.01264,-0.041292 0.01264,-0.066573 0,-0.4070208 -0.295785,-0.6412895 -0.661514,-0.6412895 h -1.933981 l 2.310665,-3.2359419 c 0.111235,-0.1525275 0.152527,-0.2443811 0.152527,-0.4373578 0,-0.3969085 -0.345504,-0.4584251 -0.477807,-0.4584251 h -2.88791 l -0.0177,-0.3716277 -0.811514,0.4794924 c -0.05056,0.03118 -0.273032,0.200561 -0.273032,0.5334248 0,0.4070208 0.294942,0.6412896 0.661514,0.6412896 h 1.699712 l -2.300552,3.2359418 c -0.05056,0.081741 -0.132303,0.2342687 -0.132303,0.3969085 0,0.3362346 0.274718,0.4988744 0.599997,0.4988744 h 3.41038 c 0.139044,0 0.278088,-0.041292 0.367414,-0.095224 l 0.811513,-0.4794925 z"
       fill="#ffac33" />
    <path
       style="stroke-width:0.842693"
       id="path849"
       d="m 17.94664,4.7825653 h -1.699712 c -0.366572,0 -0.661514,-0.2342687 -0.661514,-0.6412895 0,-0.4070208 0.294942,-0.6412895 0.661514,-0.6412895 h 3.328638 c 0.132303,0 0.477807,0.061517 0.477807,0.4584251 0,0.1929767 -0.04045,0.2848303 -0.152527,0.4373577 L 17.590181,7.631711 h 1.933981 c 0.365729,0 0.661514,0.2342687 0.661514,0.6412895 0,0.4070208 -0.295785,0.6412896 -0.661514,0.6412896 h -3.410379 c -0.32528,0 -0.599998,-0.1626398 -0.599998,-0.4988744 0,-0.1626398 0.0809,-0.3151673 0.132303,-0.3969085 z"
       fill="#2a6797" />
    <path
       id="path837"
       d="m 17.150565,11.446081 c -0.176,-0.143 -0.427,-0.147 -0.61,-0.014 -0.012,0.009 -1.26,0.902 -3.702,0.902 -2.441,0 -3.69,-0.893 -3.7,-0.9 -0.183,-0.137 -0.435,-0.133 -0.611,0.009 -0.178,0.142 -0.238,0.386 -0.146,0.594 0.06,0.135 1.5,3.297 4.457,3.297 2.958,0 4.397,-3.162 4.457,-3.297 0.092,-0.207 0.032,-0.449 -0.145,-0.591 z m 10,0 c -0.176,-0.143 -0.426,-0.148 -0.61,-0.014 -0.012,0.009 -1.261,0.902 -3.702,0.902 -2.44,0 -3.69,-0.893 -3.7,-0.9 -0.183,-0.137 -0.434,-0.133 -0.611,0.009 -0.178,0.142 -0.238,0.386 -0.146,0.594 0.06,0.135 1.5,3.297 4.457,3.297 2.958,0 4.397,-3.162 4.457,-3.297 0.092,-0.207 0.032,-0.449 -0.145,-0.591 z"
       fill="#664500" />
  </g>
</svg>
