<?xml version="1.0" encoding="UTF-8" standalone="no"?>
<svg
   xmlns:dc="http://purl.org/dc/elements/1.1/"
   xmlns:cc="http://creativecommons.org/ns#"
   xmlns:rdf="http://www.w3.org/1999/02/22-rdf-syntax-ns#"
   xmlns:svg="http://www.w3.org/2000/svg"
   xmlns="http://www.w3.org/2000/svg"
   xmlns:sodipodi="http://sodipodi.sourceforge.net/DTD/sodipodi-0.dtd"
   xmlns:inkscape="http://www.inkscape.org/namespaces/inkscape"
   inkscape:version="1.0 (4035a4f, 2020-05-01)"
   sodipodi:docname="thinking_dead2.svg"
   id="svg22"
   version="1.1"
   viewBox="0 0 36 36"
   inkscape:export-filename="/Users/JP25309/personal/custom-emoji/thinking_dead2.png"
   inkscape:export-xdpi="682.66998"
   inkscape:export-ydpi="682.66998">
  <metadata
     id="metadata28">
    <rdf:RDF>
      <cc:Work
         rdf:about="">
        <dc:format>image/svg+xml</dc:format>
        <dc:type
           rdf:resource="http://purl.org/dc/dcmitype/StillImage" />
        <dc:title />
      </cc:Work>
    </rdf:RDF>
  </metadata>
  <defs
     id="defs26" />
  <sodipodi:namedview
     inkscape:current-layer="layer3"
     inkscape:window-maximized="0"
     inkscape:window-y="23"
     inkscape:window-x="0"
     inkscape:cy="24.316065"
     inkscape:cx="-113.37952"
     inkscape:zoom="3.2851002"
     showgrid="false"
     id="namedview24"
     inkscape:window-height="1035"
     inkscape:window-width="1920"
     inkscape:pageshadow="2"
     inkscape:pageopacity="0"
     guidetolerance="10"
     gridtolerance="10"
     objecttolerance="10"
     borderopacity="1"
     bordercolor="#666666"
     pagecolor="#ffffff"
     inkscape:document-rotation="0" />
  <g
     style="display:inline"
     inkscape:label="Layer 1"
     id="layer1"
     inkscape:groupmode="layer">
    <circle
       id="circle10"
       r="18"
       cy="18"
       cx="18"
       fill="#ffcc4d" />
    <path
       id="path14"
       d="m 33.175,8.316 c 0,0 -9.042,0.161 -15.175,0.161 C 14.095,8.477 2.794,8.359 2.794,8.359 L 2.273,9.235 c 3.043,1.856 9.064,2.917 15.727,2.917 6.596,0 12.576,-1.04 15.652,-2.86 L 33.73,9.245 c 0,0 -0.374,-0.664 -0.555,-0.929 z"
       fill="#ffac33" />
  </g>
  <g
     style="display:inline"
     inkscape:label="Layer 2"
     id="layer2"
     inkscape:groupmode="layer">
    <g
       transform="translate(-0.82932849,-3.358814)"
       id="g121">
      <path
         fill="#65471b"
         d="m 14.752303,26.726706 c -0.145,-0.116 -0.258,-0.274 -0.312,-0.464 -0.134,-0.46 0.13,-0.918 0.59,-1.021 4.528,-1.021 7.577,1.363 7.706,1.465 0.384,0.306 0.459,0.845 0.173,1.205 -0.286,0.358 -0.828,0.401 -1.211,0.097 -0.11,-0.084 -2.523,-1.923 -6.182,-1.098 -0.274,0.061 -0.554,-0.016 -0.764,-0.184 z"
         id="path97" />
      <g
         id="g65"
         transform="matrix(1.1758605,0,0,1.1275285,-11.628456,-11.061269)">
        <g
           id="layer1-7"
           inkscape:label="Layer 1"
           style="display:inline">
          <path
             fill="#f19020"
             d="m 25.097682,44.059716 c 0,0 0.914952,-0.297269 1.033571,-0.977878 0.125128,-0.70303 -0.451329,-0.844071 -0.451329,-0.844071 0,0 0.752938,-0.150442 0.847688,-0.995236 0.08896,-0.796335 -0.622747,-0.985835 -0.622747,-0.985835 0,0 0.701584,-0.289313 0.734855,-1.113132 0.02749,-0.693628 -0.719666,-1.032847 -0.719666,-1.032847 0,0 3.643898,-0.883128 4.018558,-0.969922 0.373214,-0.08679 0.954734,-0.444819 0.77319,-1.225241 -0.180098,-0.781145 -0.870833,-0.80863 -1.227411,-0.725453 -0.357302,0.08318 -4.877818,1.132661 -6.437215,1.495749 l -1.040804,0.241576 c -0.390573,0.09186 -0.567777,-0.07956 -0.292206,-0.37032 0.367427,-0.38768 0.602494,-0.816586 0.684225,-1.528297 0.08607,-0.748597 -0.167802,-1.672952 -0.313181,-2.031701 -0.270508,-0.666143 -0.726899,-1.192693 -1.254172,-1.373513 -0.822373,-0.28208 -1.406785,0.232173 -1.115302,1.129044 0.436862,1.340966 0.150442,2.441079 -0.602495,3.105052 -1.771319,1.560121 -2.595138,2.67253 -2.04689,5.04345 0.598878,2.585736 3.165808,4.250009 5.751544,3.651131 z"
             id="path18-3"
             style="stroke-width:0.723283" />
        </g>
      </g>
    </g>
  </g>
  <g
     style="display:inline"
     transform="translate(-0.82932849,-3.358814)"
     inkscape:label="Layer 4"
     id="layer4"
     inkscape:groupmode="layer">
    <g
       transform="translate(0.68356169,0.90385428)"
       id="g189"
       style="display:inline;fill:#65471b;fill-opacity:1">
      <path
         style="fill:#65471b;fill-opacity:1"
         id="path213"
         d="M 16,19 C 15.581,19 15.191,18.735 15.051,18.316 14.848,17.717 14.034,16 13,16 c -1.062,0 -1.888,1.827 -2.051,2.316 -0.175,0.523 -0.738,0.808 -1.265,0.632 C 9.16,18.774 8.877,18.208 9.052,17.683 9.177,17.307 10.355,14 13,14 c 2.645,0 3.823,3.307 3.949,3.684 0.175,0.524 -0.108,1.091 -0.632,1.265 C 16.211,18.983 16.104,19 16,19 Z" />
      <path
         style="fill:#65471b;fill-opacity:1"
         id="path211"
         d="M 26,19 C 25.581,19 25.191,18.735 25.052,18.316 24.849,17.717 24.033,16 23,16 c -1.062,0 -1.889,1.827 -2.052,2.316 -0.175,0.523 -0.736,0.808 -1.265,0.632 C 19.16,18.774 18.876,18.208 19.051,17.683 19.177,17.307 20.355,14 23,14 c 2.645,0 3.823,3.307 3.948,3.684 0.175,0.524 -0.108,1.091 -0.632,1.265 C 26.211,18.983 26.104,19 26,19 Z" />
    </g>
  </g>
  <g
     inkscape:groupmode="layer"
     id="layer3"
     inkscape:label="Layer 3"
     style="display:inline">
    <path
       style="display:inline"
       id="path16"
       d="M 23.777,0.345 C 22.565,0.251 21.304,0.186 20.004,0.155 19.343,0.139 18.676,0.129 18,0.129 c -0.672,0 -1.336,0.01 -1.993,0.025 C 14.705,0.185 13.443,0.25 12.23,0.344 5.34,0.88 0.169,2.451 0.169,5.287 c 0,3.588 8.264,5.771 17.831,5.771 9.567,0 17.831,-2.183 17.831,-5.771 0,-2.835 -5.168,-4.405 -12.054,-4.942 z M 18,7.383 C 11.139,7.383 5.09,6.55 5.09,4.647 5.09,4.111 5.584,3.624 6.429,3.198 7.582,2.617 9.407,2.154 11.618,1.849 13.529,1.587 15.716,1.439 18,1.439 c 2.291,0 4.485,0.148 6.4,0.413 2.242,0.31 4.086,0.783 5.232,1.377 0.807,0.418 1.278,0.894 1.278,1.418 0,1.903 -6.049,2.736 -12.91,2.736 z"
       fill="#5dadec" />
    <path
       style="display:inline"
       id="path18"
       d="m 24.4,1.853 c 2.242,0.31 4.086,0.783 5.232,1.377 l 0.062,0.017 C 27.409,1.573 25.124,0.687 23.777,0.345 22.565,0.251 21.304,0.186 20.004,0.155 l 0.018,0.007 z M 6.429,3.199 C 7.582,2.618 9.407,2.155 11.618,1.85 L 15.984,0.162 16.007,0.154 C 14.705,0.185 13.443,0.25 12.23,0.344 10.883,0.686 8.597,1.571 6.311,3.246 Z"
       fill="#3b94d9" />
    <path
       style="display:inline"
       id="path20"
       d="M 28.472,3.375 C 27.812,2.932 27.126,2.465 26.471,2.115 23.947,0.765 21.063,0 18,0 15.071,0 12.305,0.7 9.86,1.941 8.771,2.494 7.979,2.94 7.69,3.375 Z"
       fill="#ffcc4d" />
  </g>
</svg>
