<?xml version="1.0" encoding="UTF-8" standalone="no"?>
<svg
   xmlns:dc="http://purl.org/dc/elements/1.1/"
   xmlns:cc="http://creativecommons.org/ns#"
   xmlns:rdf="http://www.w3.org/1999/02/22-rdf-syntax-ns#"
   xmlns:svg="http://www.w3.org/2000/svg"
   xmlns="http://www.w3.org/2000/svg"
   xmlns:sodipodi="http://sodipodi.sourceforge.net/DTD/sodipodi-0.dtd"
   xmlns:inkscape="http://www.inkscape.org/namespaces/inkscape"
   inkscape:export-ydpi="682.66998"
   inkscape:export-xdpi="682.66998"
   inkscape:export-filename="/Users/JP25309/personal/custom-emoji/thinking_dead.png"
   viewBox="0 0 36 36"
   version="1.1"
   id="svg22"
   sodipodi:docname="thinking_dead.svg"
   inkscape:version="1.0 (4035a4f, 2020-05-01)">
  <metadata
     id="metadata28">
    <rdf:RDF>
      <cc:Work
         rdf:about="">
        <dc:format>image/svg+xml</dc:format>
        <dc:type
           rdf:resource="http://purl.org/dc/dcmitype/StillImage" />
        <dc:title></dc:title>
      </cc:Work>
    </rdf:RDF>
  </metadata>
  <defs
     id="defs26" />
  <sodipodi:namedview
     inkscape:document-rotation="0"
     pagecolor="#ffffff"
     bordercolor="#666666"
     borderopacity="1"
     objecttolerance="10"
     gridtolerance="10"
     guidetolerance="10"
     inkscape:pageopacity="0"
     inkscape:pageshadow="2"
     inkscape:window-width="1920"
     inkscape:window-height="1035"
     id="namedview24"
     showgrid="false"
     inkscape:zoom="3.2851002"
     inkscape:cx="-92.473111"
     inkscape:cy="-31.448858"
     inkscape:window-x="0"
     inkscape:window-y="23"
     inkscape:window-maximized="1"
     inkscape:current-layer="g121" />
  <g
     inkscape:groupmode="layer"
     id="layer1"
     inkscape:label="Layer 1"
     style="display:inline">
    <circle
       fill="#ffcc4d"
       cx="18"
       cy="18"
       r="18"
       id="circle10" />
    <path
       fill="#ffac33"
       d="m 33.175,8.316 c 0,0 -9.042,0.161 -15.175,0.161 C 14.095,8.477 2.794,8.359 2.794,8.359 L 2.273,9.235 c 3.043,1.856 9.064,2.917 15.727,2.917 6.596,0 12.576,-1.04 15.652,-2.86 L 33.73,9.245 c 0,0 -0.374,-0.664 -0.555,-0.929 z"
       id="path14" />
  </g>
  <g
     inkscape:groupmode="layer"
     id="layer2"
     inkscape:label="Layer 2"
     style="display:inline">
    <g
       id="g121"
       transform="translate(-0.82932849,-3.358814)">
      <path
         id="path97"
         d="m 14.752303,26.726706 c -0.145,-0.116 -0.258,-0.274 -0.312,-0.464 -0.134,-0.46 0.13,-0.918 0.59,-1.021 4.528,-1.021 7.577,1.363 7.706,1.465 0.384,0.306 0.459,0.845 0.173,1.205 -0.286,0.358 -0.828,0.401 -1.211,0.097 -0.11,-0.084 -2.523,-1.923 -6.182,-1.098 -0.274,0.061 -0.554,-0.016 -0.764,-0.184 z"
         fill="#65471b" />
      <ellipse
         id="ellipse99"
         ry="2.6559999"
         rx="2.125"
         cy="16.864708"
         cx="13.347304"
         fill="#65471b" />
      <ellipse
         id="ellipse101"
         ry="2.6559999"
         rx="2.125"
         cy="17.926706"
         cx="24.603304"
         fill="#65471b" />
      <path
         id="path105"
         d="m 9.5243036,12.041707 c -0.164,-0.088 -0.303,-0.224 -0.391,-0.399 -0.216,-0.428 -0.04,-0.927 0.393,-1.112 4.2659994,-1.8309997 7.6989994,-0.043 7.8429994,0.034 0.433,0.231 0.608,0.747 0.391,1.154 -0.216,0.405 -0.74,0.546 -1.173,0.318 -0.123,-0.063 -2.832,-1.432 -6.278,0.047 -0.256999,0.109 -0.5469994,0.085 -0.7849994,-0.042 z m 12.1349994,3.749999 c -0.156,-0.098 -0.286,-0.243 -0.362,-0.424 -0.187,-0.442 0.023,-0.927 0.468,-1.084 4.381,-1.536 7.685,0.48 7.823,0.567 0.415,0.26 0.555,0.787 0.312,1.178 -0.242,0.39 -0.776,0.495 -1.191,0.238 -0.12,-0.072 -2.727,-1.621 -6.267,-0.379 -0.266,0.091 -0.553,0.046 -0.783,-0.096 z"
         fill="#65471b" />
      <g
         transform="matrix(1.1758605,0,0,1.1275285,-11.628456,-11.061269)"
         id="g65">
        <g
           style="display:inline"
           inkscape:label="Layer 1"
           id="layer1-7">
          <path
             style="stroke-width:0.723283"
             id="path18-3"
             d="m 25.097682,44.059716 c 0,0 0.914952,-0.297269 1.033571,-0.977878 0.125128,-0.70303 -0.451329,-0.844071 -0.451329,-0.844071 0,0 0.752938,-0.150442 0.847688,-0.995236 0.08896,-0.796335 -0.622747,-0.985835 -0.622747,-0.985835 0,0 0.701584,-0.289313 0.734855,-1.113132 0.02749,-0.693628 -0.719666,-1.032847 -0.719666,-1.032847 0,0 3.643898,-0.883128 4.018558,-0.969922 0.373214,-0.08679 0.954734,-0.444819 0.77319,-1.225241 -0.180098,-0.781145 -0.870833,-0.80863 -1.227411,-0.725453 -0.357302,0.08318 -4.877818,1.132661 -6.437215,1.495749 l -1.040804,0.241576 c -0.390573,0.09186 -0.567777,-0.07956 -0.292206,-0.37032 0.367427,-0.38768 0.602494,-0.816586 0.684225,-1.528297 0.08607,-0.748597 -0.167802,-1.672952 -0.313181,-2.031701 -0.270508,-0.666143 -0.726899,-1.192693 -1.254172,-1.373513 -0.822373,-0.28208 -1.406785,0.232173 -1.115302,1.129044 0.436862,1.340966 0.150442,2.441079 -0.602495,3.105052 -1.771319,1.560121 -2.595138,2.67253 -2.04689,5.04345 0.598878,2.585736 3.165808,4.250009 5.751544,3.651131 z"
             fill="#f19020" />
        </g>
      </g>
    </g>
  </g>
  <g
     style="display:inline"
     inkscape:label="Layer 3"
     id="layer3"
     inkscape:groupmode="layer">
    <path
       fill="#5dadec"
       d="M 23.777,0.345 C 22.565,0.251 21.304,0.186 20.004,0.155 19.343,0.139 18.676,0.129 18,0.129 c -0.672,0 -1.336,0.01 -1.993,0.025 C 14.705,0.185 13.443,0.25 12.23,0.344 5.34,0.88 0.169,2.451 0.169,5.287 c 0,3.588 8.264,5.771 17.831,5.771 9.567,0 17.831,-2.183 17.831,-5.771 0,-2.835 -5.168,-4.405 -12.054,-4.942 z M 18,7.383 C 11.139,7.383 5.09,6.55 5.09,4.647 5.09,4.111 5.584,3.624 6.429,3.198 7.582,2.617 9.407,2.154 11.618,1.849 13.529,1.587 15.716,1.439 18,1.439 c 2.291,0 4.485,0.148 6.4,0.413 2.242,0.31 4.086,0.783 5.232,1.377 0.807,0.418 1.278,0.894 1.278,1.418 0,1.903 -6.049,2.736 -12.91,2.736 z"
       id="path16"
       style="display:inline" />
    <path
       fill="#3b94d9"
       d="m 24.4,1.853 c 2.242,0.31 4.086,0.783 5.232,1.377 l 0.062,0.017 C 27.409,1.573 25.124,0.687 23.777,0.345 22.565,0.251 21.304,0.186 20.004,0.155 l 0.018,0.007 z M 6.429,3.199 C 7.582,2.618 9.407,2.155 11.618,1.85 L 15.984,0.162 16.007,0.154 C 14.705,0.185 13.443,0.25 12.23,0.344 10.883,0.686 8.597,1.571 6.311,3.246 Z"
       id="path18"
       style="display:inline" />
    <path
       fill="#ffcc4d"
       d="M 28.472,3.375 C 27.812,2.932 27.126,2.465 26.471,2.115 23.947,0.765 21.063,0 18,0 15.071,0 12.305,0.7 9.86,1.941 8.771,2.494 7.979,2.94 7.69,3.375 Z"
       id="path20"
       style="display:inline" />
  </g>
</svg>
