<?xml version="1.0" encoding="UTF-8" standalone="no"?>
<svg
   xmlns:dc="http://purl.org/dc/elements/1.1/"
   xmlns:cc="http://creativecommons.org/ns#"
   xmlns:rdf="http://www.w3.org/1999/02/22-rdf-syntax-ns#"
   xmlns:svg="http://www.w3.org/2000/svg"
   xmlns="http://www.w3.org/2000/svg"
   xmlns:sodipodi="http://sodipodi.sourceforge.net/DTD/sodipodi-0.dtd"
   xmlns:inkscape="http://www.inkscape.org/namespaces/inkscape"
   inkscape:export-ydpi="677.33331"
   inkscape:export-xdpi="677.33331"
   inkscape:export-filename="/Users/JP25309/personal/custom-emoji/thinking_無.png"
   viewBox="0 0 36 36"
   version="1.1"
   id="svg837"
   sodipodi:docname="thinking_無.svg"
   inkscape:version="1.0 (4035a4f, 2020-05-01)">
  <metadata
     id="metadata843">
    <rdf:RDF>
      <cc:Work
         rdf:about="">
        <dc:format>image/svg+xml</dc:format>
        <dc:type
           rdf:resource="http://purl.org/dc/dcmitype/StillImage" />
      </cc:Work>
    </rdf:RDF>
  </metadata>
  <defs
     id="defs841" />
  <sodipodi:namedview
     inkscape:document-rotation="0"
     pagecolor="#ffffff"
     bordercolor="#666666"
     borderopacity="1"
     objecttolerance="10"
     gridtolerance="10"
     guidetolerance="10"
     inkscape:pageopacity="0"
     inkscape:pageshadow="2"
     inkscape:window-width="1920"
     inkscape:window-height="1035"
     id="namedview839"
     showgrid="false"
     inkscape:zoom="13.140401"
     inkscape:cx="10.130987"
     inkscape:cy="25.389691"
     inkscape:window-x="0"
     inkscape:window-y="23"
     inkscape:window-maximized="1"
     inkscape:current-layer="layer2" />
  <g
     inkscape:groupmode="layer"
     id="layer1"
     inkscape:label="Layer 1"
     style="display:inline">
    <path
       fill="#f4900c"
       d="m 36,32 c 0,2.209 -1.791,4 -4,4 H 4 C 1.791,36 0,34.209 0,32 V 4 C 0,1.791 1.791,0 4,0 h 28 c 2.209,0 4,1.791 4,4 z"
       id="path833" />
    <path
       fill="#ffffff"
       d="m 15.166129,9.7490995 c 0,-0.702 0.078,-1.456 0.208,-2.184 -0.676,0.78 -1.404,1.482 -2.158,2.158 -0.234,0.156 -0.468,0.26 -0.702,0.26 -0.26,0 -0.52,-0.13 -0.728,-0.364 -0.13,-0.182 -0.208,-0.39 -0.208,-0.572 0,-0.312 0.156,-0.624 0.494,-0.832 1.872,-1.43 3.432,-3.432 4.55,-5.694 0.182,-0.286 0.442,-0.416 0.78,-0.416 0.156,0 0.338,0.026 0.52,0.104 0.364,0.13 0.572,0.416 0.572,0.729 0,0.156 -0.052,0.338 -0.156,0.494 -0.364,0.598 -0.78,1.196 -1.248,1.768 0.962,-0.052 1.872,-0.078 2.808,-0.078 h 13.572 c 0.468,0 0.702,0.364 0.702,0.91 0,0.494 -0.234,0.858 -0.702,0.858 h -2.158 V 11.3101 h 3.095 c 0.468,0 0.727,0.364 0.727,0.91 0,0.52 -0.26,0.91 -0.727,0.91 h -3.095 v 4.524 h 2.444 c 0.468,0 0.702,0.364 0.702,0.885 0,0.494 -0.234,0.91 -0.702,0.91 h -21.112 c -0.468,0 -0.702,-0.391 -0.702,-0.91 0,-0.494 0.234,-0.885 0.702,-0.885 h 2.522 v -4.524 h -3.12 c -0.442,0 -0.702,-0.39 -0.702,-0.91 0,-0.52 0.26,-0.91 0.702,-0.91 h 3.12 z m 4.784,1.5610005 V 5.6255255 l -2.964,1.264574 V 11.3101 Z m 0,6.343 v -4.524 h -2.964 v 4.524 z m 0,2.939 c 0.416,0 0.728,0.234 0.806,0.599 0.312,1.3 0.494,2.808 0.598,4.134 v 0.078 c 0,0.468 -0.39,0.78 -0.936,0.832 h -0.13 c -0.494,0 -0.884,-0.286 -0.91,-0.728 -0.052,-1.222 -0.208,-2.704 -0.468,-4.03 v -0.13 c 0,-0.364 0.312,-0.649 0.78,-0.728 0.079,-0.027 0.182,-0.027 0.26,-0.027 z m 4.759,-9.282 V 6.2712654 l -2.991,-0.6457399 V 11.3101 Z m 0,6.343 v -4.524 h -2.991 v 4.524 z m 0.623,2.887 c 0.416,0 0.703,0.182 0.832,0.546 0.494,1.3 0.91,2.678 1.17,3.926 0.026,0.078 0.026,0.183 0.026,0.261 0,0.416 -0.312,0.727 -0.806,0.832 -0.13,0.025 -0.234,0.052 -0.364,0.052 -0.416,0 -0.754,-0.234 -0.806,-0.65 -0.182,-1.222 -0.598,-2.678 -1.014,-3.926 -0.026,-0.078 -0.053,-0.183 -0.053,-0.26 0,-0.364 0.26,-0.65 0.676,-0.729 0.132,-0.027 0.236,-0.052 0.339,-0.052 z m 4.187,-9.23 V 6.8900995 h -3.067 V 11.3101 Z m 0,6.343 v -4.524 h -3.067 v 4.524 z m 1.508,2.809 c 0.312,0 0.571,0.13 0.754,0.312 1.065,1.325 1.897,2.573 2.573,3.899 0.078,0.156 0.104,0.312 0.104,0.442 0,0.364 -0.208,0.676 -0.572,0.857 -0.156,0.078 -0.338,0.131 -0.494,0.131 -0.338,0 -0.649,-0.156 -0.832,-0.442 -0.65,-1.326 -1.404,-2.626 -2.392,-3.874 -0.078,-0.13 -0.13,-0.286 -0.13,-0.442 0,-0.26 0.13,-0.52 0.441,-0.728 0.183,-0.103 0.366,-0.155 0.548,-0.155 z"
       id="path835"
       sodipodi:nodetypes="sccscsccscsccssssccsssccssssssccssscsccccccccccsccscsccscsccccccccccsccscscsscsccccccccccsccscsccscs" />
  </g>
  <g
     inkscape:groupmode="layer"
     id="layer2"
     inkscape:label="Layer 2"
     style="display:inline">
    <path
       style="fill:#ffffff;fill-opacity:1"
       fill="#65471b"
       d="m 8.6316235,21.568699 c -0.145,-0.116 -0.258,-0.274 -0.312,-0.464 -0.134,-0.46 0.13,-0.918 0.59,-1.021 4.5280005,-1.021 7.5769995,1.363 7.7060005,1.465 0.384,0.306 0.459,0.845 0.172999,1.205 -0.286,0.358 -0.827999,0.401 -1.210999,0.097 -0.11,-0.084 -2.523,-1.923 -6.1820005,-1.098 -0.274,0.061 -0.554,-0.016 -0.764,-0.184 z"
       id="path851" />
    <ellipse
       style="fill:#ffffff;fill-opacity:1"
       fill="#65471b"
       cx="6.1627917"
       cy="10.093932"
       rx="2.125"
       ry="2.6559999"
       id="ellipse853" />
    <path
       style="fill:#ffcb4c;fill-opacity:1"
       fill="#f19020"
       d="m 11.383623,35.167456 c 0,0 1.265,-0.411 1.429,-1.352 0.173,-0.972 -0.624,-1.167 -0.624,-1.167 0,0 1.041,-0.208 1.172,-1.376 0.123001,-1.101 -0.861,-1.363 -0.861,-1.363 0,0 0.97,-0.4 1.016,-1.539 0.038,-0.959 -0.995,-1.428 -0.995,-1.428 0,0 5.038,-1.221 5.556,-1.341 0.516,-0.12 1.32,-0.615 1.069,-1.694 -0.249,-1.08 -1.204,-1.118 -1.697,-1.003 -0.494,0.115 -6.744,1.566 -8.8999995,2.068 l -1.439,0.334 c -0.54,0.127 -0.785,-0.11 -0.404,-0.512 0.508,-0.536 0.833,-1.129 0.946,-2.113 0.119,-1.035 -0.232,-2.313 -0.433,-2.809 -0.374,-0.921 -1.005,-1.649 -1.734,-1.899 -1.1370002,-0.39 -1.9450002,0.321 -1.5420002,1.561 0.604,1.854 0.208,3.375 -0.833,4.293 -2.449,2.157 -3.588,3.695 -2.83,6.973 0.828,3.575 4.377,5.876 7.9520002,5.048 z"
       id="path857" />
    <path
       sodipodi:nodetypes="sccscsccscsccssssccsssccssssssccssscsccccccccccsccscsccscsccccccccccsccscscsscsccccccccccsccscsccscs"
       id="path913"
       d="m 15.166129,9.7490995 c 0,-0.702 0.078,-1.456 0.208,-2.184 -0.676,0.78 -1.404,1.482 -2.158,2.158 -0.234,0.156 -0.468,0.26 -0.702,0.26 -0.26,0 -0.52,-0.13 -0.728,-0.364 -0.13,-0.182 -0.208,-0.39 -0.208,-0.572 0,-0.312 0.156,-0.624 0.494,-0.832 1.872,-1.43 3.432,-3.432 4.55,-5.694 0.182,-0.286 0.442,-0.416 0.78,-0.416 0.156,0 0.338,0.026 0.52,0.104 0.364,0.13 0.572,0.416 0.572,0.729 0,0.156 -0.052,0.338 -0.156,0.494 -0.364,0.598 -0.78,1.196 -1.248,1.768 0.962,-0.052 1.872,-0.078 2.808,-0.078 h 13.572 c 0.468,0 0.702,0.364 0.702,0.91 0,0.494 -0.234,0.858 -0.702,0.858 h -2.158 V 11.3101 h 3.095 c 0.468,0 0.727,0.364 0.727,0.91 0,0.52 -0.26,0.91 -0.727,0.91 h -3.095 v 4.524 h 2.444 c 0.468,0 0.702,0.364 0.702,0.885 0,0.494 -0.234,0.91 -0.702,0.91 h -21.112 c -0.468,0 -0.702,-0.391 -0.702,-0.91 0,-0.494 0.234,-0.885 0.702,-0.885 h 2.522 v -4.524 h -3.12 c -0.442,0 -0.702,-0.39 -0.702,-0.91 0,-0.52 0.26,-0.91 0.702,-0.91 h 3.12 z m 4.784,1.5610005 V 5.6255255 l -2.964,1.264574 V 11.3101 Z m 0,6.343 v -4.524 h -2.964 v 4.524 z m 0,2.939 c 0.416,0 0.728,0.234 0.806,0.599 0.312,1.3 0.494,2.808 0.598,4.134 v 0.078 c 0,0.468 -0.39,0.78 -0.936,0.832 h -0.13 c -0.494,0 -0.884,-0.286 -0.91,-0.728 -0.052,-1.222 -0.208,-2.704 -0.468,-4.03 v -0.13 c 0,-0.364 0.312,-0.649 0.78,-0.728 0.079,-0.027 0.182,-0.027 0.26,-0.027 z m 4.759,-9.282 V 6.2712654 l -2.991,-0.6457399 V 11.3101 Z m 0,6.343 v -4.524 h -2.991 v 4.524 z m 0.623,2.887 c 0.416,0 0.703,0.182 0.832,0.546 0.494,1.3 0.91,2.678 1.17,3.926 0.026,0.078 0.026,0.183 0.026,0.261 0,0.416 -0.312,0.727 -0.806,0.832 -0.13,0.025 -0.234,0.052 -0.364,0.052 -0.416,0 -0.754,-0.234 -0.806,-0.65 -0.182,-1.222 -0.598,-2.678 -1.014,-3.926 -0.026,-0.078 -0.053,-0.183 -0.053,-0.26 0,-0.364 0.26,-0.65 0.676,-0.729 0.132,-0.027 0.236,-0.052 0.339,-0.052 z m 4.187,-9.23 V 6.8900995 h -3.067 V 11.3101 Z m 0,6.343 v -4.524 h -3.067 v 4.524 z m 1.508,2.809 c 0.312,0 0.571,0.13 0.754,0.312 1.065,1.325 1.897,2.573 2.573,3.899 0.078,0.156 0.104,0.312 0.104,0.442 0,0.364 -0.208,0.676 -0.572,0.857 -0.156,0.078 -0.338,0.131 -0.494,0.131 -0.338,0 -0.649,-0.156 -0.832,-0.442 -0.65,-1.326 -1.404,-2.626 -2.392,-3.874 -0.078,-0.13 -0.13,-0.286 -0.13,-0.442 0,-0.26 0.13,-0.52 0.441,-0.728 0.183,-0.103 0.366,-0.155 0.548,-0.155 z"
       fill="#ffffff"
       style="opacity:0.996;fill:#ffffff;fill-opacity:1" />
    <path
       style="fill:#ffffff;fill-opacity:1;stroke-width:1.11322"
       d="m 17.35661,6.4517911 c -0.156,-0.1214481 -0.09766,-0.067737 -0.173659,-0.2920446 -0.186999,-0.5477559 0.023,-1.1488003 0.468,-1.3433652 4.381,-1.9035137 7.685,0.5948481 7.823,0.7026643 0.415,0.3222093 0.555,0.9753029 0.312,1.4598562 -0.242,0.4833141 -0.776,0.6134371 -1.190999,0.2949455 C 24.474951,7.1846201 21.921764,4.7315 18.381764,6.2706693 18.115763,6.3834426 17.586611,6.627767 17.35661,6.4517911 Z"
       id="path1017" />
    <path
       style="fill:#ffffff;fill-opacity:1"
       d="m 3.8618144,3.2923018 c -0.164,-0.088 -0.303,-0.224 -0.391,-0.399 -0.216,-0.428 -0.04,-0.927 0.393,-1.112 4.266,-1.83099991 7.6989996,-0.043 7.8429986,0.034 0.433,0.231 0.608,0.747 0.391,1.154 -0.216,0.405 -0.74,0.546 -1.173,0.318 -0.122999,-0.063 -2.8319986,-1.432 -6.2779986,0.047 -0.257,0.109 -0.547,0.085 -0.785,-0.042 z"
       id="path859" />
  </g>
  <g
     inkscape:groupmode="layer"
     id="layer3"
     inkscape:label="Layer 3"
     style="display:none">
    <ellipse
       id="ellipse1009"
       ry="5.0772285"
       rx="4.0621653"
       cy="11.232034"
       cx="19.397421"
       fill="#65471b"
       style="display:inline;fill:#f4900c;fill-opacity:1;stroke-width:1.9116" />
  </g>
  <g
     inkscape:groupmode="layer"
     id="layer4"
     inkscape:label="Layer 4"
     style="display:none">
    <ellipse
       style="display:inline;fill:#ffffff;fill-opacity:1"
       fill="#65471b"
       cx="19.397421"
       cy="11.232034"
       rx="2.125"
       ry="2.6559999"
       id="ellipse855" />
  </g>
</svg>
