<?xml version="1.0" encoding="UTF-8" standalone="no"?>
<svg
   xmlns:dc="http://purl.org/dc/elements/1.1/"
   xmlns:cc="http://creativecommons.org/ns#"
   xmlns:rdf="http://www.w3.org/1999/02/22-rdf-syntax-ns#"
   xmlns:svg="http://www.w3.org/2000/svg"
   xmlns="http://www.w3.org/2000/svg"
   xmlns:sodipodi="http://sodipodi.sourceforge.net/DTD/sodipodi-0.dtd"
   xmlns:inkscape="http://www.inkscape.org/namespaces/inkscape"
   inkscape:export-ydpi="682.66998"
   inkscape:export-xdpi="682.66998"
   inkscape:export-filename="/Users/JP25309/personal/custom-emoji/thinking_face_with_sunglasses_gun.png"
   inkscape:version="1.0 (4035a4f, 2020-05-01)"
   sodipodi:docname="thinking_face_with_sunglasses_gun.svg"
   id="svg839"
   version="1.1"
   viewBox="0 0 36 36">
  <metadata
     id="metadata845">
    <rdf:RDF>
      <cc:Work
         rdf:about="">
        <dc:format>image/svg+xml</dc:format>
        <dc:type
           rdf:resource="http://purl.org/dc/dcmitype/StillImage" />
        <dc:title></dc:title>
      </cc:Work>
    </rdf:RDF>
  </metadata>
  <defs
     id="defs843" />
  <sodipodi:namedview
     inkscape:current-layer="layer5"
     inkscape:window-maximized="1"
     inkscape:window-y="23"
     inkscape:window-x="0"
     inkscape:cy="34.423745"
     inkscape:cx="-29.701078"
     inkscape:zoom="9.2916667"
     showgrid="false"
     id="namedview841"
     inkscape:window-height="1035"
     inkscape:window-width="1920"
     inkscape:pageshadow="2"
     inkscape:pageopacity="0"
     guidetolerance="10"
     gridtolerance="10"
     objecttolerance="10"
     borderopacity="1"
     bordercolor="#666666"
     pagecolor="#ffffff" />
  <g
     inkscape:label="Layer 1"
     id="layer1"
     inkscape:groupmode="layer">
    <path
       id="path833"
       d="M36 18c0 9.941-8.059 18-18 18S0 27.941 0 18 8.059 0 18 0s18 8.059 18 18"
       fill="#FFCC4D" />
  </g>
  <g
     style="display:inline"
     inkscape:label="Layer 2"
     id="layer2"
     inkscape:groupmode="layer">
    <g
       transform="translate(0.13452917,0.01845543)"
       id="g878">
      <path
         fill="#65471b"
         d="m 14.524,21.036 c -0.145,-0.116 -0.258,-0.274 -0.312,-0.464 -0.134,-0.46 0.13,-0.918 0.59,-1.021 4.528,-1.021 7.577,1.363 7.706,1.465 0.384,0.306 0.459,0.845 0.173,1.205 -0.286,0.358 -0.828,0.401 -1.211,0.097 -0.11,-0.084 -2.523,-1.923 -6.182,-1.098 -0.274,0.061 -0.554,-0.016 -0.764,-0.184 z"
         id="path854" />
      <ellipse
         fill="#65471b"
         cx="13.119"
         cy="11.174"
         rx="2.125"
         ry="2.6559999"
         id="ellipse856" />
      <ellipse
         fill="#65471b"
         cx="24.375"
         cy="12.236"
         rx="2.125"
         ry="2.6559999"
         id="ellipse858" />
      <path
         fill="#65471b"
         d="M 9.296,6.351 C 9.132,6.263 8.993,6.127 8.905,5.952 8.689,5.524 8.865,5.025 9.298,4.84 c 4.266,-1.831 7.699,-0.043 7.843,0.034 0.433,0.231 0.608,0.747 0.391,1.154 -0.216,0.405 -0.74,0.546 -1.173,0.318 C 16.236,6.283 13.527,4.914 10.081,6.393 9.824,6.502 9.534,6.478 9.296,6.351 Z m 12.135,3.75 C 21.275,10.003 21.145,9.858 21.069,9.677 20.882,9.235 21.092,8.75 21.537,8.593 c 4.381,-1.536 7.685,0.48 7.823,0.567 0.415,0.26 0.555,0.787 0.312,1.178 -0.242,0.39 -0.776,0.495 -1.191,0.238 -0.12,-0.072 -2.727,-1.621 -6.267,-0.379 -0.266,0.091 -0.553,0.046 -0.783,-0.096 z"
         id="path862" />
    </g>
  </g>
  <g
     style="display:inline"
     inkscape:label="Layer 3"
     id="layer3"
     inkscape:groupmode="layer">
    <path
       style="stroke-width:0.883578"
       id="path835"
       d="m 3.1977619,7.5868736 c 0.2120586,0.211175 1.2705844,0.8455836 1.4817595,1.4799923 0.2120586,0.6335252 0.6361758,4.2270331 1.9067603,5.2846761 1.3103454,1.088567 6.2530783,0.683889 7.1993903,0.212058 2.117935,-1.055875 2.377707,-4.00349 2.752344,-5.4967341 0.211174,-0.8455837 1.481759,-0.8455837 1.481759,-0.8455837 0,0 1.270585,0 1.482644,0.8447002 0.374636,1.4941276 0.636176,4.4417426 2.752344,5.4967336 0.947195,0.472715 5.889927,0.878276 7.20204,-0.210291 1.268817,-1.057643 1.692051,-4.6511507 1.904109,-5.2855591 0.210291,-0.6335251 1.270584,-1.2679337 1.48176,-1.4791088 0.212942,-0.211175 0.212942,-1.0567587 0,-1.2688173 -0.423234,-0.42235 -5.419865,-0.7987541 -10.799968,-0.211175 -1.073547,0.1175158 -1.48176,0.42235 -4.023812,0.42235 -2.540286,0 -2.950265,-0.3057178 -4.022929,-0.42235 C 8.6193935,5.5193021 3.6218791,5.8957062 3.1977619,6.3180562 c -0.2111751,0.211175 -0.2111751,1.0576424 0,1.2688174 z"
       fill="#292f33"
       clip-rule="evenodd"
       fill-rule="evenodd" />
  </g>
  <g
     inkscape:label="Layer 4"
     id="layer4"
     inkscape:groupmode="layer">
    <g
       transform="matrix(0.4824728,0,0,0.4824728,18.874728,20.693472)"
       id="g990">
      <path
         fill="#ffac33"
         d="m 16.61,17.589 h 5.278 v 1.056 H 16.61 Z"
         id="path949" />
      <path
         fill="#ffac33"
         d="m 15.555,15.478 c -0.135,0 -0.27,0.052 -0.373,0.155 -0.206,0.206 -0.206,0.54 0,0.746 0.845,0.844 0.845,2.631 0,3.476 -0.206,0.206 -0.206,0.54 0,0.746 0.206,0.206 0.54,0.206 0.746,0 1.254,-1.253 1.254,-3.715 0,-4.968 -0.103,-0.103 -0.238,-0.155 -0.373,-0.155 z"
         id="path951" />
      <path
         fill="#77b255"
         d="m 23.888,23.486 h -8.575 c -1.873,0 -3.261,-0.974 -3.809,-2.671 l -2.405,-6.601 2.114,-0.771 2.419,6.641 c 0.255,0.788 0.8,1.151 1.681,1.151 h 8.575 z"
         id="path953" />
      <path
         fill="#3e721d"
         d="m 35.205,11.222 -1.962,0.609 -1.306,-4.21 1.962,-0.609 c 0.584,-0.181 1.211,0.148 1.392,0.733 l 0.647,2.084 c 0.181,0.585 -0.148,1.212 -0.733,1.393 z"
         id="path955" />
      <path
         fill="#e95f28"
         d="m 1.687,6.947 h 1.761 v 5.024 H 1.686 c -0.87,0 -1.582,-0.712 -1.582,-1.582 v -1.86 c 0,-0.87 0.712,-1.582 1.583,-1.582 z"
         id="path957" />
      <path
         fill="#3e721d"
         d="m 6.694,4.89 c 0,0.923 0.748,1.671 1.671,1.671 0.923,0 2.727,-0.748 2.727,-1.671 0,-0.923 -1.804,-1.671 -2.727,-1.671 -0.923,0 -1.671,0.748 -1.671,1.671 z"
         id="path959" />
      <path
         fill="#5c913b"
         d="m 4.869,12.905 c 0,1.166 0.945,2.111 2.659,2.111 H 22 v -2.111 z"
         id="path961" />
      <path
         fill="#77b255"
         d="m 35.279,29.382 c 0,0 -1.975,-6.154 -2.731,-8.768 C 31.792,18 31.542,16 33.625,14.467 34.76,13.632 35.056,12.623 34.829,11.568 34.452,9.816 33.545,7.492 33.109,6.643 32.92,6.274 32.623,5.885 32.036,5.715 c 0,0 -3.915,-1.737 -15.24,-1.737 -6.333,0 -14.215,0.957 -14.215,3.265 v 3.612 c 0,1.23 0.997,2.227 2.227,2.227 H 18.51 c 0.727,0 1.37,0.473 1.587,1.168 l 4.352,13.79 v 0.001 c 0.429,1.402 -0.915,1.633 -0.915,2.787 0,0.714 0.584,1.297 1.297,1.297 h 8.433 c 1.425,0 2.441,-1.383 2.015,-2.743 z"
         id="path963" />
      <path
         fill="#a6d388"
         d="m 27.499,21.008 c -0.444,0 -0.851,-0.299 -0.967,-0.749 C 25.175,15.022 22.441,11.821 18.178,10.473 12.103,8.552 4.785,10.15 4.712,10.165 4.173,10.285 3.638,9.946 3.518,9.407 3.397,8.869 3.735,8.334 4.274,8.213 4.594,8.141 12.183,6.48 18.78,8.565 c 4.905,1.55 8.165,5.316 9.688,11.191 0.139,0.535 -0.183,1.08 -0.717,1.219 -0.084,0.023 -0.169,0.033 -0.252,0.033 z"
         id="path965" />
      <circle
         fill="#f5f8fa"
         cx="29.184999"
         cy="10.67"
         r="3.3050001"
         id="circle967" />
      <circle
         fill="#ffcc4d"
         cx="29.184999"
         cy="10.67"
         r="2.2920001"
         id="circle969" />
    </g>
  </g>
  <g
     inkscape:label="Layer 5"
     id="layer5"
     inkscape:groupmode="layer">
    <path
       fill="#f19020"
       d="m 17.276,35.149 c 0,0 1.265,-0.411 1.429,-1.352 0.173,-0.972 -0.624,-1.167 -0.624,-1.167 0,0 1.041,-0.208 1.172,-1.376 0.123,-1.101 -0.861,-1.363 -0.861,-1.363 0,0 0.97,-0.4 1.016,-1.539 0.038,-0.959 -0.995,-1.428 -0.995,-1.428 0,0 5.038,-1.221 5.556,-1.341 0.516,-0.12 1.32,-0.615 1.069,-1.694 -0.249,-1.08 -1.204,-1.118 -1.697,-1.003 -0.494,0.115 -6.744,1.566 -8.9,2.068 l -1.439,0.334 c -0.54,0.127 -0.785,-0.11 -0.404,-0.512 0.508,-0.536 0.833,-1.129 0.946,-2.113 0.119,-1.035 -0.232,-2.313 -0.433,-2.809 -0.374,-0.921 -1.005,-1.649 -1.734,-1.899 -1.137,-0.39 -1.945,0.321 -1.542,1.561 0.604,1.854 0.208,3.375 -0.833,4.293 -2.449,2.157 -3.588,3.695 -2.83,6.973 0.828,3.575 4.377,5.876 7.952,5.048 z"
       id="path860"
       style="display:inline"
       transform="translate(0.13452917,0.01845543)" />
  </g>
</svg>
