<?xml version="1.0" encoding="UTF-8" standalone="no"?>
<svg
   xmlns:dc="http://purl.org/dc/elements/1.1/"
   xmlns:cc="http://creativecommons.org/ns#"
   xmlns:rdf="http://www.w3.org/1999/02/22-rdf-syntax-ns#"
   xmlns:svg="http://www.w3.org/2000/svg"
   xmlns="http://www.w3.org/2000/svg"
   xmlns:sodipodi="http://sodipodi.sourceforge.net/DTD/sodipodi-0.dtd"
   xmlns:inkscape="http://www.inkscape.org/namespaces/inkscape"
   inkscape:version="1.0 (4035a4f, 2020-05-01)"
   sodipodi:docname="thinking_exploding_head.svg"
   id="svg851"
   version="1.1"
   viewBox="0 0 36 36">
  <metadata
     id="metadata857">
    <rdf:RDF>
      <cc:Work
         rdf:about="">
        <dc:format>image/svg+xml</dc:format>
        <dc:type
           rdf:resource="http://purl.org/dc/dcmitype/StillImage" />
      </cc:Work>
    </rdf:RDF>
  </metadata>
  <defs
     id="defs855" />
  <sodipodi:namedview
     inkscape:current-layer="svg851"
     inkscape:window-maximized="1"
     inkscape:window-y="23"
     inkscape:window-x="0"
     inkscape:cy="22.862157"
     inkscape:cx="9.474645"
     inkscape:zoom="18.583333"
     showgrid="false"
     id="namedview853"
     inkscape:window-height="1035"
     inkscape:window-width="1920"
     inkscape:pageshadow="2"
     inkscape:pageopacity="0"
     guidetolerance="10"
     gridtolerance="10"
     objecttolerance="10"
     borderopacity="1"
     bordercolor="#666666"
     pagecolor="#ffffff" />
  <path
     style="stroke-width:0.845408"
     id="path833"
     d="m 32.371929,21.30597 c 0,-3.207476 -2.599628,-5.807105 -5.807105,-5.807105 -0.827654,0 -2.326562,0.488646 -2.326562,0.488646 l -11.096819,1.170045 c 0,0 -2.296973,-1.33659 -3.7054221,-1.33659 -3.208322,0 -5.8079503,2.599629 -5.8079503,5.807105 0,0.200361 0.010145,0.398186 0.029589,0.593476 C 3.971306,29.881786 10.263675,36 18,36 c 7.937532,0 14.371929,-6.434398 14.371929,-14.371929 0,-0.04396 -0.0076,-0.08539 -0.01014,-0.129347 0.0025,-0.06425 0.01014,-0.127657 0.01014,-0.192754 z"
     fill="#ffcb4c" />
  <path
     style="fill:#db9d54;fill-opacity:1;stroke-width:0.845408"
     id="path835"
     d="m 28.251413,17.190526 c -0.795529,-0.206279 -0.853016,0.326327 -1.861588,0.20797 -0.987436,-0.115821 0.36268,-0.624756 -0.164855,-0.923185 -0.177535,-0.100603 -0.432003,-0.121739 -0.745648,-0.08285 -0.88937,0.109058 -14.333042,0.459902 -14.834368,0.701688 -0.44553,0.214734 -0.7092973,0.463284 -1.1142475,0.08538 -0.5097807,-0.475119 -1.2393676,-0.201207 -1.4507194,-0.04311 -0.2722213,0.204589 -0.3288636,0.610384 0.1978253,1.079585 0.5249981,0.355072 1.414367,0.726206 2.9293376,0.979827 0.166545,0.0279 0.308573,0.03889 0.441302,0.04396 1.037316,0.03466 1.181035,-1.411831 2.646126,-1.45072 0.960383,-0.02536 9.428832,0.904586 10.126292,0.809901 0.08539,-0.01183 0.175,-0.02029 0.27814,-0.02029 1.321372,0 1.628255,1.225841 3.034168,0.267148 0.596012,-0.484418 1.531033,-1.393231 0.518235,-1.655307 z"
     fill="#f19020" />
  <path
     style="fill:#e07f4c;fill-opacity:1;stroke-width:0.845408"
     id="path837"
     d="m 7.8026933,13.271216 c 1.2875558,1.290938 2.2014417,2.658807 2.8422607,3.823779 0.478501,0.869925 0.808209,1.630791 1.003498,2.145645 1.037316,0.03466 1.181035,-0.566424 2.646126,-0.605312 0.960383,-0.02536 1.507363,0.650118 2.217504,1.039006 1.269803,0.694925 2.171852,-0.617148 3.144072,-0.617148 0.718596,0 1.875959,1.020407 2.685014,0.645891 1.17258,-0.543596 1.382242,-1.00688 2.079702,-1.102411 0.272222,-0.668717 0.626448,-1.433811 1.058452,-2.205668 0.6256,-1.119321 1.418593,-2.253012 2.401802,-3.122091 H 7.8026933 Z"
     fill="#f36c24" />
  <path
     style="fill:#b2643b;fill-opacity:1;stroke-width:0.845408"
     id="path839"
     d="m 27.558178,13.541746 c 1.082968,-1.067749 -19.4773456,0.01353 -18.8872511,0.666182 0.8352628,0.924876 1.8598971,2.66557 1.8598971,2.66557 0,0 4.021604,2.033206 7.059998,-0.529225 2.11352,1.268112 5.072446,0.8192 6.392973,-1.360261 0,0 1.028861,0.38297 2.072094,0.448912 0,0 0.805673,-1.204706 1.502289,-1.891178 z"
     fill="#ce5c1f" />
  <ellipse
     style="stroke-width:0.845408"
     id="ellipse841"
     ry="4.1847677"
     rx="3.6623056"
     cy="29.77611"
     cx="18"
     fill="#65471b" />
  <path
     style="stroke-width:0.845408"
     id="path843"
     d="m 14.61837,22.985795 c 0,1.245285 -0.757486,2.254702 -1.690816,2.254702 -0.934175,0 -1.690815,-1.009417 -1.690815,-2.254702 0,-1.245285 0.75664,-2.254702 1.690815,-2.254702 0.93333,0 1.690816,1.009417 1.690816,2.254702 z m 10.144891,-8.45e-4 c 0,1.245285 -0.75664,2.254702 -1.690815,2.254702 -0.934176,0 -1.690816,-1.009417 -1.690816,-2.254702 0,-1.24444 0.757486,-2.254703 1.690816,-2.254703 0.934175,8.46e-4 1.690815,1.010263 1.690815,2.254703 z"
     fill="#65471b" />
  <path
     style="stroke-width:0.845408"
     id="path845"
     d="m 29.095975,8.7144693 c -0.202898,0 -0.394806,0.038044 -0.57995,0.092149 -0.58164,-0.7143694 -1.456637,-1.1801891 -2.449991,-1.1801891 -0.07355,0 -0.142874,0.016908 -0.215578,0.021981 -0.62053,-0.6991521 -1.516662,-1.1489089 -2.525233,-1.1489089 -1.272339,0 -2.367142,0.709297 -2.947091,1.7466121 -0.292511,-0.6746351 -0.96292,-1.1472179 -1.744922,-1.1472179 -0.607003,0 -1.140455,0.2891293 -1.488762,0.7312775 -0.429468,-1.2427491 -1.59613,-2.1405721 -2.984289,-2.1405721 -1.118474,0 -2.096611,0.5824859 -2.661344,1.4566374 -0.155555,-0.024517 -0.311109,-0.049034 -0.473428,-0.049034 -1.2106235,0 -2.2496295,0.686471 -2.7839271,1.684052 -0.1716177,-0.032125 -0.3466171,-0.053261 -0.5275344,-0.053261 -1.5758398,0 -2.8532507,1.2774117 -2.8532507,2.8532507 0,1.57584 1.2774109,2.853251 2.8532507,2.853251 0.4970997,0 0.9595377,-0.13442 1.3644879,-0.359298 0.3178733,0.238405 0.7084516,0.385506 1.1370736,0.385506 0.122584,0 0.240941,-0.01352 0.356762,-0.03636 0.722823,1.165817 2.001079,1.946973 3.47378,1.946973 1.444801,0 2.710377,-0.748185 3.443345,-1.874268 0.608693,0.745649 1.523425,1.231758 2.560739,1.231758 1.534415,0 2.812672,-1.046614 3.192259,-2.460981 0.02874,8.46e-4 0.05495,0.0085 0.0837,0.0085 0.23925,0 0.472582,-0.0262 0.698307,-0.07355 0.552896,0.470047 1.260502,0.764248 2.04335,0.764248 0.992509,0 1.868351,-0.465819 2.449146,-1.180189 0.185144,0.05411 0.377052,0.09215 0.57995,0.09215 1.149753,0 2.082238,-0.932485 2.082238,-2.08224 0,-1.1497543 -0.93333,-2.0822389 -2.083084,-2.0822389 z"
     fill="#ccd6dd" />
  <circle
     style="stroke-width:0.845408"
     id="circle847"
     r="1.7931095"
     cy="10.440792"
     cx="26.280767"
     fill="#e1e8ed" />
  <path
     style="stroke-width:0.845408"
     id="path849"
     d="m 19.585985,10.555767 c 0,-1.0085712 -0.81751,-1.8269258 -1.826081,-1.8269258 -0.31111,0 -0.600239,0.085386 -0.856398,0.2223422 -0.212197,-0.50809 -0.713523,-0.8656973 -1.299391,-0.8656973 -0.479346,0 -0.90205,0.2409411 -1.156518,0.6070026 -0.566423,-0.5266889 -1.319682,-0.8563979 -2.154098,-0.8563979 -1.483691,0 -2.7188313,1.0229432 -3.064603,2.3992672 C 8.9203222,9.925093 8.4933914,9.7323401 8.0208085,9.7323401 c -0.9392478,0 -1.7009602,0.7617119 -1.7009602,1.7009599 0,0.939248 0.7617124,1.700961 1.7009602,1.700961 0.5943216,0 1.1150926,-0.305193 1.4194394,-0.766786 0.4370758,0.913886 1.2926281,1.583449 2.3240251,1.757603 0.32971,0.566423 0.935867,0.951083 1.6384,0.951083 0.907968,0 1.664608,-0.637437 1.853979,-1.487916 0.273913,0.152173 0.584177,0.246858 0.918958,0.246858 0.904587,0 1.65869,-0.63321 1.851443,-1.479463 0.880915,-0.131038 1.558932,-0.882606 1.558932,-1.799873 z"
     fill="#e1e8ed" />
  <path
     style="fill:#f19020;fill-opacity:1;stroke-width:0.548776"
     id="path878"
     d="m 15.793017,20.743198 c 0,0 0.694201,-0.225547 0.784201,-0.741945 0.09494,-0.53341 -0.342436,-0.640421 -0.342436,-0.640421 0,0 0.571275,-0.114146 0.643165,-0.755116 0.0675,-0.604202 -0.472496,-0.747981 -0.472496,-0.747981 0,0 0.532312,-0.219511 0.557556,-0.844566 0.02085,-0.526276 -0.546032,-0.783652 -0.546032,-0.783652 0,0 2.764733,-0.670055 3.048998,-0.735908 0.283169,-0.06585 0.724384,-0.337498 0.586642,-0.929627 -0.136645,-0.592678 -0.660726,-0.613531 -0.931273,-0.550422 -0.271095,0.06311 -3.700944,0.859383 -4.884104,1.134869 L 13.44755,15.33172 c -0.296339,0.06969 -0.430789,-0.06037 -0.221706,-0.280974 0.278778,-0.294143 0.45713,-0.619567 0.519142,-1.159563 0.0653,-0.567983 -0.127316,-1.269318 -0.23762,-1.541511 -0.205242,-0.505422 -0.55152,-0.904931 -0.951577,-1.042125 -0.623958,-0.214023 -1.067369,0.176157 -0.846212,0.856639 0.33146,1.01743 0.114145,1.852118 -0.457131,2.355894 -1.3439521,1.18371 -1.9690071,2.027727 -1.5530351,3.826614 0.4543861,1.961873 2.4019921,3.224606 4.3638651,2.77022 z"
     fill="#f19020" />
  <g
     transform="matrix(1.1262024,0,0,1.1262024,-3.1593737,0)"
     id="g1560">
    <path
       fill="#65471b"
       d="M 16.166194,9.339132 C 16.086622,9.275474 16.02461,9.1887675 15.994976,9.0845001 15.92144,8.8320632 16.066317,8.5807239 16.318754,8.5242 18.803611,7.9638999 20.476828,9.2721814 20.54762,9.3281565 20.75835,9.4960819 20.799508,9.791872 20.64256,9.9894313 20.48561,10.185893 20.188174,10.20949 19.977993,10.042663 19.917623,9.9965653 18.593431,8.9873679 16.585461,9.440108 16.435096,9.473583 16.281439,9.431328 16.166196,9.3391332 Z"
       id="path872"
       style="stroke-width:0.548776" />
    <ellipse
       fill="#65471b"
       cx="15.395164"
       cy="3.9271049"
       rx="1.1661485"
       ry="1.4575485"
       id="ellipse874"
       style="stroke-width:0.548776" />
    <ellipse
       fill="#65471b"
       cx="21.572184"
       cy="4.5099049"
       rx="1.1661485"
       ry="1.4575485"
       id="ellipse876"
       style="stroke-width:0.548776" />
    <path
       fill="#65471b"
       d="m 13.297194,1.2803595 c -0.09,-0.048292 -0.166279,-0.1229258 -0.214571,-0.2189615 -0.118535,-0.23487609 -0.02195,-0.50871521 0.215669,-0.61023873 2.341078,-1.00480847 4.225025,-0.0235974 4.304048,0.0186584 0.23762,0.12676721 0.333656,0.40993552 0.214572,0.63328723 -0.118536,0.2222542 -0.406094,0.2996316 -0.643714,0.1745107 -0.0675,-0.034573 -1.554133,-0.7858469 -3.445215,0.025792 -0.141035,0.059816 -0.30018,0.046646 -0.430789,-0.023048 z m 6.659394,2.0579092 c -0.08561,-0.05378 -0.156949,-0.1333525 -0.198656,-0.2326809 -0.102621,-0.2425589 0.01262,-0.5087152 0.256827,-0.594873 2.404186,-0.8429196 4.217342,0.2634124 4.293073,0.3111559 0.227742,0.1426817 0.30457,0.4318865 0.171218,0.6464579 -0.132804,0.2140226 -0.42585,0.271644 -0.653592,0.1306086 -0.06585,-0.039512 -1.496512,-0.8895656 -3.439178,-0.207986 -0.145974,0.049939 -0.303473,0.025244 -0.429692,-0.052682 z"
       id="path880"
       style="stroke-width:0.548776" />
  </g>
</svg>
