<?xml version="1.0" encoding="UTF-8" standalone="no"?>
<svg
   xmlns:dc="http://purl.org/dc/elements/1.1/"
   xmlns:cc="http://creativecommons.org/ns#"
   xmlns:rdf="http://www.w3.org/1999/02/22-rdf-syntax-ns#"
   xmlns:svg="http://www.w3.org/2000/svg"
   xmlns="http://www.w3.org/2000/svg"
   xmlns:sodipodi="http://sodipodi.sourceforge.net/DTD/sodipodi-0.dtd"
   xmlns:inkscape="http://www.inkscape.org/namespaces/inkscape"
   inkscape:export-ydpi="682.07001"
   inkscape:export-xdpi="682.07001"
   inkscape:export-filename="/Users/JP25309/personal/custom-emoji/thinking_bomb.png"
   inkscape:version="1.0 (4035a4f, 2020-05-01)"
   sodipodi:docname="thinking_bomb.svg"
   id="svg1029"
   version="1.1"
   viewBox="0 0 36 36">
  <metadata
     id="metadata1035">
    <rdf:RDF>
      <cc:Work
         rdf:about="">
        <dc:format>image/svg+xml</dc:format>
        <dc:type
           rdf:resource="http://purl.org/dc/dcmitype/StillImage" />
      </cc:Work>
    </rdf:RDF>
  </metadata>
  <defs
     id="defs1033" />
  <sodipodi:namedview
     inkscape:current-layer="layer5"
     inkscape:window-maximized="1"
     inkscape:window-y="23"
     inkscape:window-x="0"
     inkscape:cy="41.705702"
     inkscape:cx="18.93721"
     inkscape:zoom="6.5702005"
     showgrid="false"
     id="namedview1031"
     inkscape:window-height="1035"
     inkscape:window-width="1920"
     inkscape:pageshadow="2"
     inkscape:pageopacity="0"
     guidetolerance="10"
     gridtolerance="10"
     objecttolerance="10"
     borderopacity="1"
     bordercolor="#666666"
     pagecolor="#ffffff" />
  <g
     inkscape:label="Layer 2"
     id="layer6"
     inkscape:groupmode="layer">
    <g
       transform="rotate(10.572461,32.269256,3.9912932)"
       id="g1652">
      <path
         fill="#31373d"
         d="M 19,11.342 24.658,5.685 30.315,11.343 24.657,17 Z"
         id="path1023" />
      <g
         id="g1643"
         transform="matrix(1.0629496,0,0,1.0629496,-2.2661871,0)">
        <path
           style="stroke-width:0.831091"
           id="path1019"
           d="M 26.18232,8.0258475 30.884634,3.326858 32.675635,5.1195217 27.973321,9.8193423 Z"
           fill="#ccd6dd" />
        <circle
           style="stroke-width:0.831091"
           id="circle1021"
           r="11.635277"
           cy="18.284006"
           cx="17.715994"
           fill="#31373d" />
        <circle
           style="stroke-width:0.831091"
           id="circle1025"
           r="3.3243647"
           cy="3.3243647"
           cx="32.675636"
           fill="#f18f26" />
        <circle
           style="stroke-width:0.831091"
           id="circle1027"
           r="1.6621823"
           cy="3.3243647"
           cx="32.675636"
           fill="#fdcb58" />
      </g>
    </g>
  </g>
  <g
     style="display:inline"
     inkscape:label="Layer 1"
     id="layer5"
     inkscape:groupmode="layer">
    <g
       transform="matrix(0.88203046,0,0,0.88203046,-1.8850256,3.7863325)"
       id="g1624">
      <path
         style="fill:#e7e7e7;fill-opacity:1"
         fill="#65471b"
         d="m 14.524,21.036 c -0.145,-0.116 -0.258,-0.274 -0.312,-0.464 -0.134,-0.46 0.13,-0.918 0.59,-1.021 4.528,-1.021 7.577,1.363 7.706,1.465 0.384,0.306 0.459,0.845 0.173,1.205 -0.286,0.358 -0.828,0.401 -1.211,0.097 -0.11,-0.084 -2.523,-1.923 -6.182,-1.098 -0.274,0.061 -0.554,-0.016 -0.764,-0.184 z"
         id="path1600" />
      <ellipse
         style="fill:#e7e7e7;fill-opacity:1"
         fill="#65471b"
         cx="13.119"
         cy="11.174"
         rx="2.125"
         ry="2.6559999"
         id="ellipse1602" />
      <ellipse
         style="fill:#e7e7e7;fill-opacity:1"
         fill="#65471b"
         cx="24.375"
         cy="12.236"
         rx="2.125"
         ry="2.6559999"
         id="ellipse1604" />
      <path
         fill="#f19020"
         d="m 17.276,35.149 c 0,0 1.265,-0.411 1.429,-1.352 0.173,-0.972 -0.624,-1.167 -0.624,-1.167 0,0 1.041,-0.208 1.172,-1.376 0.123,-1.101 -0.861,-1.363 -0.861,-1.363 0,0 0.97,-0.4 1.016,-1.539 0.038,-0.959 -0.995,-1.428 -0.995,-1.428 0,0 5.038,-1.221 5.556,-1.341 0.516,-0.12 1.32,-0.615 1.069,-1.694 -0.249,-1.08 -1.204,-1.118 -1.697,-1.003 -0.494,0.115 -6.744,1.566 -8.9,2.068 l -1.439,0.334 c -0.54,0.127 -0.785,-0.11 -0.404,-0.512 0.508,-0.536 0.833,-1.129 0.946,-2.113 0.119,-1.035 -0.232,-2.313 -0.433,-2.809 -0.374,-0.921 -1.005,-1.649 -1.734,-1.899 -1.137,-0.39 -1.945,0.321 -1.542,1.561 0.604,1.854 0.208,3.375 -0.833,4.293 -2.449,2.157 -3.588,3.695 -2.83,6.973 0.828,3.575 4.377,5.876 7.952,5.048 z"
         id="path1606" />
      <path
         style="fill:#e7e7e7;fill-opacity:1"
         fill="#65471b"
         d="M 9.296,6.351 C 9.132,6.263 8.993,6.127 8.905,5.952 8.689,5.524 8.865,5.025 9.298,4.84 c 4.266,-1.831 7.699,-0.043 7.843,0.034 0.433,0.231 0.608,0.747 0.391,1.154 -0.216,0.405 -0.74,0.546 -1.173,0.318 C 16.236,6.283 13.527,4.914 10.081,6.393 9.824,6.502 9.534,6.478 9.296,6.351 Z m 12.135,3.75 C 21.275,10.003 21.145,9.858 21.069,9.677 20.882,9.235 21.092,8.75 21.537,8.593 c 4.381,-1.536 7.685,0.48 7.823,0.567 0.415,0.26 0.555,0.787 0.312,1.178 -0.242,0.39 -0.776,0.495 -1.191,0.238 -0.12,-0.072 -2.727,-1.621 -6.267,-0.379 -0.266,0.091 -0.553,0.046 -0.783,-0.096 z"
         id="path1608" />
    </g>
  </g>
</svg>
