<?xml version="1.0" encoding="UTF-8" standalone="no"?>
<svg
   xmlns:dc="http://purl.org/dc/elements/1.1/"
   xmlns:cc="http://creativecommons.org/ns#"
   xmlns:rdf="http://www.w3.org/1999/02/22-rdf-syntax-ns#"
   xmlns:svg="http://www.w3.org/2000/svg"
   xmlns="http://www.w3.org/2000/svg"
   xmlns:sodipodi="http://sodipodi.sourceforge.net/DTD/sodipodi-0.dtd"
   xmlns:inkscape="http://www.inkscape.org/namespaces/inkscape"
   inkscape:export-ydpi="682.66998"
   inkscape:export-xdpi="682.66998"
   inkscape:export-filename="/Users/JP25309/personal/custom-emoji/emojis/thinking_looking_back_face.png"
   inkscape:version="1.0 (4035a4f, 2020-05-01)"
   sodipodi:docname="thinking_looking_back_face.svg"
   id="svg845"
   version="1.1"
   viewBox="0 0 36 36">
  <metadata
     id="metadata851">
    <rdf:RDF>
      <cc:Work
         rdf:about="">
        <dc:format>image/svg+xml</dc:format>
        <dc:type
           rdf:resource="http://purl.org/dc/dcmitype/StillImage" />
      </cc:Work>
    </rdf:RDF>
  </metadata>
  <defs
     id="defs849" />
  <sodipodi:namedview
     inkscape:current-layer="svg845"
     inkscape:window-maximized="1"
     inkscape:window-y="23"
     inkscape:window-x="0"
     inkscape:cy="42.9"
     inkscape:cx="-25.811801"
     inkscape:zoom="3.2851003"
     showgrid="false"
     id="namedview847"
     inkscape:window-height="1035"
     inkscape:window-width="1920"
     inkscape:pageshadow="2"
     inkscape:pageopacity="0"
     guidetolerance="10"
     gridtolerance="10"
     objecttolerance="10"
     borderopacity="1"
     bordercolor="#666666"
     pagecolor="#ffffff" />
  <circle
     id="circle833"
     r="17"
     cy="17.018"
     cx="18"
     fill="#FFCB4C" />
  <path
     style="fill:#65471b;fill-opacity:1"
     id="path835"
     d="m 16.578732,21.036 c -0.145,-0.116 -0.258,-0.274 -0.312,-0.464 -0.134,-0.46 0.13,-0.918 0.59,-1.021 4.528,-1.021 7.577,1.363 7.706,1.465 0.384,0.306 0.459,0.845 0.173,1.205 -0.286,0.358 -0.828,0.401 -1.211,0.097 -0.11,-0.084 -2.523,-1.923 -6.182,-1.098 -0.274,0.061 -0.554,-0.016 -0.764,-0.184 z"
     fill="#65471b" />
  <ellipse
     style="fill:#65471b;fill-opacity:1"
     id="ellipse837"
     ry="2.6559999"
     rx="2.125"
     cy="11.174"
     cx="15.687976"
     fill="#65471B" />
  <ellipse
     style="fill:#65471b;fill-opacity:1"
     id="ellipse839"
     ry="2.6559999"
     rx="2.125"
     cy="12.236"
     cx="27.628883"
     fill="#65471B" />
  <path
     id="path841"
     d="M17.276 35.149s1.265-.411 1.429-1.352c.173-.972-.624-1.167-.624-1.167s1.041-.208 1.172-1.376c.123-1.101-.861-1.363-.861-1.363s.97-.4 1.016-1.539c.038-.959-.995-1.428-.995-1.428s5.038-1.221 5.556-1.341c.516-.12 1.32-.615 1.069-1.694-.249-1.08-1.204-1.118-1.697-1.003-.494.115-6.744 1.566-8.9 2.068l-1.439.334c-.54.127-.785-.11-.404-.512.508-.536.833-1.129.946-2.113.119-1.035-.232-2.313-.433-2.809-.374-.921-1.005-1.649-1.734-1.899-1.137-.39-1.945.321-1.542 1.561.604 1.854.208 3.375-.833 4.293-2.449 2.157-3.588 3.695-2.83 6.973.828 3.575 4.377 5.876 7.952 5.048l3.152-.681z"
     fill="#F19020" />
  <path
     id="path843"
     d="m 9.296,4.9811787 c -0.164,-0.088 -0.303,-0.224 -0.391,-0.399 -0.216,-0.428 -0.04,-0.927 0.393,-1.112 4.266,-1.831 7.699,-0.043 7.843,0.034 0.433,0.231 0.608,0.747 0.391,1.154 -0.216,0.405 -0.74,0.546 -1.173,0.318 -0.123,-0.063 -2.832,-1.432 -6.278,0.047 -0.257,0.109 -0.547,0.085 -0.785,-0.042 z m 12.135,3.75 c -0.156,-0.098 -0.286,-0.243 -0.362,-0.424 -0.187,-0.442 0.023,-0.927 0.468,-1.084 4.381,-1.536 7.685,0.48 7.823,0.567 0.415,0.26 0.555,0.787 0.312,1.178 -0.242,0.39 -0.776,0.495 -1.191,0.238 -0.12,-0.072 -2.727,-1.621 -6.267,-0.379 -0.266,0.091 -0.553,0.046 -0.783,-0.096 z"
     fill="#65471b" />
</svg>
