<?xml version="1.0" encoding="UTF-8" standalone="no"?>
<svg
   xmlns:dc="http://purl.org/dc/elements/1.1/"
   xmlns:cc="http://creativecommons.org/ns#"
   xmlns:rdf="http://www.w3.org/1999/02/22-rdf-syntax-ns#"
   xmlns:svg="http://www.w3.org/2000/svg"
   xmlns="http://www.w3.org/2000/svg"
   xmlns:sodipodi="http://sodipodi.sourceforge.net/DTD/sodipodi-0.dtd"
   xmlns:inkscape="http://www.inkscape.org/namespaces/inkscape"
   inkscape:version="1.0 (4035a4f, 2020-05-01)"
   sodipodi:docname="thinking_bulb.svg"
   id="svg843"
   version="1.1"
   viewBox="0 0 36 36">
  <metadata
     id="metadata849">
    <rdf:RDF>
      <cc:Work
         rdf:about="">
        <dc:format>image/svg+xml</dc:format>
        <dc:type
           rdf:resource="http://purl.org/dc/dcmitype/StillImage" />
      </cc:Work>
    </rdf:RDF>
  </metadata>
  <defs
     id="defs847" />
  <sodipodi:namedview
     inkscape:current-layer="layer2"
     inkscape:window-maximized="1"
     inkscape:window-y="23"
     inkscape:window-x="0"
     inkscape:cy="13.54218"
     inkscape:cx="22.05039"
     inkscape:zoom="13.140401"
     showgrid="false"
     id="namedview845"
     inkscape:window-height="1035"
     inkscape:window-width="1920"
     inkscape:pageshadow="2"
     inkscape:pageopacity="0"
     guidetolerance="10"
     gridtolerance="10"
     objecttolerance="10"
     borderopacity="1"
     bordercolor="#666666"
     pagecolor="#ffffff" />
  <g
     style="display:inline"
     inkscape:label="Layer 1"
     id="layer1"
     inkscape:groupmode="layer">
    <path
       id="path833"
       d="m 29,11.06 c 0,6.439 -5,7.439 -5,13.44 0,3.098 -3.123,3.359 -5.5,3.359 -2.053,0 -6.586,-0.779 -6.586,-3.361 C 11.914,18.5 7,17.5 7,11.06 7,5.029 12.285,0.14 18.083,0.14 23.883,0.14 29,5.029 29,11.06 Z"
       fill="#ffd983" />
    <path
       id="path835"
       d="m 22.167,32.5 c 0,0.828 -2.234,2.5 -4.167,2.5 -1.933,0 -4.167,-1.672 -4.167,-2.5 0,-0.828 2.233,-0.5 4.167,-0.5 1.933,0 4.167,-0.328 4.167,0.5 z"
       fill="#ccd6dd" />
    <path
       id="path837"
       d="m 22.707,10.293 c -0.391,-0.391 -1.023,-0.391 -1.414,0 L 18,13.586 14.707,10.293 c -0.391,-0.391 -1.023,-0.391 -1.414,0 -0.391,0.391 -0.391,1.023 0,1.414 L 17,15.414 V 26 c 0,0.553 0.448,1 1,1 0.552,0 1,-0.447 1,-1 V 15.414 l 3.707,-3.707 c 0.391,-0.391 0.391,-1.023 0,-1.414 z"
       fill="#ffcc4d" />
    <path
       id="path839"
       d="m 24,31 c 0,1.104 -0.896,2 -2,2 h -8 c -1.104,0 -2,-0.896 -2,-2 v -6 h 12 z"
       fill="#99aab5" />
    <path
       id="path841"
       d="m 11.999,32 c -0.48,0 -0.904,-0.347 -0.985,-0.836 -0.091,-0.544 0.277,-1.06 0.822,-1.15 l 12,-2 c 0.544,-0.098 1.06,0.277 1.15,0.822 0.091,0.544 -0.277,1.06 -0.822,1.15 l -12,2 C 12.109,31.996 12.053,32 11.999,32 Z m 0,-4 c -0.48,0 -0.904,-0.347 -0.985,-0.836 -0.091,-0.544 0.277,-1.06 0.822,-1.15 l 12,-2 c 0.544,-0.097 1.06,0.277 1.15,0.822 0.091,0.544 -0.277,1.06 -0.822,1.15 l -12,2 C 12.109,27.996 12.053,28 11.999,28 Z"
       fill="#ccd6dd" />
  </g>
  <g
     style="display:inline"
     inkscape:label="Layer 2"
     id="layer2"
     inkscape:groupmode="layer">
    <g
       transform="matrix(0.77665542,0,0,0.77665542,3.7649205,0.91881775)"
       id="g884">
      <path
         fill="#65471b"
         d="m 14.524,21.036 c -0.145,-0.116 -0.258,-0.274 -0.312,-0.464 -0.134,-0.46 0.13,-0.918 0.59,-1.021 4.528,-1.021 7.577,1.363 7.706,1.465 0.384,0.306 0.459,0.845 0.173,1.205 -0.286,0.358 -0.828,0.401 -1.211,0.097 -0.11,-0.084 -2.523,-1.923 -6.182,-1.098 -0.274,0.061 -0.554,-0.016 -0.764,-0.184 z"
         id="path860" />
      <ellipse
         fill="#65471b"
         cx="13.119"
         cy="11.174"
         rx="2.125"
         ry="2.6559999"
         id="ellipse862" />
      <ellipse
         fill="#65471b"
         cx="24.375"
         cy="12.236"
         rx="2.125"
         ry="2.6559999"
         id="ellipse864" />
      <path
         fill="#f19020"
         d="m 17.276,35.149 c 0,0 1.265,-0.411 1.429,-1.352 0.173,-0.972 -0.624,-1.167 -0.624,-1.167 0,0 1.041,-0.208 1.172,-1.376 0.123,-1.101 -0.861,-1.363 -0.861,-1.363 0,0 0.97,-0.4 1.016,-1.539 0.038,-0.959 -0.995,-1.428 -0.995,-1.428 0,0 5.038,-1.221 5.556,-1.341 0.516,-0.12 1.32,-0.615 1.069,-1.694 -0.249,-1.08 -1.204,-1.118 -1.697,-1.003 -0.494,0.115 -6.744,1.566 -8.9,2.068 l -1.439,0.334 c -0.54,0.127 -0.785,-0.11 -0.404,-0.512 0.508,-0.536 0.833,-1.129 0.946,-2.113 0.119,-1.035 -0.232,-2.313 -0.433,-2.809 -0.374,-0.921 -1.005,-1.649 -1.734,-1.899 -1.137,-0.39 -1.945,0.321 -1.542,1.561 0.604,1.854 0.208,3.375 -0.833,4.293 -2.449,2.157 -3.588,3.695 -2.83,6.973 0.828,3.575 4.377,5.876 7.952,5.048 z"
         id="path866" />
      <path
         fill="#65471b"
         d="M 9.296,6.351 C 9.132,6.263 8.993,6.127 8.905,5.952 8.689,5.524 8.865,5.025 9.298,4.84 c 4.266,-1.831 7.699,-0.043 7.843,0.034 0.433,0.231 0.608,0.747 0.391,1.154 -0.216,0.405 -0.74,0.546 -1.173,0.318 C 16.236,6.283 13.527,4.914 10.081,6.393 9.824,6.502 9.534,6.478 9.296,6.351 Z m 12.135,3.75 C 21.275,10.003 21.145,9.858 21.069,9.677 20.882,9.235 21.092,8.75 21.537,8.593 c 4.381,-1.536 7.685,0.48 7.823,0.567 0.415,0.26 0.555,0.787 0.312,1.178 -0.242,0.39 -0.776,0.495 -1.191,0.238 -0.12,-0.072 -2.727,-1.621 -6.267,-0.379 -0.266,0.091 -0.553,0.046 -0.783,-0.096 z"
         id="path868" />
    </g>
  </g>
</svg>
