<?xml version="1.0" encoding="UTF-8" standalone="no"?>
<svg
   xmlns:dc="http://purl.org/dc/elements/1.1/"
   xmlns:cc="http://creativecommons.org/ns#"
   xmlns:rdf="http://www.w3.org/1999/02/22-rdf-syntax-ns#"
   xmlns:svg="http://www.w3.org/2000/svg"
   xmlns="http://www.w3.org/2000/svg"
   xmlns:sodipodi="http://sodipodi.sourceforge.net/DTD/sodipodi-0.dtd"
   xmlns:inkscape="http://www.inkscape.org/namespaces/inkscape"
   inkscape:export-ydpi="682.66998"
   inkscape:export-xdpi="682.66998"
   inkscape:export-filename="/Users/JP25309/personal/custom-emoji/emojis/thinking_money_face.png"
   inkscape:version="1.0 (4035a4f, 2020-05-01)"
   sodipodi:docname="thinking_money_face.svg"
   id="svg891"
   version="1.1"
   viewBox="0 0 36 36">
  <metadata
     id="metadata897">
    <rdf:RDF>
      <cc:Work
         rdf:about="">
        <dc:format>image/svg+xml</dc:format>
        <dc:type
           rdf:resource="http://purl.org/dc/dcmitype/StillImage" />
      </cc:Work>
    </rdf:RDF>
  </metadata>
  <defs
     id="defs895" />
  <sodipodi:namedview
     inkscape:current-layer="svg891"
     inkscape:window-maximized="1"
     inkscape:window-y="23"
     inkscape:window-x="0"
     inkscape:cy="7.6621622"
     inkscape:cx="0.55949262"
     inkscape:zoom="9.2916667"
     showgrid="false"
     id="namedview893"
     inkscape:window-height="1035"
     inkscape:window-width="1920"
     inkscape:pageshadow="2"
     inkscape:pageopacity="0"
     guidetolerance="10"
     gridtolerance="10"
     objecttolerance="10"
     borderopacity="1"
     bordercolor="#666666"
     pagecolor="#ffffff" />
  <circle
     id="circle879"
     r="17"
     cy="17.018"
     cx="18"
     fill="#FFCB4C" />
  <path
     id="path881"
     d="M14.524 21.036c-.145-.116-.258-.274-.312-.464-.134-.46.13-.918.59-1.021 4.528-1.021 7.577 1.363 7.706 1.465.384.306.459.845.173 1.205-.286.358-.828.401-1.211.097-.11-.084-2.523-1.923-6.182-1.098-.274.061-.554-.016-.764-.184z"
     fill="#65471B" />
  <path
     id="path889"
     d="m 9.2198988,4.4660078 c -0.164,-0.088 -0.303,-0.224 -0.391,-0.399 -0.216,-0.428 -0.04,-0.927 0.393,-1.112 4.2660002,-1.8309999 7.6990002,-0.043 7.8430002,0.034 0.433,0.231 0.608,0.747 0.391,1.154 -0.216,0.405 -0.74,0.546 -1.173,0.318 -0.123,-0.063 -2.832,-1.432 -6.278,0.047 -0.2570002,0.109 -0.5470002,0.085 -0.7850002,-0.042 z m 12.1350002,3.75 c -0.156,-0.098 -0.286,-0.243 -0.362,-0.424 -0.187,-0.442 0.023,-0.927 0.468,-1.084 4.381,-1.536 7.685,0.48 7.823,0.567 0.415,0.26 0.555,0.787 0.312,1.178 -0.242,0.39 -0.776,0.495 -1.191,0.238 -0.12,-0.072 -2.727,-1.621 -6.267,-0.379 -0.266,0.091 -0.553,0.046 -0.783,-0.096 z"
     fill="#65471b" />
  <path
     id="path1492"
     d="m 26.986467,13.242456 c 0,-1.096486 -1.105077,-1.522898 -1.993044,-1.865745 -0.590416,-0.228044 -1.148031,-0.443593 -1.148031,-0.755982 0,-0.514661 0.690381,-0.541214 0.828613,-0.541214 0.488108,0 0.73021,0.182747 0.944978,0.344409 0.164785,0.124174 0.334256,0.252254 0.57011,0.252254 0.44125,0 0.64196,-0.310046 0.64196,-0.598225 0,-0.5755782 -0.704438,-0.9809033 -1.451048,-1.1511555 V 8.620656 c 0,-0.4045442 -0.329571,-0.733334 -0.733334,-0.733334 -0.404544,0 -0.734115,0.3287898 -0.734115,0.733334 v 0.3326946 c -0.892652,0.2600641 -1.440896,0.9168631 -1.440896,1.7454754 0,1.023856 1.009799,1.44402 1.900889,1.814201 0.638056,0.265531 1.240967,0.516224 1.240967,0.907491 0,0.285837 -0.358467,0.595102 -0.93873,0.595102 -0.58573,0 -0.921549,-0.234292 -1.217537,-0.440469 -0.205396,-0.142918 -0.399078,-0.278026 -0.629465,-0.278026 -0.336599,0 -0.599006,0.282712 -0.599006,0.643522 0,0.53028 0.727086,1.058999 1.683778,1.244871 v 0.367058 c 0,0.403763 0.330352,0.732552 0.734896,0.732552 0.404544,0 0.732553,-0.328789 0.732553,-0.732552 l -0.0023,-0.388925 c 1.01136,-0.247569 1.608805,-0.955131 1.608805,-1.921195 z"
     style="stroke-width:0.780973;fill:#65471b;fill-opacity:1" />
  <path
     id="path1466"
     d="m 12.270231,9.7653102 c -0.590416,-0.228045 -1.148812,-0.443593 -1.148812,-0.755983 0,-0.514661 0.69038,-0.541214 0.828612,-0.541214 0.488109,0 0.730991,0.182748 0.944978,0.344409 0.164005,0.124175 0.334257,0.252255 0.570892,0.252255 0.440469,0 0.641179,-0.310047 0.641179,-0.598226 0,-0.5747967 -0.704438,-0.9809029 -1.451049,-1.151155 V 7.0084736 c 0,-0.4045441 -0.328789,-0.7333339 -0.733334,-0.7333339 -0.404544,0 -0.733334,0.3287898 -0.733334,0.7333339 v 0.3326947 c -0.893433,0.2600641 -1.4408955,0.916863 -1.4408955,1.7454759 0,1.0238558 1.0097985,1.4440188 1.9008895,1.8142008 0.638055,0.265531 1.240966,0.516223 1.240966,0.907491 0,0.285836 -0.359247,0.595101 -0.939511,0.595101 -0.58573,0 -0.921548,-0.234291 -1.218318,-0.440468 -0.204615,-0.142919 -0.398296,-0.278027 -0.629465,-0.278027 -0.3358182,0 -0.5982252,0.282712 -0.5982252,0.643522 0,0.530281 0.7270862,1.059 1.6845592,1.244872 v 0.367057 c 0,0.404544 0.32879,0.732553 0.733334,0.732553 0.404545,0 0.733334,-0.32879 0.733334,-0.732553 l -0.0039,-0.388925 c 1.012142,-0.246006 1.610367,-0.954349 1.610367,-1.920413 7.81e-4,-1.096487 -1.104296,-1.522898 -1.992262,-1.8657448 z"
     style="fill:#65471b;fill-opacity:1;stroke-width:0.780973" />
  <path
     id="path887"
     d="M17.276 35.149s1.265-.411 1.429-1.352c.173-.972-.624-1.167-.624-1.167s1.041-.208 1.172-1.376c.123-1.101-.861-1.363-.861-1.363s.97-.4 1.016-1.539c.038-.959-.995-1.428-.995-1.428s5.038-1.221 5.556-1.341c.516-.12 1.32-.615 1.069-1.694-.249-1.08-1.204-1.118-1.697-1.003-.494.115-6.744 1.566-8.9 2.068l-1.439.334c-.54.127-.785-.11-.404-.512.508-.536.833-1.129.946-2.113.119-1.035-.232-2.313-.433-2.809-.374-.921-1.005-1.649-1.734-1.899-1.137-.39-1.945.321-1.542 1.561.604 1.854.208 3.375-.833 4.293-2.449 2.157-3.588 3.695-2.83 6.973.828 3.575 4.377 5.876 7.952 5.048l3.152-.681z"
     fill="#F19020" />
</svg>
