<?xml version="1.0" encoding="UTF-8" standalone="no"?>
<svg
   xmlns:dc="http://purl.org/dc/elements/1.1/"
   xmlns:cc="http://creativecommons.org/ns#"
   xmlns:rdf="http://www.w3.org/1999/02/22-rdf-syntax-ns#"
   xmlns:svg="http://www.w3.org/2000/svg"
   xmlns="http://www.w3.org/2000/svg"
   xmlns:sodipodi="http://sodipodi.sourceforge.net/DTD/sodipodi-0.dtd"
   xmlns:inkscape="http://www.inkscape.org/namespaces/inkscape"
   inkscape:export-ydpi="682.66998"
   inkscape:export-xdpi="682.66998"
   inkscape:export-filename="/Users/JP25309/personal/custom-emoji/emojis/thinking_pleading.png"
   viewBox="0 0 36 36"
   version="1.1"
   id="svg903"
   sodipodi:docname="thinking_pleading.svg"
   inkscape:version="1.0 (4035a4f, 2020-05-01)">
  <metadata
     id="metadata909">
    <rdf:RDF>
      <cc:Work
         rdf:about="">
        <dc:format>image/svg+xml</dc:format>
        <dc:type
           rdf:resource="http://purl.org/dc/dcmitype/StillImage" />
      </cc:Work>
    </rdf:RDF>
  </metadata>
  <defs
     id="defs907" />
  <sodipodi:namedview
     inkscape:document-rotation="0"
     pagecolor="#ffffff"
     bordercolor="#666666"
     borderopacity="1"
     objecttolerance="10"
     gridtolerance="10"
     guidetolerance="10"
     inkscape:pageopacity="0"
     inkscape:pageshadow="2"
     inkscape:window-width="1215"
     inkscape:window-height="961"
     id="namedview905"
     showgrid="false"
     inkscape:zoom="6.5702005"
     inkscape:cx="0.8588836"
     inkscape:cy="30.903724"
     inkscape:window-x="30"
     inkscape:window-y="75"
     inkscape:window-maximized="0"
     inkscape:current-layer="svg903" />
  <circle
     fill="#FFCC4D"
     cx="18"
     cy="18"
     r="18"
     id="circle883" />
  <path
     style="stroke-width:0.923257"
     fill="#ffffff"
     d="m 29.776159,9.4447248 c -0.833703,2.5343412 -3.217552,4.3531572 -5.995632,4.3531572 -0.132949,0 -0.266822,-0.0046 -0.401618,-0.01292 -1.36365,-0.08586 -2.623896,-0.604733 -3.646864,-1.462438 0.03323,0.457013 0.07017,0.920487 0.125563,1.421816 0.140334,1.281481 0.816158,2.291524 1.953611,2.920262 0.757071,0.419159 1.661863,0.6352 2.597122,0.694289 1.600927,0.100631 3.296028,-0.258512 4.499032,-0.839241 1.271325,-0.613965 2.09764,-1.719104 2.26752,-3.032899 0.168955,-1.306409 -0.326833,-2.699604 -1.398734,-4.0420191 z"
     id="path887" />
  <path
     style="stroke-width:0.923257"
     fill="#65471b"
     d="M 21.481616,5.3039164 C 20.284152,5.8117079 19.684035,7.428331 19.656337,10.187024 l 0.036,0.06278 c 0.828162,1.217778 2.19089,2.053325 3.774275,2.153037 0.105253,0.0065 0.210503,0.01017 0.31483,0.01017 2.43186,0 4.476875,-1.788349 4.849871,-4.1768154 C 28.52514,8.1392436 28.427275,8.0404554 28.314637,7.9444367 24.884737,5.0177117 22.343933,4.9373883 21.481611,5.3039214 Z"
     id="path889" />
  <path
     style="stroke-width:0.923257"
     fill="#f4900c"
     d="m 23.780527,13.797882 c 2.77808,0 5.161929,-1.818816 5.995632,-4.3531572 -0.326834,-0.4090037 -0.711833,-0.8124666 -1.145764,-1.2085438 -0.372995,2.388465 -2.418009,4.176815 -4.849868,4.176815 -0.104329,0 -0.20958,-0.0037 -0.314832,-0.01017 -1.583385,-0.09972 -2.946112,-0.935259 -3.774275,-2.153035 l -0.03601,-0.06278 c -0.0065,0.647204 0.01939,1.359958 0.07663,2.135493 1.022968,0.857707 2.283215,1.376577 3.646864,1.462441 0.134797,0.0092 0.268669,0.01292 0.401618,0.01292 z"
     id="path891" />
  <circle
     style="stroke-width:0.923257"
     fill="#ffffff"
     cx="21.538857"
     cy="8.1863251"
     r="1.0220456"
     id="circle893" />
  <path
     style="stroke-width:0.923257"
     fill="#ffffff"
     d="m 11.440573,13.735703 c -2.7780815,0 -5.161931,-1.818816 -5.9956322,-4.3531572 -1.0719014,1.3424162 -1.5667673,2.7356102 -1.3987344,4.0410962 0.1708025,1.313794 0.9961944,2.419857 2.2675194,3.032899 1.2030039,0.580729 2.8971817,0.939876 4.4990322,0.839241 0.93526,-0.05909 1.840052,-0.274207 2.597122,-0.694288 1.13653,-0.628739 1.812354,-1.638783 1.953613,-2.920264 0.05539,-0.500405 0.09232,-0.962033 0.125562,-1.418123 -1.018352,0.852167 -2.280444,1.372883 -3.646865,1.458747 -0.134796,0.01017 -0.268668,0.01385 -0.401617,0.01385 z"
     id="path895" />
  <path
     style="stroke-width:0.923257"
     fill="#65471b"
     d="m 11.440573,12.350817 c 0.104329,0 0.20958,-0.0037 0.31483,-0.01017 1.583387,-0.09972 2.946115,-0.935259 3.774275,-2.153035 l 0.03602,-0.06278 C 15.537065,7.3661524 14.937871,5.7495293 13.740407,5.2417377 12.878085,4.8752047 10.336358,4.9555281 6.9073801,7.8813298 6.7947427,7.9773484 6.6978008,8.0761371 6.5907029,8.1730791 6.9636988,10.562467 9.0087135,12.350817 11.440573,12.350817 Z"
     id="path897" />
  <path
     style="stroke-width:0.923257"
     fill="#f4900c"
     d="m 15.564762,10.124845 -0.036,0.06278 c -0.828161,1.217778 -2.190889,2.053325 -3.774274,2.153037 -0.105254,0.0065 -0.210503,0.01017 -0.314832,0.01017 -2.4318595,0 -4.4768738,-1.788349 -4.8498696,-4.1768151 -0.4339359,0.3960723 -0.8189341,0.7995356 -1.1457671,1.2085382 0.8337012,2.5343409 3.2175512,4.3531579 5.9956317,4.3531579 0.13295,0 0.266822,-0.0046 0.401618,-0.01292 1.36642,-0.08586 2.628512,-0.60658 3.646864,-1.458746 0.05724,-0.77646 0.08401,-1.490137 0.07663,-2.139187 z"
     id="path899" />
  <path
     style="stroke-width:0.923257"
     fill="#ffffff"
     d="M 9.2450675,9.1443448 C 9.8082555,9.1092643 10.236646,8.6236285 10.200639,8.0604417 10.165558,7.4972548 9.6799215,7.0688636 9.1167335,7.1039473 8.5535475,7.1390314 8.1251563,7.6246643 8.1602403,8.1878512 8.1962452,8.751038 8.6818805,9.1794288 9.2450675,9.1443448 Z"
     id="path901" />
  <path
     fill="#65471b"
     d="m 13.958978,21.108267 c -0.145,-0.116 -0.258,-0.274 -0.312,-0.464 -0.134,-0.46 0.13,-0.918 0.59,-1.021 4.528,-1.021 7.577,1.363 7.706,1.465 0.384,0.306 0.459,0.845 0.173,1.205 -0.286,0.358 -0.828,0.401 -1.211,0.097 -0.11,-0.084 -2.523,-1.923 -6.182,-1.098 -0.274,0.061 -0.554,-0.016 -0.764,-0.184 z"
     id="path1474" />
  <path
     fill="#f19020"
     d="m 16.710978,35.154002 c 0,0 1.265,-0.411 1.429,-1.352 0.173,-0.972 -0.624,-1.167 -0.624,-1.167 0,0 1.041,-0.208 1.172,-1.376 0.123,-1.101 -0.861,-1.363 -0.861,-1.363 0,0 0.97,-0.4 1.016,-1.539 0.038,-0.959 -0.995,-1.428 -0.995,-1.428 0,0 5.038,-1.221 5.556,-1.341 0.516,-0.12 1.32,-0.615 1.069,-1.694 -0.249,-1.08 -1.204,-1.118 -1.697,-1.003 -0.494,0.115 -6.744,1.566 -8.9,2.068 l -1.439,0.334 c -0.54,0.127 -0.785,-0.11 -0.404,-0.512 0.508,-0.536 0.833,-1.129 0.946,-2.113 0.119,-1.035 -0.232,-2.313 -0.433,-2.809 -0.374,-0.921 -1.005,-1.649 -1.734,-1.899 -1.1370004,-0.39 -1.9450004,0.321 -1.5420004,1.561 0.604,1.854 0.208,3.375 -0.833,4.293 -2.449,2.157 -3.588,3.695 -2.83,6.973 0.828,3.575 4.377,5.876 7.9520004,5.048 z"
     id="path1480" />
  <path
     style="fill:#65471b;fill-opacity:1"
     id="path1590"
     d="m 20.543107,4.361608 c -0.156,-0.098 -0.286,-0.243 -0.362,-0.424 -0.187,-0.442 0.023,-0.927 0.468,-1.084 4.381,-1.536 7.685,0.48 7.823,0.567 0.415,0.26 0.555,0.787 0.312,1.178 -0.242,0.39 -0.776,0.495 -1.191,0.238 -0.12,-0.072 -2.727,-1.621 -6.267,-0.379 -0.266,0.091 -0.553,0.046 -0.783,-0.096 z" />
  <path
     style="fill:#65471b;fill-opacity:1"
     id="path1540"
     d="m 6.6323228,2.3335811 c -0.164,-0.088 -0.303,-0.224 -0.391,-0.399 -0.216,-0.428 -0.04,-0.927 0.393,-1.11200005 4.2660002,-1.83099995 7.6990002,-0.043 7.8430002,0.034 0.433,0.23100005 0.608,0.74700005 0.391,1.15400005 -0.216,0.405 -0.74,0.546 -1.173,0.318 -0.123,-0.063 -2.832,-1.43200005 -6.2780002,0.047 -0.257,0.109 -0.547,0.085 -0.785,-0.042 z" />
</svg>
