<?xml version="1.0" encoding="UTF-8" standalone="no"?>
<svg
   viewBox="0 0 36 36"
   version="1.1"
   id="svg6"
   sodipodi:docname="thinking_pien.svg"
   xml:space="preserve"
   inkscape:version="1.3.2 (091e20e, 2023-11-25)"
   xmlns:inkscape="http://www.inkscape.org/namespaces/inkscape"
   xmlns:sodipodi="http://sodipodi.sourceforge.net/DTD/sodipodi-0.dtd"
   xmlns="http://www.w3.org/2000/svg"
   xmlns:svg="http://www.w3.org/2000/svg"><defs
     id="defs6" /><sodipodi:namedview
     id="namedview6"
     pagecolor="#ffffff"
     bordercolor="#000000"
     borderopacity="0.25"
     inkscape:showpageshadow="2"
     inkscape:pageopacity="0.0"
     inkscape:pagecheckerboard="0"
     inkscape:deskcolor="#d1d1d1"
     inkscape:zoom="2.3177389"
     inkscape:cx="-2.1572749"
     inkscape:cy="77.877625"
     inkscape:window-width="1920"
     inkscape:window-height="954"
     inkscape:window-x="0"
     inkscape:window-y="25"
     inkscape:window-maximized="1"
     inkscape:current-layer="g6" /><circle
     cx="18"
     cy="18"
     r="18"
     fill="#FFCC4D"
     id="circle1" /><path
     d="m 12.707,1.9951356 a 0.998,0.998 0 0 0 -0.324,-1.63000001 1,1 0 0 0 -1.09,0.216 C 9.652,2.2221356 8.075,2.2861356 7.99,2.2881356 a 1.0000125,1.0000125 0 0 0 0.01,2 c 0.099,0 2.44,-0.026 4.707,-2.293 z"
     id="path8"
     style="fill:#65471b;fill-opacity:1" /><path
     d="m 28.994,5.1328192 a 1.005,1.005 0 0 0 -0.983,-1.011 c -0.067,-0.001 -1.653,-0.056 -3.304,-1.707 a 1,1 0 1 0 -1.414,1.414 c 2.267,2.267 4.608,2.293 4.707,2.293 a 0.995,0.995 0 0 0 0.994,-0.989 z"
     id="path7"
     style="fill:#65471b;fill-opacity:1" /><g
     id="g9"
     transform="translate(0,0.68644069)"><path
       fill="#ffffff"
       d="m 24.5,16.135593 a 5.5,5.5 0 1 0 0,-10.9999998 5.5,5.5 0 0 0 0,10.9999998 z"
       id="path2" /><path
       fill="#292f33"
       d="m 24.5,15.135593 a 5,5 0 1 0 0,-9.9999998 5,5 0 0 0 0,9.9999998 z"
       id="path3" /><path
       fill="#ffffff"
       d="m 24.337,9.9715932 c 1.044,-1.046 1.23,-2.552 0.417,-3.364 -0.813,-0.813 -2.32,-0.625 -3.363,0.42 -1.045,1.046 -1.231,2.552 -0.418,3.3639998 0.814,0.813 2.32,0.625 3.364,-0.4199998 z m 3.288,2.8449998 c 0.458,-0.459 0.54,-1.12 0.183,-1.477 -0.357,-0.357 -1.019,-0.274 -1.478,0.185 -0.458,0.459 -0.54,1.12 -0.183,1.477 0.357,0.357 1.019,0.275 1.478,-0.184 z m -16.125,3.319 a 5.5,5.5 0 1 0 0,-10.9999998 5.5,5.5 0 0 0 0,10.9999998 z"
       id="path4" /><path
       fill="#292f33"
       d="m 11.5,15.135593 a 5,5 0 1 0 0,-9.9999998 5,5 0 0 0 0,9.9999998 z"
       id="path5" /><path
       fill="#ffffff"
       d="m 11.337,9.9715932 c 1.044,-1.046 1.23,-2.552 0.417,-3.364 -0.813,-0.813 -2.32,-0.625 -3.363,0.42 -1.045,1.046 -1.231,2.552 -0.418,3.3639998 0.814,0.813 2.32,0.625 3.364,-0.4199998 z m 3.287,2.8449998 c 0.46,-0.459 0.541,-1.12 0.184,-1.477 -0.357,-0.357 -1.019,-0.274 -1.478,0.185 -0.458,0.459 -0.54,1.12 -0.183,1.477 0.357,0.357 1.019,0.275 1.477,-0.184 z"
       id="path6" /></g><g
     id="g6"
     transform="translate(73.220339,-11.144044)"><path
       fill="#65471b"
       d="m -64.216535,32.038102 c -0.145,-0.116 -0.258,-0.274 -0.312,-0.464 -0.134,-0.46 0.13,-0.918 0.59,-1.021 4.528,-1.021 7.577,1.363 7.706,1.465 0.384,0.306 0.459,0.845 0.173,1.205 -0.286,0.358 -0.828,0.401 -1.211,0.097 -0.11,-0.084 -2.523,-1.923 -6.182,-1.098 -0.274,0.061 -0.554,-0.016 -0.764,-0.184 z"
       id="path1-3"
       style="fill:#65471b;fill-opacity:1" /><path
       fill="#f19020"
       d="m -61.464535,46.151102 c 0,0 1.265,-0.411 1.429,-1.352 0.173,-0.972 -0.624,-1.167 -0.624,-1.167 0,0 1.041,-0.208 1.172,-1.376 0.123,-1.101 -0.861,-1.363 -0.861,-1.363 0,0 0.97,-0.4 1.016,-1.539 0.038,-0.959 -0.995,-1.428 -0.995,-1.428 0,0 5.038,-1.221 5.556,-1.341 0.516,-0.12 1.32,-0.615 1.069,-1.694 -0.249,-1.08 -1.204,-1.118 -1.697,-1.003 -0.494,0.115 -6.744,1.566 -8.9,2.068 l -1.439,0.334 c -0.54,0.127 -0.785,-0.11 -0.404,-0.512 0.508,-0.536 0.833,-1.129 0.946,-2.113 0.119,-1.035 -0.232,-2.313 -0.433,-2.809 -0.374,-0.921 -1.005,-1.649 -1.734,-1.899 -1.137,-0.39 -1.945,0.321 -1.542,1.561 0.604,1.854 0.208,3.375 -0.833,4.293 -2.449,2.157 -3.588,3.695 -2.83,6.973 0.828,3.575 4.377,5.876 7.952,5.048 z"
       id="path2-8" /></g></svg>
