<?xml version="1.0" encoding="UTF-8" standalone="no"?>
<svg
   xmlns:dc="http://purl.org/dc/elements/1.1/"
   xmlns:cc="http://creativecommons.org/ns#"
   xmlns:rdf="http://www.w3.org/1999/02/22-rdf-syntax-ns#"
   xmlns:svg="http://www.w3.org/2000/svg"
   xmlns="http://www.w3.org/2000/svg"
   xmlns:sodipodi="http://sodipodi.sourceforge.net/DTD/sodipodi-0.dtd"
   xmlns:inkscape="http://www.inkscape.org/namespaces/inkscape"
   inkscape:export-ydpi="682.66998"
   inkscape:export-xdpi="682.66998"
   inkscape:export-filename="/Users/JP25309/personal/custom-emoji/emojis/thinking_knife.png"
   inkscape:version="1.0 (4035a4f, 2020-05-01)"
   sodipodi:docname="thinking_knife.svg"
   id="svg843"
   version="1.1"
   viewBox="0 0 36 36">
  <metadata
     id="metadata849">
    <rdf:RDF>
      <cc:Work
         rdf:about="">
        <dc:format>image/svg+xml</dc:format>
        <dc:type
           rdf:resource="http://purl.org/dc/dcmitype/StillImage" />
      </cc:Work>
    </rdf:RDF>
  </metadata>
  <defs
     id="defs847" />
  <sodipodi:namedview
     inkscape:snap-page="true"
     inkscape:current-layer="g884"
     inkscape:window-maximized="1"
     inkscape:window-y="23"
     inkscape:window-x="0"
     inkscape:cy="-4.2745956"
     inkscape:cx="-73.436023"
     inkscape:zoom="4.6458333"
     showgrid="false"
     id="namedview845"
     inkscape:window-height="1035"
     inkscape:window-width="1920"
     inkscape:pageshadow="2"
     inkscape:pageopacity="0"
     guidetolerance="10"
     gridtolerance="10"
     objecttolerance="10"
     borderopacity="1"
     bordercolor="#666666"
     pagecolor="#ffffff" />
  <g
     transform="matrix(0.10975623,0.91904671,-0.91904671,0.10975623,32.635309,-3.8551535)"
     id="g856">
    <path
       fill="#ccd6dd"
       d="M 0.24657566,34.604 16.325576,15.113 c 0,0 5.637,3.692 7.689,9.676 0,0 -4.667,5.292 -9.79,8.225 -6.3680003,3.646 -11.6420003,2.855 -13.70300034,2.391 -0.362,-0.081 -0.511,-0.513 -0.275,-0.801 z"
       id="path833" />
    <path
       fill="#aab8c2"
       d="m 18.050576,13.005 4.035,3.559 c -0.066,0.028 -0.316,0.45 -0.174,1.107 0.402,1.865 2.346,4.288 2.974,5.098 0.194,0.25 0.224,0.691 -0.026,1.007 l -0.845,1.013 c -1.821,-3.964 -6.556,-8.694 -7.689,-9.676 z"
       id="path835" />
    <path
       fill="#31373d"
       d="m 18.050576,13.005 c 0,0 3.32,-4.216 5.763,-6.986 2.443,-2.77 4.1,-4.361 5.683,-5.379 1.615,-1.038 3.34,-0.435 4.644,0.714 1.304,1.149 2.703,3.728 1.194,5.439 -0.826,0.937 -2.785,0.078 -3.791,1.219 -0.683,0.774 -1.031,1.365 -3.464,3.859 -3.759,3.854 -5.994,4.692 -5.994,4.692 0,0 -1.251,-1.042 -1.932,-1.648 -0.682,-0.604 -2.103,-1.91 -2.103,-1.91 z"
       id="path837" />
    <circle
       fill="#f5f8fa"
       cx="-24.503576"
       cy="10.543"
       r="1.365"
       id="circle839"
       transform="scale(-1,1)" />
    <circle
       fill="#f5f8fa"
       cx="-30.218576"
       cy="4.6529999"
       r="1.365"
       id="circle841"
       transform="scale(-1,1)" />
  </g>
  <g
     transform="matrix(0.86237662,0,0,0.86237662,12.295069,-2.2825174)"
     id="g884">
    <path
       style="fill:#2e364c;fill-opacity:1"
       fill="#65471b"
       d="m -3.6643408,21.036 c -0.145,-0.116 -0.258,-0.274 -0.312,-0.464 -0.134,-0.46 0.13,-0.918 0.59,-1.021 4.528,-1.021 7.577,1.363 7.706,1.465 0.384,0.306 0.459,0.845 0.173,1.205 -0.286,0.358 -0.828,0.401 -1.211,0.097 -0.11,-0.084 -2.52300001,-1.923 -6.182,-1.098 -0.274,0.061 -0.554,-0.016 -0.764,-0.184 z"
       id="path860" />
    <ellipse
       style="fill:#2e364c;fill-opacity:1"
       fill="#65471b"
       cx="-5.0693402"
       cy="11.174"
       rx="2.125"
       ry="2.6559999"
       id="ellipse862" />
    <ellipse
       style="fill:#2e364c;fill-opacity:1"
       fill="#65471b"
       cx="6.1866593"
       cy="12.236"
       rx="2.125"
       ry="2.6559999"
       id="ellipse864" />
    <path
       style="fill:#858585;fill-opacity:1"
       fill="#f19020"
       d="m -2.0355274,39.017754 c 0,0 1.26499999,-0.411 1.42899999,-1.352 0.173,-0.972 -0.62399999,-1.167 -0.62399999,-1.167 0,0 1.04099999,-0.208 1.172,-1.376 0.123,-1.101 -0.86100001,-1.363 -0.86100001,-1.363 0,0 0.97000001,-0.4 1.01600001,-1.539 0.038,-0.959 -0.99500001,-1.428 -0.99500001,-1.428 0,0 5.03800001,-1.221 5.55600001,-1.341 0.516,-0.12 1.32,-0.615 1.069,-1.694 -0.249,-1.08 -1.204,-1.118 -1.697,-1.003 -0.494,0.115 -6.744,1.566 -8.9,2.068 l -1.439,0.334 c -0.54,0.127 -0.785,-0.11 -0.404,-0.512 0.508,-0.536 0.833,-1.129 0.946,-2.113 0.119,-1.035 -0.232,-2.313 -0.433,-2.809 -0.374,-0.921 -1.005,-1.649 -1.734,-1.899 -1.137,-0.39 -1.945,0.321 -1.542,1.561 0.604,1.854 0.208,3.375 -0.8329996,4.293 -2.449001,2.157 -3.588001,3.695 -2.830001,6.973 0.828,3.575 4.3770006,5.876 7.9520006,5.048 z"
       id="path866" />
    <path
       style="fill:#2e364c;fill-opacity:1"
       fill="#65471b"
       d="m -8.8923408,6.351 c -0.164,-0.088 -0.303,-0.224 -0.391,-0.399 -0.216,-0.428 -0.04,-0.927 0.393,-1.112 4.266,-1.831 7.699,-0.043 7.843,0.034 0.43299999,0.231 0.60799999,0.747 0.39099999,1.154 -0.216,0.405 -0.73999999,0.546 -1.17299999,0.318 -0.123,-0.063 -2.832,-1.432 -6.278,0.047 -0.257,0.109 -0.547,0.085 -0.785,-0.042 z m 12.135,3.75 c -0.156,-0.098 -0.286,-0.243 -0.362,-0.424 -0.187,-0.442 0.023,-0.927 0.468,-1.084 4.381,-1.536 7.6849998,0.48 7.8229998,0.567 0.415,0.26 0.555,0.787 0.312,1.178 -0.242,0.39 -0.776,0.495 -1.191,0.238 -0.12,-0.072 -2.7269998,-1.621 -6.2669998,-0.379 -0.266,0.091 -0.553,0.046 -0.783,-0.096 z"
       id="path868" />
  </g>
</svg>
