<?xml version="1.0" encoding="UTF-8" standalone="no"?>
<svg
   xmlns:dc="http://purl.org/dc/elements/1.1/"
   xmlns:cc="http://creativecommons.org/ns#"
   xmlns:rdf="http://www.w3.org/1999/02/22-rdf-syntax-ns#"
   xmlns:svg="http://www.w3.org/2000/svg"
   xmlns="http://www.w3.org/2000/svg"
   xmlns:sodipodi="http://sodipodi.sourceforge.net/DTD/sodipodi-0.dtd"
   xmlns:inkscape="http://www.inkscape.org/namespaces/inkscape"
   inkscape:export-ydpi="682.66998"
   inkscape:export-xdpi="682.66998"
   inkscape:export-filename="/Users/JP25309/personal/custom-emoji/thinking_beer.png"
   inkscape:version="1.0 (4035a4f, 2020-05-01)"
   sodipodi:docname="thinking_beer.svg"
   id="svg88"
   version="1.1"
   viewBox="0 0 36 36">
  <metadata
     id="metadata94">
    <rdf:RDF>
      <cc:Work
         rdf:about="">
        <dc:format>image/svg+xml</dc:format>
        <dc:type
           rdf:resource="http://purl.org/dc/dcmitype/StillImage" />
      </cc:Work>
    </rdf:RDF>
  </metadata>
  <defs
     id="defs92" />
  <sodipodi:namedview
     inkscape:current-layer="g129"
     inkscape:window-maximized="1"
     inkscape:window-y="23"
     inkscape:window-x="0"
     inkscape:cy="11.813608"
     inkscape:cx="4.4424974"
     inkscape:zoom="9.2916667"
     showgrid="false"
     id="namedview90"
     inkscape:window-height="1035"
     inkscape:window-width="1920"
     inkscape:pageshadow="2"
     inkscape:pageopacity="0"
     guidetolerance="10"
     gridtolerance="10"
     objecttolerance="10"
     borderopacity="1"
     bordercolor="#666666"
     pagecolor="#ffffff" />
  <g
     style="display:inline"
     inkscape:label="Layer 1"
     id="layer3"
     inkscape:groupmode="layer">
    <path
       id="path78"
       d="m 31,5.718 h -6 v 4 h 4 c 0,0 2,0 2,2 v 12 c 0,2 -2,2 -2,2 h -4 v 4 h 6 c 2.206,0 4,-1.794 4,-4 v -16 c 0,-2.206 -1.794,-4 -4,-4 z"
       fill="#ffac33" />
    <path
       id="path80"
       d="M 27,6 H 3 v 26 c 0,2.209 1.791,4 4,4 h 16 c 2.209,0 4,-1.791 4,-4 z"
       fill="#ffcc4d" />
    <path
       style="fill:#ffac33;fill-opacity:1"
       id="path82"
       d="m 8.5,32 c -0.552,0 -1,-0.447 -1,-1 V 15 c 0,-0.552 0.448,-1 1,-1 0.552,0 1,0.448 1,1 v 16 c 0,0.553 -0.448,1 -1,1 z m 6.5,0 c -0.552,0 -1,-0.447 -1,-1 V 15 c 0,-0.552 0.448,-1 1,-1 0.552,0 1,0.448 1,1 v 16 c 0,0.553 -0.448,1 -1,1 z m 6.5,0 c -0.553,0 -1,-0.447 -1,-1 V 15 c 0,-0.552 0.447,-1 1,-1 0.553,0 1,0.448 1,1 v 16 c 0,0.553 -0.447,1 -1,1 z"
       fill="#f4900c" />
    <path
       id="path84"
       d="m 3,5 v 7.445 C 3.59,12.789 4.268,13 5,13 6.674,13 8.104,11.969 8.701,10.509 9.051,10.811 9.502,11 10,11 10.677,11 11.273,10.662 11.635,10.147 12.345,11.258 13.583,12 15,12 16.301,12 17.445,11.369 18.176,10.407 18.54,11.338 19.44,12 20.5,12 c 0.949,0 1.765,-0.535 2.188,-1.314 l 0.147,-0.361 c 0.497,0.271 1.059,0.439 1.665,0.439 0.981,0 1.865,-0.406 2.5,-1.056 V 5 Z"
       fill="#ffac33" />
    <path
       id="path86"
       d="M 24,0 H 4 C 2.343,0 1,1.343 1,3 V 7 C 1,9.209 2.791,11 5,11 6.674,11 8.104,9.969 8.701,8.509 9.051,8.811 9.502,9 10,9 10.677,9 11.273,8.662 11.635,8.147 12.345,9.258 13.583,10 15,10 16.301,10 17.445,9.369 18.176,8.407 18.54,9.338 19.44,10 20.5,10 21.449,10 22.265,9.465 22.688,8.686 23.086,8.881 23.527,9 24,9 25.657,9 27,7.657 27,6 V 3 C 27,1.343 25.657,0 24,0 Z"
       fill="#eeeeee" />
  </g>
  <g
     style="display:inline"
     inkscape:label="Layer 2"
     id="layer4"
     inkscape:groupmode="layer">
    <g
       transform="translate(-3.9551568,0.01845539)"
       id="g129">
      <path
         fill="#65471b"
         d="m 14.524,21.036 c -0.145,-0.116 -0.258,-0.274 -0.312,-0.464 -0.134,-0.46 0.13,-0.918 0.59,-1.021 4.528,-1.021 7.577,1.363 7.706,1.465 0.384,0.306 0.459,0.845 0.173,1.205 -0.286,0.358 -0.828,0.401 -1.211,0.097 -0.11,-0.084 -2.523,-1.923 -6.182,-1.098 -0.274,0.061 -0.554,-0.016 -0.764,-0.184 z"
         id="path105" />
      <ellipse
         fill="#65471b"
         cx="13.119"
         cy="11.174"
         rx="2.125"
         ry="2.6559999"
         id="ellipse107" />
      <ellipse
         fill="#65471b"
         cx="24.375"
         cy="12.236"
         rx="2.125"
         ry="2.6559999"
         id="ellipse109" />
      <path
         fill="#f19020"
         d="m 17.276,35.202812 c 0,0 1.265,-0.411 1.429,-1.352 0.173,-0.972 -0.624,-1.167 -0.624,-1.167 0,0 1.041,-0.208 1.172,-1.376 0.123,-1.101 -0.861,-1.363 -0.861,-1.363 0,0 0.97,-0.4 1.016,-1.539 0.038,-0.959 -0.995,-1.428 -0.995,-1.428 0,0 5.038,-1.221 5.556,-1.341 0.516,-0.12 1.32,-0.615 1.069,-1.694 -0.249,-1.08 -1.204,-1.118 -1.697,-1.003 -0.494,0.115 -6.744,1.566 -8.9,2.068 l -1.439,0.334 c -0.54,0.127 -0.785,-0.11 -0.404,-0.512 0.508,-0.536 0.833,-1.129 0.946,-2.113 0.119,-1.035 -0.232,-2.313 -0.433,-2.809 -0.374,-0.921 -1.005,-1.649 -1.734,-1.899 -1.137,-0.39 -1.945,0.321 -1.542,1.561 0.604,1.854 0.208,3.375 -0.833,4.293 -2.449,2.157 -3.588,3.695 -2.83,6.973 0.828,3.575 4.377,5.876 7.952,5.048 z"
         id="path111" />
      <path
         fill="#65471b"
         d="M 9.296,6.351 C 9.132,6.263 8.993,6.127 8.905,5.952 8.689,5.524 8.865,5.025 9.298,4.84 c 4.266,-1.831 7.699,-0.043 7.843,0.034 0.433,0.231 0.608,0.747 0.391,1.154 -0.216,0.405 -0.74,0.546 -1.173,0.318 C 16.236,6.283 13.527,4.914 10.081,6.393 9.824,6.502 9.534,6.478 9.296,6.351 Z m 12.135,3.75 C 21.275,10.003 21.145,9.858 21.069,9.677 20.882,9.235 21.092,8.75 21.537,8.593 c 4.381,-1.536 7.685,0.48 7.823,0.567 0.415,0.26 0.555,0.787 0.312,1.178 -0.242,0.39 -0.776,0.495 -1.191,0.238 -0.12,-0.072 -2.727,-1.621 -6.267,-0.379 -0.266,0.091 -0.553,0.046 -0.783,-0.096 z"
         id="path113" />
    </g>
  </g>
</svg>
