<?xml version="1.0" encoding="UTF-8" standalone="no"?>
<svg
   xmlns:dc="http://purl.org/dc/elements/1.1/"
   xmlns:cc="http://creativecommons.org/ns#"
   xmlns:rdf="http://www.w3.org/1999/02/22-rdf-syntax-ns#"
   xmlns:svg="http://www.w3.org/2000/svg"
   xmlns="http://www.w3.org/2000/svg"
   xmlns:sodipodi="http://sodipodi.sourceforge.net/DTD/sodipodi-0.dtd"
   xmlns:inkscape="http://www.inkscape.org/namespaces/inkscape"
   inkscape:export-ydpi="682.66998"
   inkscape:export-xdpi="682.66998"
   inkscape:export-filename="/Users/JP25309/personal/custom-emoji/emojis/thinking_ogre.png"
   inkscape:version="1.0 (4035a4f, 2020-05-01)"
   sodipodi:docname="thinking_ogre.svg"
   id="svg863"
   version="1.1"
   viewBox="0 0 36 36">
  <metadata
     id="metadata869">
    <rdf:RDF>
      <cc:Work
         rdf:about="">
        <dc:format>image/svg+xml</dc:format>
        <dc:type
           rdf:resource="http://purl.org/dc/dcmitype/StillImage" />
        <dc:title></dc:title>
      </cc:Work>
    </rdf:RDF>
  </metadata>
  <defs
     id="defs867" />
  <sodipodi:namedview
     inkscape:current-layer="g926"
     inkscape:window-maximized="0"
     inkscape:window-y="23"
     inkscape:window-x="0"
     inkscape:cy="27.780118"
     inkscape:cx="0.45997635"
     inkscape:zoom="9.2916667"
     showgrid="false"
     id="namedview865"
     inkscape:window-height="1035"
     inkscape:window-width="1920"
     inkscape:pageshadow="2"
     inkscape:pageopacity="0"
     guidetolerance="10"
     gridtolerance="10"
     objecttolerance="10"
     borderopacity="1"
     bordercolor="#666666"
     pagecolor="#ffffff" />
  <g
     transform="translate(-0.6995516)"
     id="g926">
    <path
       fill="#292f33"
       d="m 31.396114,20.593424 c 0,0 6.267564,0 0.895366,-7.162931 0,0 5.372198,-1.790732 -1.790732,-6.2675632 0,0 5.372198,-5.3874186 -6.267564,-2.6860987 0,0 0,-4.4768311 -1.790732,-4.4768311 C 20.65172,0 18.860987,3.5814648 18.860987,3.5814648 18.860987,3.5814648 17.070254,0 15.279522,0 13.48879,0 13.48879,4.4768311 13.48879,4.4768311 1.8490284,1.726266 7.2212257,7.1629298 7.2212257,7.1629298 0.05829592,11.639761 5.4304933,13.430493 5.4304933,13.430493 c -5.37219738,7.162931 0.8953663,7.162931 0.8953663,7.162931 0,0 -3.581465,1.790732 -3.581465,4.47683 0,2.686099 2.6860987,1.790733 5.3721973,1.790733 -6.2675635,8.058296 10.7443951,0.895366 10.7443951,0.895366 0,0 17.011959,7.16293 10.744394,-0.895366 2.686099,0 5.372198,0.895366 5.372198,-1.790733 0,-2.686098 -3.581465,-4.47683 -3.581465,-4.47683 z"
       id="path833"
       style="stroke-width:0.895367" />
    <path
       fill="#dd2e44"
       d="m 28.676887,14.325859 c 0,0 -0.232795,-5.8368919 -3.565348,-8.0582955 -2.685203,-1.7907324 -4.459819,-1.7907324 -6.250552,-1.7907324 -1.87042,0 -3.581465,0 -6.267564,1.7907324 -3.3316572,2.2214036 -3.5814645,8.0582955 -3.5814645,8.0582955 -0.8953666,0 -2.033377,2.051285 -1.7907328,4.476831 0.2587609,2.586714 1.7907328,3.581466 1.7907328,3.581466 0,3.581464 2.6860995,6.267563 2.6860995,6.267563 0,1.790732 0,2.686098 3.581464,2.686098 h 7.129801 c 3.614594,0 3.581465,-0.895366 3.581465,-2.686098 0,0 2.686099,-2.686099 2.686099,-6.267563 0,0 1.531972,-0.994752 1.790732,-3.581466 0.242645,-2.425546 -0.895366,-4.476831 -1.790732,-4.476831 z"
       id="path835"
       style="stroke-width:0.895367" />
    <path
       fill="#292f33"
       d="m 25.287926,22.941074 c -0.756585,0.398437 -3.919913,1.313502 -6.426939,1.313502 -2.686098,0 -5.827043,-0.915065 -6.583628,-1.313502 -0.755689,-0.397543 -1.590171,0.308005 -1.352003,1.671648 0.325018,1.85699 1.121894,4.193896 3.032605,3.756062 0.626757,-0.14326 2.216928,-1.507797 4.903026,-1.507797 2.705797,0 4.158976,1.364537 4.785733,1.507797 1.909816,0.437834 2.590294,-1.899968 2.914417,-3.756062 0.239062,-1.363643 -0.517523,-2.069191 -1.273211,-1.671648 z"
       id="path837"
       style="stroke-width:0.895367" />
    <g
       fill="#ffffff"
       id="g843"
       transform="matrix(0.89536622,0,0,0.89536622,2.7443946,0)">
      <path
         d="m 25.721,28.741 -0.805,-3 c -1.155,0.485 -4.343,1.348 -6.917,1.348 -2.835,0 -6.12,-0.912 -7.186,-1.388 l -0.815,3.04 c -0.142,0.531 0.176,1.082 0.707,1.225 0.531,0.142 1.082,-0.176 1.225,-0.707 l 0.748,-2.331 c 0.892,0.344 3.114,0.664 5.322,0.66 2.161,-0.004 4.308,-0.324 5.18,-0.66 l 0.616,2.331 c 0.142,0.531 0.689,0.849 1.22,0.707 0.532,-0.142 0.848,-0.694 0.705,-1.225 z"
         id="path839" />
      <path
         d="m 22.929,29.906 c 0.086,-0.403 -0.174,-0.804 -0.578,-0.889 -0.403,-0.086 -0.804,0.174 -0.889,0.578 l -0.119,0.643 C 20.992,30.048 19.504,29.592 18,29.589 c -1.553,-0.003 -3.125,0.454 -3.484,0.649 l -0.198,-0.643 c -0.086,-0.404 -0.517,-0.664 -0.92,-0.578 -0.403,0.086 -0.679,0.486 -0.593,0.889 l 0.318,1.514 C 14.038,30.941 15.632,30 18,30 c 2.255,0 3.729,0.847 4.624,1.345 z"
         id="path841" />
    </g>
    <path
       fill="#55acee"
       d="m 14.828257,13.416167 -2.130971,-0.453055 c -1.464819,-0.311588 -2.917999,0.632129 -3.2295867,2.096948 -0.3115867,1.464819 0.6321287,2.917999 2.0969487,3.229586 l 2.130971,0.453056 c 1.464819,0.311586 2.917999,-0.632129 3.229586,-2.096948 0.311588,-1.464819 -0.632128,-2.917999 -2.096948,-3.229587 z m 8.065459,-0.213993 2.130972,-0.453055 c 1.464819,-0.311587 2.917998,0.632129 3.229586,2.096948 0.311588,1.464819 -0.632129,2.917998 -2.096948,3.229586 l -2.130971,0.453056 c -1.464819,0.311587 -2.917999,-0.632129 -3.229587,-2.096948 -0.311586,-1.46482 0.632129,-2.917999 2.096948,-3.229587 z"
       id="path845"
       style="stroke-width:0.895367" />
    <path
       fill="#ffcc4d"
       d="m 15.044041,13.851315 -1.751336,-0.372472 c -1.204268,-0.256074 -2.398687,0.520207 -2.654761,1.724475 -0.256076,1.204268 0.520208,2.398687 1.724476,2.654761 l 1.751335,0.372472 c 1.204268,0.256075 2.398687,-0.520207 2.654762,-1.724474 0.255179,-1.203373 -0.520209,-2.398687 -1.724476,-2.654762 z"
       id="path847"
       style="stroke-width:0.895367" />
    <circle
       fill="#292f33"
       cx="12.945937"
       cy="15.056606"
       r="1.3430493"
       id="circle849"
       style="stroke-width:0.895367" />
    <path
       fill="#ffcc4d"
       d="m 22.677933,13.851315 1.751336,-0.372472 c 1.204268,-0.256074 2.398687,0.520207 2.654761,1.724475 0.256075,1.204268 -0.520208,2.398687 -1.72358,2.654761 l -1.751336,0.372472 c -1.204267,0.256075 -2.398686,-0.520207 -2.654761,-1.724474 -0.256074,-1.203373 0.519313,-2.398687 1.72358,-2.654762 z"
       id="path851"
       style="stroke-width:0.895367" />
    <circle
       fill="#292f33"
       cx="23.137877"
       cy="15.056606"
       r="1.3430493"
       id="circle853"
       style="stroke-width:0.895367" />
    <path
       fill="#a0041e"
       d="m 18.860987,23.727205 c -1.665381,0 -2.370034,-0.899843 -2.597457,-1.660905 -0.486184,0.114608 -1.204268,0.187132 -1.727162,-0.167433 -0.273087,-0.185341 -0.599895,-0.562291 -0.599895,-1.305443 0,-0.247122 0.200562,-0.447684 0.447682,-0.447684 0.247122,0 0.447684,0.200562 0.447684,0.447684 0,0.424402 0.154899,0.529161 0.20683,0.56408 0.333972,0.227422 1.100404,0.04119 1.419155,-0.08506 0.136991,-0.05462 0.29368,-0.03761 0.416345,0.04656 0.12177,0.08327 0.196085,0.221156 0.196085,0.369786 0.0026,0.13341 0.07432,1.34305 1.790733,1.34305 1.771034,0 1.790733,-1.287538 1.790733,-1.34305 0,-0.14863 0.07342,-0.286518 0.19698,-0.369786 0.12177,-0.08417 0.276668,-0.101175 0.416345,-0.04656 0.31875,0.127142 1.084289,0.313378 1.419156,0.08506 0.05104,-0.03491 0.205934,-0.139678 0.205934,-0.56408 0,-0.247122 0.200562,-0.447684 0.447683,-0.447684 0.247121,0 0.447684,0.200562 0.447684,0.447684 0,0.743152 -0.325914,1.120102 -0.600791,1.305443 -0.522894,0.354565 -1.240978,0.281145 -1.727162,0.167433 -0.226528,0.761062 -0.932076,1.660905 -2.596562,1.660905 z"
       id="path855"
       style="stroke-width:0.895367" />
    <path
       fill="#be1931"
       d="m 23.931446,30.527511 c -0.564081,0 -1.156813,-0.244434 -1.768348,-0.730618 -0.859552,-0.684955 -1.668963,-1.328724 -3.302111,-1.328724 -1.633148,0 -2.443455,0.644664 -3.301215,1.327828 -1.061905,0.846121 -2.183798,0.845226 -3.244808,0.0018 -0.193398,-0.154003 -0.225631,-0.436044 -0.07163,-0.629443 0.153107,-0.193398 0.435148,-0.225631 0.629442,-0.07163 0.735096,0.585569 1.39319,0.585569 2.128285,0 0.898052,-0.714501 1.914293,-1.523017 3.859925,-1.523017 1.946526,0 2.962766,0.808516 3.859028,1.522122 0.517521,0.411868 0.981321,0.58557 1.370806,0.52558 0.427089,-0.06716 0.652722,-0.402019 0.660779,-0.416345 0.135201,-0.205039 0.411869,-0.265029 0.617804,-0.131619 0.205038,0.132515 0.268609,0.404706 0.137886,0.612431 -0.04387,0.06894 -0.447683,0.679583 -1.256199,0.816573 -0.105654,0.01612 -0.212202,0.02507 -0.319645,0.02507 z"
       id="path857"
       style="stroke-width:0.895367" />
    <path
       fill="#f4900c"
       d="M 8.1183826,0.85059791 C 8.1416665,0.4056009 8.5078668,0.04834978 8.9421196,0.01253513 9.5079907,-0.03491928 9.7586939,0.41276382 9.9682097,0.86581913 10.621827,2.2751256 11.318422,3.6602571 12.246021,4.9128744 c 0.644664,0.8711914 1.422737,1.8032676 2.413908,2.2957191 0.52737,0.1763871 0.771806,0.8156785 0.492451,1.2973856 0.470067,0.8156785 -0.459322,1.6027059 -1.22307,1.2212795 C 12.890685,10.327154 11.173373,8.3439178 10.586907,7.6374739 9.8294277,6.7250957 9.2474395,5.6757265 8.8373622,4.5663677 8.4174347,3.4292526 8.046753,2.078145 8.1183826,0.85059791 Z m 21.4780454,0 C 29.573149,0.4056009 29.206944,0.04834978 28.772691,0.01253513 28.20682,-0.03491928 27.956117,0.41276382 27.746601,0.86581913 27.092984,2.2751256 26.39639,3.6602571 25.46879,4.9128744 24.824126,5.7840658 24.046053,6.716142 23.054882,7.2085935 22.527512,7.3849806 22.283077,8.024272 22.562431,8.5059791 22.092363,9.3216576 23.021753,10.108685 23.785502,9.7272586 24.824126,10.327154 26.541438,8.3439178 27.127904,7.6374739 27.885383,6.725991 28.467371,5.6766218 28.877449,4.5672631 29.297376,3.4292526 29.668058,2.078145 29.596428,0.85059791 Z"
       id="path859"
       style="stroke-width:0.895367" />
    <path
       d="m 21.129132,11.892074 c -0.46677,0.165189 -0.710245,0.676856 -0.545356,1.142782 0.16489,0.465926 0.676012,0.710543 1.142783,0.545355 3.085069,-1.091797 5.959095,-0.386001 5.987262,-0.378873 0.479976,0.121721 0.966258,-0.168146 1.087978,-0.648121 0.121722,-0.479977 -0.168443,-0.967103 -0.648121,-1.08798 -0.138549,-0.03456 -3.433879,-0.843888 -7.024546,0.426837 z"
       id="path873"
       style="stroke-width:0.895367" />
    <path
       d="m 9.5577532,11.590095 c 3.6864298,-0.958051 6.9001958,0.130965 7.0352688,0.177271 0.466676,0.1618 0.713988,0.672021 0.552413,1.139562 -0.162027,0.465808 -0.671155,0.713762 -1.137379,0.553694 -0.02854,-0.01014 -2.855926,-0.954435 -5.999878,-0.137367 C 9.5298252,13.447572 9.0407031,13.160239 8.9163858,12.681887 8.7920685,12.203535 9.0794015,11.714412 9.5577532,11.590095 Z"
       id="path861"
       style="stroke-width:0.895367" />
    <path
       fill="#f19020"
       d="m 13.269444,35.410748 c 0,0 0.911024,-0.295993 1.029132,-0.973679 0.124591,-0.700012 -0.449391,-0.840448 -0.449391,-0.840448 0,0 0.749705,-0.149795 0.844048,-0.990962 0.08858,-0.792916 -0.620073,-0.981602 -0.620073,-0.981602 0,0 0.698572,-0.28807 0.731701,-1.108353 0.02737,-0.69065 -0.716576,-1.028413 -0.716576,-1.028413 0,0 3.628252,-0.879336 4.001304,-0.965758 0.371611,-0.08642 0.950633,-0.442907 0.769869,-1.21998 -0.179325,-0.777791 -0.867094,-0.805158 -1.222141,-0.722337 -0.355767,0.08282 -4.856875,1.127797 -6.409577,1.489326 l -1.036335,0.24054 C 9.8025096,28.400549 9.6260661,28.22986 9.9004541,27.940352 10.266304,27.554336 10.500362,27.12727 10.581742,26.418617 10.66744,25.673233 10.41466,24.752847 10.269905,24.395639 10.000559,23.732357 9.5461266,23.208067 9.0211184,23.028023 8.2022768,22.747154 7.6203737,23.259201 7.910605,24.152219 c 0.4349871,1.335208 0.1497968,2.430598 -0.5999076,3.091721 -1.7637136,1.553421 -2.5839954,2.661054 -2.0381012,5.021794 0.5963067,2.574633 3.1522153,4.231761 5.7268478,3.635454 z"
       id="path883"
       style="stroke-width:0.720178" />
  </g>
</svg>
