<?xml version="1.0" encoding="UTF-8" standalone="no"?>
<svg
   xmlns:dc="http://purl.org/dc/elements/1.1/"
   xmlns:cc="http://creativecommons.org/ns#"
   xmlns:rdf="http://www.w3.org/1999/02/22-rdf-syntax-ns#"
   xmlns:svg="http://www.w3.org/2000/svg"
   xmlns="http://www.w3.org/2000/svg"
   xmlns:sodipodi="http://sodipodi.sourceforge.net/DTD/sodipodi-0.dtd"
   xmlns:inkscape="http://www.inkscape.org/namespaces/inkscape"
   viewBox="0 0 36 36"
   version="1.1"
   id="svg845"
   sodipodi:docname="thinking_link.svg"
   inkscape:version="1.0 (4035a4f, 2020-05-01)">
  <metadata
     id="metadata851">
    <rdf:RDF>
      <cc:Work
         rdf:about="">
        <dc:format>image/svg+xml</dc:format>
        <dc:type
           rdf:resource="http://purl.org/dc/dcmitype/StillImage" />
      </cc:Work>
    </rdf:RDF>
  </metadata>
  <defs
     id="defs849" />
  <sodipodi:namedview
     inkscape:document-rotation="0"
     pagecolor="#ffffff"
     bordercolor="#666666"
     borderopacity="1"
     objecttolerance="10"
     gridtolerance="10"
     guidetolerance="10"
     inkscape:pageopacity="0"
     inkscape:pageshadow="2"
     inkscape:window-width="1920"
     inkscape:window-height="1035"
     id="namedview847"
     showgrid="false"
     inkscape:zoom="6.5702005"
     inkscape:cx="-24.352861"
     inkscape:cy="40.970842"
     inkscape:window-x="0"
     inkscape:window-y="23"
     inkscape:window-maximized="1"
     inkscape:current-layer="g902" />
  <circle
     style="stroke-width:0.813082"
     fill="#ffcb4c"
     cx="13.822392"
     cy="20.565874"
     r="13.822392"
     id="circle833" />
  <g
     id="g897"
     transform="matrix(0.91846718,0,0,0.91846718,-0.64020079,0.27183334)">
    <g
       id="g902"
       transform="translate(2.0179372,-0.29596413)">
      <path
         style="fill:#47a30b;fill-opacity:1"
         fill="#dd2e44"
         d="M 20,0 C 19.751,0 19.522,0.007 19.287,0.012 19.19,0.01 19.097,0 19,0 9,0 2,4.582 2,9 c 0,4.418 6.373,4 13,4 4.442,0 7.648,0 9.966,-0.086 L 25,13 31,28 h 2 c 0,0 0.343,-3.055 1,-7 C 35,15 34.533,0 20,0 Z"
         id="path857" />
      <circle
         fill="#f1f2f2"
         cx="32"
         cy="29"
         r="4"
         id="circle873" />
      <path
         fill="#f1f2f2"
         d="m 29,12 c 0,1.104 -0.896,2 -2,2 H 2 C 0.896,14 0,13.104 0,12 V 11 C 0,9.896 0.896,9 2,9 h 25 c 1.104,0 2,0.896 2,2 z"
         id="path875" />
    </g>
  </g>
  <path
     style="stroke-width:0.813082"
     fill="#65471b"
     d="m 10.99612,23.832837 c -0.117898,-0.09432 -0.209776,-0.222785 -0.253682,-0.37727 -0.108953,-0.374018 0.105701,-0.746409 0.479719,-0.830157 3.681634,-0.830156 6.160721,1.108231 6.265609,1.191165 0.312223,0.248804 0.373204,0.687055 0.140662,0.979764 -0.232541,0.291083 -0.673231,0.326046 -0.984641,0.07887 -0.08944,-0.0683 -2.051406,-1.563557 -5.026473,-0.892764 -0.222784,0.04959 -0.450447,-0.01301 -0.621194,-0.149607 z"
     id="path835" />
  <ellipse
     style="stroke-width:0.813082"
     fill="#65471b"
     cx="9.8537397"
     cy="15.814223"
     rx="1.7277989"
     ry="2.1595454"
     id="ellipse837" />
  <ellipse
     style="stroke-width:0.813082"
     fill="#65471b"
     cx="19.005789"
     cy="16.677717"
     rx="1.7277989"
     ry="2.1595454"
     id="ellipse839" />
  <path
     style="stroke-width:0.813082"
     fill="#f19020"
     d="m 13.233721,35.307861 c 0,0 1.028549,-0.334176 1.161894,-1.099286 0.140663,-0.790315 -0.507363,-0.948866 -0.507363,-0.948866 0,0 0.846418,-0.169122 0.952932,-1.118801 0.100009,-0.895203 -0.700064,-1.108231 -0.700064,-1.108231 0,0 0.78869,-0.325232 0.826092,-1.251333 0.0309,-0.779745 -0.809017,-1.16108 -0.809017,-1.16108 0,0 4.096307,-0.992774 4.517483,-1.090343 0.41955,-0.09757 1.073268,-0.500046 0.869185,-1.377361 -0.202458,-0.878129 -0.978951,-0.909026 -1.3798,-0.815521 -0.401662,0.0935 -5.483424,1.273286 -7.236429,1.681453 l -1.170025,0.27157 C 9.319545,27.39332 9.12034,27.200622 9.430123,26.873763 9.843169,26.437952 10.107422,25.955793 10.1993,25.155722 10.29606,24.314182 10.010664,23.275063 9.847235,22.871774 9.543142,22.122926 9.030088,21.531002 8.4373509,21.327732 c -0.9244741,-0.317103 -1.5814443,0.260999 -1.2537723,1.26922 0.4911014,1.507455 0.169121,2.744151 -0.6772972,3.490561 -1.9912376,1.753818 -2.9173379,3.004338 -2.3010218,5.66962 0.6732318,2.906768 3.5588595,4.777669 6.4656274,4.104438 z"
     id="path841" />
  <path
     style="stroke-width:0.813082"
     fill="#65471b"
     d="M 6.7453275,11.89273 C 6.6119821,11.82118 6.4989636,11.710599 6.4274124,11.56831 c -0.1756256,-0.348 -0.032523,-0.753728 0.3195412,-0.904147 3.4686074,-1.4887537 6.2599174,-0.03497 6.3770014,0.02765 0.352065,0.187821 0.494354,0.607372 0.317915,0.938295 -0.175625,0.329299 -0.601681,0.443944 -0.953745,0.258561 -0.100009,-0.05122 -2.302648,-1.164334 -5.1045283,0.03822 -0.208962,0.08862 -0.4447557,0.06911 -0.6382692,-0.03415 z m 9.8667485,3.049057 c -0.126841,-0.07968 -0.232541,-0.19758 -0.294335,-0.344748 -0.152047,-0.359381 0.0187,-0.753726 0.380522,-0.88138 3.562112,-1.248894 6.248535,0.390279 6.36074,0.461017 0.337429,0.211401 0.45126,0.639895 0.253681,0.957811 -0.196766,0.317102 -0.630951,0.402476 -0.96838,0.193514 -0.09757,-0.05854 -2.217274,-1.318006 -5.095584,-0.308159 -0.21628,0.07399 -0.449635,0.03741 -0.636644,-0.07805 z"
     id="path843" />
</svg>
