<?xml version="1.0" encoding="UTF-8" standalone="no"?>
<svg
   xmlns:dc="http://purl.org/dc/elements/1.1/"
   xmlns:cc="http://creativecommons.org/ns#"
   xmlns:rdf="http://www.w3.org/1999/02/22-rdf-syntax-ns#"
   xmlns:svg="http://www.w3.org/2000/svg"
   xmlns="http://www.w3.org/2000/svg"
   xmlns:sodipodi="http://sodipodi.sourceforge.net/DTD/sodipodi-0.dtd"
   xmlns:inkscape="http://www.inkscape.org/namespaces/inkscape"
   inkscape:export-ydpi="682.66589"
   inkscape:export-xdpi="682.66589"
   inkscape:export-filename="/Users/JP25309/personal/custom-emoji/emojis/thinking_devil.png"
   inkscape:version="1.0 (4035a4f, 2020-05-01)"
   sodipodi:docname="1f608.svg"
   id="svg839"
   version="1.1"
   viewBox="0 0 36 36">
  <metadata
     id="metadata845">
    <rdf:RDF>
      <cc:Work
         rdf:about="">
        <dc:format>image/svg+xml</dc:format>
        <dc:type
           rdf:resource="http://purl.org/dc/dcmitype/StillImage" />
      </cc:Work>
    </rdf:RDF>
  </metadata>
  <defs
     id="defs843" />
  <sodipodi:namedview
     inkscape:current-layer="svg839"
     inkscape:window-maximized="0"
     inkscape:window-y="23"
     inkscape:window-x="0"
     inkscape:cy="25.277521"
     inkscape:cx="21.42591"
     inkscape:zoom="9.2916667"
     showgrid="false"
     id="namedview841"
     inkscape:window-height="1022"
     inkscape:window-width="1198"
     inkscape:pageshadow="2"
     inkscape:pageopacity="0"
     guidetolerance="10"
     gridtolerance="10"
     objecttolerance="10"
     borderopacity="1"
     bordercolor="#666666"
     pagecolor="#ffffff" />
  <circle
     id="circle833"
     r="18"
     cy="18"
     cx="18"
     fill="#AA8DD8" />
  <path
     id="path835"
     d="M10 4C7.42 4 4.369 1.534 3.414.586 2.843.014 1.981-.157 1.235.153.487.462 0 1.191 0 2c0 3.459 1.672 10 8 10 .757 0 1.45-.428 1.789-1.106l2-4c.31-.62.277-1.356-.088-1.946C11.337 4.359 10.693 4 10 4zM34.766.153c-.75-.311-1.607-.139-2.18.434C31.7 1.472 28.589 4 26 4c-.693 0-1.337.359-1.701.949-.364.589-.397 1.326-.088 1.946l2 4C26.55 11.572 27.242 12 28 12c6.328 0 8-6.541 8-10 0-.809-.487-1.538-1.234-1.847z"
     fill="#AA8DD8" />
  <path
     style="fill:#553986;fill-opacity:1"
     id="path849"
     d="m 14.197379,21.025478 c -0.145,-0.116 -0.258,-0.274 -0.312,-0.464 -0.134,-0.46 0.13,-0.918 0.59,-1.021 4.528,-1.021 7.577,1.363 7.706,1.465 0.384,0.306 0.459,0.845 0.173,1.205 -0.286,0.358 -0.828,0.401 -1.211,0.097 -0.11,-0.084 -2.523,-1.923 -6.182,-1.098 -0.274,0.061 -0.554,-0.016 -0.764,-0.184 z"
     fill="#65471b" />
  <ellipse
     style="fill:#553986;fill-opacity:1"
     id="ellipse851"
     ry="2.6559999"
     rx="2.125"
     cy="11.163478"
     cx="12.792379"
     fill="#65471b" />
  <ellipse
     style="fill:#553986;fill-opacity:1"
     id="ellipse853"
     ry="2.6559999"
     rx="2.125"
     cy="12.225478"
     cx="24.048378"
     fill="#65471b" />
  <path
     style="fill:#6929d8;fill-opacity:1"
     id="path855"
     d="m 16.949379,35.138478 c 0,0 1.265,-0.411 1.429,-1.352 0.173,-0.972 -0.624,-1.167 -0.624,-1.167 0,0 1.041,-0.208 1.172,-1.376 0.123,-1.101 -0.861,-1.363 -0.861,-1.363 0,0 0.97,-0.4 1.016,-1.539 0.038,-0.959 -0.995,-1.428 -0.995,-1.428 0,0 5.038,-1.221 5.556,-1.341 0.516,-0.12 1.32,-0.615 1.069,-1.694 -0.249,-1.08 -1.204,-1.118 -1.697,-1.003 -0.494,0.115 -6.744,1.566 -8.9,2.068 l -1.439,0.334 c -0.54,0.127 -0.785,-0.11 -0.404,-0.512 0.508,-0.536 0.833,-1.129 0.946,-2.113 0.119,-1.035 -0.232,-2.313 -0.433,-2.809 -0.374,-0.921 -1.005,-1.649 -1.734,-1.899 -1.1370005,-0.39 -1.9450005,0.321 -1.5420005,1.561 0.6040005,1.854 0.208,3.375 -0.833,4.293 -2.449,2.157 -3.588,3.695 -2.83,6.973 0.828,3.575 4.3770005,5.876 7.9520005,5.048 z"
     fill="#f19020" />
  <path
     style="fill:#553986;fill-opacity:1"
     id="path857"
     d="m 8.9693785,6.3404783 c -0.164,-0.088 -0.303,-0.224 -0.391,-0.399 -0.216,-0.428 -0.04,-0.927 0.393,-1.112 4.2660005,-1.831 7.6990005,-0.043 7.8430005,0.034 0.433,0.231 0.608,0.747 0.391,1.154 -0.216,0.405 -0.74,0.546 -1.173,0.318 -0.123,-0.063 -2.832,-1.432 -6.2780005,0.047 -0.257,0.109 -0.547,0.085 -0.785,-0.042 z M 21.104379,10.090478 c -0.156,-0.098 -0.286,-0.2429997 -0.362,-0.4239997 -0.187,-0.442 0.023,-0.927 0.468,-1.084 4.381,-1.536 7.685,0.48 7.823,0.567 0.415,0.26 0.555,0.787 0.312,1.1779997 -0.242,0.39 -0.776,0.495 -1.191,0.238 -0.12,-0.072 -2.727,-1.6209997 -6.267,-0.379 -0.266,0.091 -0.553,0.046 -0.783,-0.096 z"
     fill="#65471b" />
</svg>
