<?xml version="1.0" encoding="UTF-8" standalone="no"?>
<svg
   xmlns:dc="http://purl.org/dc/elements/1.1/"
   xmlns:cc="http://creativecommons.org/ns#"
   xmlns:rdf="http://www.w3.org/1999/02/22-rdf-syntax-ns#"
   xmlns:svg="http://www.w3.org/2000/svg"
   xmlns="http://www.w3.org/2000/svg"
   xmlns:sodipodi="http://sodipodi.sourceforge.net/DTD/sodipodi-0.dtd"
   xmlns:inkscape="http://www.inkscape.org/namespaces/inkscape"
   inkscape:export-ydpi="683.35974"
   inkscape:export-xdpi="683.35974"
   inkscape:export-filename="/Users/JP25309/personal/custom-emoji/thinking_money_with_wings.png"
   inkscape:version="1.0 (4035a4f, 2020-05-01)"
   sodipodi:docname="thinking_money_with_wings.svg"
   id="svg32"
   version="1.1"
   viewBox="0 0 36 36">
  <metadata
     id="metadata38">
    <rdf:RDF>
      <cc:Work
         rdf:about="">
        <dc:format>image/svg+xml</dc:format>
        <dc:type
           rdf:resource="http://purl.org/dc/dcmitype/StillImage" />
      </cc:Work>
    </rdf:RDF>
  </metadata>
  <defs
     id="defs36" />
  <sodipodi:namedview
     inkscape:current-layer="layer2"
     inkscape:window-maximized="1"
     inkscape:window-y="23"
     inkscape:window-x="0"
     inkscape:cy="41.289565"
     inkscape:cx="22.861639"
     inkscape:zoom="3.6091909"
     showgrid="false"
     id="namedview34"
     inkscape:window-height="1035"
     inkscape:window-width="1920"
     inkscape:pageshadow="2"
     inkscape:pageopacity="0"
     guidetolerance="10"
     gridtolerance="10"
     objecttolerance="10"
     borderopacity="1"
     bordercolor="#666666"
     pagecolor="#ffffff" />
  <g
     style="display:inline"
     inkscape:label="Layer 2"
     id="layer2"
     inkscape:groupmode="layer">
    <path
       style="fill:#72b649;fill-opacity:1"
       id="path10"
       d="M 35.602,16.28 C 33.02,12.519 27.682,18.054 17.94,19.179 14.333,19.595 11.083,22.607 6.893,22.32 5.175,22.202 2.776,17.259 0.98,18.047 0.056,18.453 -0.368,19.808 0.582,20.826 L 11.13,33.412 c 0,0 0.536,0.618 2.342,0.19 0.445,0.131 7.135,-2.55 11.003,-7.917 0.926,-1.285 2.03,-2.355 3.173,-3.249 3.711,-2.744 7.745,-3.7 7.745,-3.7 0.516,-0.426 0.637,-0.879 0.609,-1.272 0.034,-0.656 -0.4,-1.184 -0.4,-1.184 z"
       fill="#5c913b" />
    <path
       style="fill:#c5e1b2;fill-opacity:1"
       id="path12"
       d="m 11.476,10.274 c -3.783,5.25 -10.408,7.737 -10.408,7.737 -1.236,1.047 -0.192,2.281 -0.192,2.281 l 10.438,12.359 c 0,0 0.522,0.617 2.28,0.189 0,0 6.625,-2.482 10.407,-7.732 3.899,-5.41 10.93,-7.118 10.93,-7.118 1.235,-1.047 0.192,-2.283 0.192,-2.283 L 24.685,3.35 c 0,0 -0.522,-0.618 -2.28,-0.192 0,0 -7.03,1.704 -10.929,7.116 z"
       fill="#a7d28b" />
    <circle
       style="fill:#94c379;fill-opacity:1"
       id="circle14"
       r="5.5"
       cy="14"
       cx="22"
       fill="#77b255" />
    <path
       style="fill:#71b54a;fill-opacity:1"
       id="path16"
       d="m 12.873,31.929 c -0.881,0 -1.204,-0.328 -1.248,-0.378 L 2.216,20.568 C 2.198,20.547 1.721,20.001 1.779,19.307 1.814,18.886 2.032,18.511 2.426,18.192 L 2.489,18.154 C 2.55,18.13 8.652,15.622 12.072,11.089 l 0.2,0.15 -0.2,-0.15 c 3.618,-4.796 9.859,-6.854 9.921,-6.874 1.745,-0.406 2.316,0.174 2.377,0.242 l 9.285,11.044 c 0.017,0.018 0.493,0.566 0.435,1.261 -0.035,0.42 -0.253,0.795 -0.647,1.114 l -0.099,0.049 c -0.061,0.015 -6.129,1.523 -9.644,6.181 -3.499,4.64 -9.607,7.642 -9.668,7.671 -0.464,0.11 -0.846,0.152 -1.159,0.152 z m -0.871,-0.707 c 10e-4,0 0.452,0.416 1.865,0.088 0.008,-0.011 6.009,-2.962 9.436,-7.504 3.437,-4.555 9.225,-6.182 9.867,-6.351 0.257,-0.221 0.399,-0.466 0.422,-0.729 0.042,-0.48 -0.312,-0.893 -0.315,-0.897 L 23.992,4.784 c -0.002,0 -0.45,-0.415 -1.864,-0.087 -0.041,0.014 -6.135,2.026 -9.656,6.693 -3.366,4.461 -9.239,6.995 -9.758,7.213 -0.268,0.225 -0.414,0.476 -0.437,0.745 -0.04,0.476 0.312,0.887 0.315,0.891 z"
       fill="#5c913b" />
    <path
       id="path18"
       d="m 21.276,22.166 -0.006,5.94 0.497,0.59 c 0.969,-0.884 1.9,-1.878 2.705,-2.996 0.835,-1.158 1.805,-2.149 2.828,-2.986 l -0.483,-0.575 z"
       fill="#ffac33" />
    <path
       id="path20"
       d="M 26.798,22.118 14.292,7.305 C 13.276,8.141 12.3,9.116 11.47,10.269 10.659,11.395 9.715,12.386 8.735,13.26 l 1.462,1.731 -10e-4,0.001 11.075,13.114 c 0.98,-0.875 1.913,-1.876 2.725,-3.003 0.83,-1.152 1.805,-2.126 2.82,-2.962 l -0.019,-0.023 z"
       fill="#ffe8b6" />
    <path
       style="fill:#72b649;fill-opacity:1"
       id="path22"
       d="M 14.479,22.555 C 12.922,20.711 9.626,23.703 8.686,22.59 8.231,22.051 8.524,21.352 9.122,20.848 c 1.005,-0.85 1.73,-0.355 2.185,-0.74 0.323,-0.272 0.306,-0.605 0.114,-0.834 -0.446,-0.527 -1.586,-0.252 -2.472,0.26 L 8.518,19.024 C 8.249,18.706 7.773,18.665 7.455,18.934 7.137,19.204 7.097,19.678 7.366,19.996 l 0.446,0.529 c -0.677,0.898 -0.907,2.09 -0.106,3.037 1.496,1.77 4.833,-1.172 5.883,0.072 0.364,0.432 0.262,1.256 -0.504,1.902 -1.148,0.971 -2.188,0.516 -2.655,0.91 -0.228,0.191 -0.269,0.555 -0.026,0.844 0.387,0.457 1.62,0.359 2.805,-0.379 0.002,0.002 0.002,0.004 0.002,0.006 l 0.487,0.576 c 0.269,0.318 0.746,0.357 1.064,0.09 0.319,-0.27 0.358,-0.746 0.089,-1.064 l -0.487,-0.576 c -0.005,-0.006 -0.013,-0.01 -0.019,-0.016 0.799,-0.978 1.069,-2.267 0.134,-3.372 z"
       fill="#5c913b" />
    <path
       id="path26"
       d="m 21.277,25.231 c 0.906,0.905 2.321,0.979 3.37,0.261 0.439,-0.75 0.565,-1.463 0.565,-1.686 -2.207,1.646 -4.177,0.009 -4.618,-0.97 -0.183,0.846 0.039,1.75 0.683,2.395 z m 7.299,3.84 c 0.298,-0.419 0.529,-0.824 0.637,-1.098 -1.405,1.288 -4.091,0.345 -4.905,-1.698 -0.358,0.95 -0.175,2.044 0.571,2.79 1.002,1.002 2.634,0.994 3.697,0.006 z m 3.854,3.595 0.029,-0.036 c 0.01,-0.008 0.02,-0.014 0.028,-0.022 0.069,-0.068 0.122,-0.146 0.181,-0.22 0.043,-0.053 0.089,-0.102 0.128,-0.156 0.036,-0.049 0.065,-0.101 0.097,-0.152 0.065,-0.1 0.1,-0.218 0.155,-0.324 -2.528,1.131 -4.415,-0.788 -4.944,-1.745 -0.295,0.917 -0.103,1.944 0.609,2.657 1.006,1.007 2.648,0.995 3.711,-0.006 z"
       fill="#ccd6dd" />
    <path
       id="path30"
       d="M 2.773,5.1 C 3.679,6.006 5.094,6.08 6.143,5.36 6.582,4.61 6.707,3.898 6.707,3.675 4.501,5.32 2.53,3.682 2.09,2.703 1.907,3.55 2.129,4.455 2.773,5.1 Z m 7.301,3.838 C 10.371,8.519 10.602,8.116 10.709,7.842 9.303,9.13 6.617,8.186 5.804,6.143 c -0.358,0.95 -0.175,2.044 0.57,2.79 1.004,1.003 2.637,0.994 3.7,0.005 z m 3.851,3.597 c 0.011,-0.011 0.02,-0.024 0.03,-0.036 l 0.028,-0.022 c 0.069,-0.068 0.122,-0.146 0.181,-0.22 0.042,-0.052 0.088,-0.101 0.127,-0.155 0.036,-0.05 0.065,-0.101 0.097,-0.152 0.065,-0.1 0.1,-0.219 0.155,-0.325 -2.528,1.131 -4.415,-0.787 -4.944,-1.744 -0.295,0.917 -0.103,1.944 0.609,2.656 1.007,1.007 2.649,0.995 3.711,-0.006 z"
       fill="#ccd6dd" />
    <path
       id="path28"
       d="m 13.956,12.498 0.028,-0.022 c 0.069,-0.068 0.122,-0.146 0.181,-0.22 0.042,-0.052 0.088,-0.101 0.127,-0.155 C 14.328,12.051 14.357,12 14.389,11.949 15.809,9.762 14.878,6.053 12.067,3.242 9.255,0.43 5.547,-0.501 3.36,0.919 3.309,0.951 3.257,0.98 3.207,1.016 3.153,1.055 3.104,1.101 3.052,1.143 2.978,1.203 2.9,1.255 2.832,1.324 2.823,1.333 2.817,1.344 2.81,1.352 2.799,1.362 2.785,1.371 2.774,1.382 l 0.005,0.005 c -1,1.062 -1.012,2.705 -0.005,3.712 1.007,1.007 2.65,0.995 3.712,-0.005 L 6.497,5.105 C 6.476,5.124 6.453,5.138 6.433,5.158 5.374,6.217 5.349,7.906 6.375,8.933 7.401,9.96 9.091,9.934 10.15,8.875 10.17,8.855 10.183,8.832 10.203,8.811 l 0.011,0.011 c -1,1.062 -1.013,2.705 -0.005,3.712 1.007,1.007 2.649,0.995 3.711,-0.006 l 0.005,0.006 c 0.011,-0.011 0.02,-0.024 0.031,-0.036 z"
       fill="#e1e8ed"
       style="display:inline" />
  </g>
  <g
     style="display:inline"
     inkscape:label="Layer 1"
     id="layer1"
     inkscape:groupmode="layer">
    <g
       transform="matrix(0.80478879,0,0,0.80478879,3.054641,6.8327019)"
       id="g66">
      <path
         style="fill:#225500"
         fill="#65471b"
         d="m 14.524,21.036 c -0.145,-0.116 -0.258,-0.274 -0.312,-0.464 -0.134,-0.46 0.13,-0.918 0.59,-1.021 4.528,-1.021 7.577,1.363 7.706,1.465 0.384,0.306 0.459,0.845 0.173,1.205 -0.286,0.358 -0.828,0.401 -1.211,0.097 -0.11,-0.084 -2.523,-1.923 -6.182,-1.098 -0.274,0.061 -0.554,-0.016 -0.764,-0.184 z"
         id="path42" />
      <ellipse
         style="fill:#225500"
         fill="#65471b"
         cx="13.119"
         cy="11.174"
         rx="2.125"
         ry="2.6559999"
         id="ellipse44" />
      <ellipse
         style="fill:#225500"
         fill="#65471b"
         cx="24.375"
         cy="12.236"
         rx="2.125"
         ry="2.6559999"
         id="ellipse46" />
      <path
         fill="#f19020"
         d="m 17.276,35.149 c 0,0 1.265,-0.411 1.429,-1.352 0.173,-0.972 -0.624,-1.167 -0.624,-1.167 0,0 1.041,-0.208 1.172,-1.376 0.123,-1.101 -0.861,-1.363 -0.861,-1.363 0,0 0.97,-0.4 1.016,-1.539 0.038,-0.959 -0.995,-1.428 -0.995,-1.428 0,0 5.038,-1.221 5.556,-1.341 0.516,-0.12 1.32,-0.615 1.069,-1.694 -0.249,-1.08 -1.204,-1.118 -1.697,-1.003 -0.494,0.115 -6.744,1.566 -8.9,2.068 l -1.439,0.334 c -0.54,0.127 -0.785,-0.11 -0.404,-0.512 0.508,-0.536 0.833,-1.129 0.946,-2.113 0.119,-1.035 -0.232,-2.313 -0.433,-2.809 -0.374,-0.921 -1.005,-1.649 -1.734,-1.899 -1.137,-0.39 -1.945,0.321 -1.542,1.561 0.604,1.854 0.208,3.375 -0.833,4.293 -2.449,2.157 -3.588,3.695 -2.83,6.973 0.828,3.575 4.377,5.876 7.952,5.048 z"
         id="path48" />
      <path
         style="fill:#225500"
         fill="#65471b"
         d="M 9.296,6.351 C 9.132,6.263 8.993,6.127 8.905,5.952 8.689,5.524 8.865,5.025 9.298,4.84 c 4.266,-1.831 7.699,-0.043 7.843,0.034 0.433,0.231 0.608,0.747 0.391,1.154 -0.216,0.405 -0.74,0.546 -1.173,0.318 C 16.236,6.283 13.527,4.914 10.081,6.393 9.824,6.502 9.534,6.478 9.296,6.351 Z m 12.135,3.75 C 21.275,10.003 21.145,9.858 21.069,9.677 20.882,9.235 21.092,8.75 21.537,8.593 c 4.381,-1.536 7.685,0.48 7.823,0.567 0.415,0.26 0.555,0.787 0.312,1.178 -0.242,0.39 -0.776,0.495 -1.191,0.238 -0.12,-0.072 -2.727,-1.621 -6.267,-0.379 -0.266,0.091 -0.553,0.046 -0.783,-0.096 z"
         id="path50" />
    </g>
  </g>
  <g
     inkscape:label="Layer 3"
     id="layer3"
     inkscape:groupmode="layer">
    <path
       id="path24"
       d="m 32.456,32.588 c 0.009,-0.008 0.019,-0.014 0.028,-0.021 0.068,-0.068 0.121,-0.146 0.181,-0.221 0.042,-0.052 0.089,-0.102 0.128,-0.155 0.035,-0.05 0.064,-0.101 0.096,-0.152 1.42,-2.187 0.49,-5.895 -2.321,-8.707 -2.812,-2.812 -6.521,-3.742 -8.707,-2.321 -0.052,0.031 -0.103,0.06 -0.153,0.096 -0.053,0.039 -0.104,0.086 -0.154,0.127 -0.074,0.061 -0.152,0.113 -0.221,0.182 -0.009,0.009 -0.015,0.019 -0.022,0.028 -0.011,0.011 -0.024,0.018 -0.036,0.03 l 0.006,0.005 c -1,1.062 -1.012,2.705 -0.006,3.712 1.008,1.008 2.65,0.994 3.713,-0.006 l 0.011,0.012 c -0.021,0.02 -0.044,0.033 -0.064,0.053 -1.059,1.059 -1.084,2.748 -0.059,3.775 1.026,1.025 2.717,1 3.775,-0.059 0.02,-0.02 0.033,-0.043 0.053,-0.064 l 0.011,0.012 c -1,1.062 -1.013,2.705 -0.005,3.713 1.007,1.006 2.649,0.994 3.711,-0.006 l 0.006,0.006 c 0.01,-0.014 0.018,-0.027 0.029,-0.039 z"
       fill="#e1e8ed"
       style="display:inline" />
  </g>
</svg>
