<?xml version="1.0" encoding="UTF-8" standalone="no"?>
<svg
   xmlns:dc="http://purl.org/dc/elements/1.1/"
   xmlns:cc="http://creativecommons.org/ns#"
   xmlns:rdf="http://www.w3.org/1999/02/22-rdf-syntax-ns#"
   xmlns:svg="http://www.w3.org/2000/svg"
   xmlns="http://www.w3.org/2000/svg"
   xmlns:sodipodi="http://sodipodi.sourceforge.net/DTD/sodipodi-0.dtd"
   xmlns:inkscape="http://www.inkscape.org/namespaces/inkscape"
   inkscape:export-ydpi="682.66669"
   inkscape:export-xdpi="682.66669"
   inkscape:export-filename="/Users/JP25309/personal/custom-emoji/thinking-eyes.png"
   inkscape:version="1.0 (4035a4f, 2020-05-01)"
   sodipodi:docname="thinking-eyes.svg"
   id="svg22"
   version="1.1"
   viewBox="0 0 36 36">
  <metadata
     id="metadata28">
    <rdf:RDF>
      <cc:Work
         rdf:about="">
        <dc:format>image/svg+xml</dc:format>
        <dc:type
           rdf:resource="http://purl.org/dc/dcmitype/StillImage" />
      </cc:Work>
    </rdf:RDF>
  </metadata>
  <defs
     id="defs26" />
  <sodipodi:namedview
     inkscape:current-layer="layer2"
     inkscape:window-maximized="0"
     inkscape:window-y="60"
     inkscape:window-x="262"
     inkscape:cy="17.581791"
     inkscape:cx="13.691936"
     inkscape:zoom="9.2916667"
     showgrid="false"
     id="namedview24"
     inkscape:window-height="933"
     inkscape:window-width="1204"
     inkscape:pageshadow="2"
     inkscape:pageopacity="0"
     guidetolerance="10"
     gridtolerance="10"
     objecttolerance="10"
     borderopacity="1"
     bordercolor="#666666"
     pagecolor="#ffffff" />
  <g
     style="display:inline"
     inkscape:label="Layer 1"
     id="layer1"
     inkscape:groupmode="layer">
    <path
       style="fill:#292f33;fill-opacity:1"
       id="path12"
       d="m 14.524,21.036 c -0.145,-0.116 -0.258,-0.274 -0.312,-0.464 -0.134,-0.46 0.13,-0.918 0.59,-1.021 4.528,-1.021 7.577,1.363 7.706,1.465 0.384,0.306 0.459,0.845 0.173,1.205 -0.286,0.358 -0.828,0.401 -1.211,0.097 -0.11,-0.084 -2.523,-1.923 -6.182,-1.098 -0.274,0.061 -0.554,-0.016 -0.764,-0.184 z"
       fill="#65471b" />
    <path
       id="path18"
       d="m 17.276,35.149 c 0,0 1.265,-0.411 1.429,-1.352 0.173,-0.972 -0.624,-1.167 -0.624,-1.167 0,0 1.041,-0.208 1.172,-1.376 0.123,-1.101 -0.861,-1.363 -0.861,-1.363 0,0 0.97,-0.4 1.016,-1.539 0.038,-0.959 -0.995,-1.428 -0.995,-1.428 0,0 5.038,-1.221 5.556,-1.341 0.516,-0.12 1.32,-0.615 1.069,-1.694 -0.249,-1.08 -1.204,-1.118 -1.697,-1.003 -0.494,0.115 -6.744,1.566 -8.9,2.068 l -1.439,0.334 c -0.54,0.127 -0.785,-0.11 -0.404,-0.512 0.508,-0.536 0.833,-1.129 0.946,-2.113 0.119,-1.035 -0.232,-2.313 -0.433,-2.809 -0.374,-0.921 -1.005,-1.649 -1.734,-1.899 -1.137,-0.39 -1.945,0.321 -1.542,1.561 0.604,1.854 0.208,3.375 -0.833,4.293 -2.449,2.157 -3.588,3.695 -2.83,6.973 0.828,3.575 4.377,5.876 7.952,5.048 z"
       fill="#f19020" />
  </g>
  <g
     style="display:inline"
     inkscape:label="Layer 2"
     id="layer2"
     inkscape:groupmode="layer">
    <g
       transform="matrix(0.6168438,0,0,0.58963384,8.9760357,-1.4116155)"
       id="g76">
      <ellipse
         fill="#f5f8fa"
         cx="8.8280001"
         cy="18"
         rx="7.9530001"
         ry="13.281"
         id="ellipse38" />
      <path
         style="opacity:1"
         fill="#e1e8ed"
         d="m 8.828,32.031 c -4.88,0 -8.703,-6.163 -8.703,-14.031 0,-7.868 3.823,-14.031 8.703,-14.031 4.88,0 8.703,6.163 8.703,14.031 0,7.868 -3.823,14.031 -8.703,14.031 z m 0,-26.562 C 4.856,5.469 1.625,11.09 1.625,18 c 0,6.91 3.231,12.531 7.203,12.531 3.972,0 7.203,-5.621 7.203,-12.531 0,-6.91 -3.231,-12.531 -7.203,-12.531 z"
         id="path40" />
      <circle
         fill="#8899a6"
         cx="6.5939999"
         cy="18"
         r="4.96"
         id="circle42" />
      <circle
         fill="#292f33"
         cx="6.5939999"
         cy="18"
         r="3.5650001"
         id="circle44" />
      <circle
         fill="#f5f8fa"
         cx="7.9109998"
         cy="15.443"
         r="1.426"
         id="circle46" />
      <ellipse
         fill="#f5f8fa"
         cx="27.233999"
         cy="18"
         rx="7.9530001"
         ry="13.281"
         id="ellipse48" />
      <path
         fill="#e1e8ed"
         d="m 27.234,32.031 c -4.88,0 -8.703,-6.163 -8.703,-14.031 0,-7.868 3.823,-14.031 8.703,-14.031 4.88,0 8.704,6.163 8.704,14.031 0,7.868 -3.824,14.031 -8.704,14.031 z m 0,-26.562 c -3.972,0 -7.203,5.622 -7.203,12.531 0,6.91 3.231,12.531 7.203,12.531 3.972,0 7.204,-5.621 7.204,-12.531 0,-6.91 -3.232,-12.531 -7.204,-12.531 z"
         id="path50" />
      <circle
         fill="#8899a6"
         cx="25"
         cy="18"
         r="4.96"
         id="circle52" />
      <circle
         fill="#292f33"
         cx="25"
         cy="18"
         r="3.5650001"
         id="circle54" />
      <circle
         fill="#f5f8fa"
         cx="26.316999"
         cy="15.443"
         r="1.426"
         id="circle56" />
    </g>
  </g>
</svg>
