<?xml version="1.0" encoding="UTF-8" standalone="no"?>
<svg
   xmlns:dc="http://purl.org/dc/elements/1.1/"
   xmlns:cc="http://creativecommons.org/ns#"
   xmlns:rdf="http://www.w3.org/1999/02/22-rdf-syntax-ns#"
   xmlns:svg="http://www.w3.org/2000/svg"
   xmlns="http://www.w3.org/2000/svg"
   xmlns:sodipodi="http://sodipodi.sourceforge.net/DTD/sodipodi-0.dtd"
   xmlns:inkscape="http://www.inkscape.org/namespaces/inkscape"
   inkscape:export-ydpi="682.66998"
   inkscape:export-xdpi="682.66998"
   inkscape:export-filename="/Users/JP25309/personal/custom-emoji/emojis/thinking_dizzy_face.png"
   inkscape:version="1.0 (4035a4f, 2020-05-01)"
   sodipodi:docname="thinking_dizzy_face.svg"
   id="svg867"
   version="1.1"
   viewBox="0 0 36 36">
  <metadata
     id="metadata873">
    <rdf:RDF>
      <cc:Work
         rdf:about="">
        <dc:format>image/svg+xml</dc:format>
        <dc:type
           rdf:resource="http://purl.org/dc/dcmitype/StillImage" />
      </cc:Work>
    </rdf:RDF>
  </metadata>
  <defs
     id="defs871" />
  <sodipodi:namedview
     inkscape:current-layer="svg867"
     inkscape:window-maximized="1"
     inkscape:window-y="23"
     inkscape:window-x="0"
     inkscape:cy="152.24986"
     inkscape:cx="-241.84411"
     inkscape:zoom="1.6425501"
     showgrid="false"
     id="namedview869"
     inkscape:window-height="1035"
     inkscape:window-width="1920"
     inkscape:pageshadow="2"
     inkscape:pageopacity="0"
     guidetolerance="10"
     gridtolerance="10"
     objecttolerance="10"
     borderopacity="1"
     bordercolor="#666666"
     pagecolor="#ffffff" />
  <circle
     id="circle855"
     r="17"
     cy="17.018"
     cx="18"
     fill="#FFCB4C" />
  <path
     id="path857"
     d="m 14.093507,21.789363 c -0.145,-0.116 -0.258,-0.274 -0.312,-0.464 -0.134,-0.46 0.13,-0.918 0.59,-1.021 4.528,-1.021 7.577,1.363 7.706,1.465 0.384,0.306 0.459,0.845 0.173,1.205 -0.286,0.358 -0.828,0.401 -1.211,0.097 -0.11,-0.084 -2.523,-1.923 -6.182,-1.098 -0.274,0.061 -0.554,-0.016 -0.764,-0.184 z"
     fill="#65471b" />
  <path
     id="path863"
     d="M17.276 35.149s1.265-.411 1.429-1.352c.173-.972-.624-1.167-.624-1.167s1.041-.208 1.172-1.376c.123-1.101-.861-1.363-.861-1.363s.97-.4 1.016-1.539c.038-.959-.995-1.428-.995-1.428s5.038-1.221 5.556-1.341c.516-.12 1.32-.615 1.069-1.694-.249-1.08-1.204-1.118-1.697-1.003-.494.115-6.744 1.566-8.9 2.068l-1.439.334c-.54.127-.785-.11-.404-.512.508-.536.833-1.129.946-2.113.119-1.035-.232-2.313-.433-2.809-.374-.921-1.005-1.649-1.734-1.899-1.137-.39-1.945.321-1.542 1.561.604 1.854.208 3.375-.833 4.293-2.449 2.157-3.588 3.695-2.83 6.973.828 3.575 4.377 5.876 7.952 5.048l3.152-.681z"
     fill="#F19020" />
  <path
     id="path865"
     d="M9.296 6.351c-.164-.088-.303-.224-.391-.399-.216-.428-.04-.927.393-1.112 4.266-1.831 7.699-.043 7.843.034.433.231.608.747.391 1.154-.216.405-.74.546-1.173.318-.123-.063-2.832-1.432-6.278.047-.257.109-.547.085-.785-.042zm12.135 3.75c-.156-.098-.286-.243-.362-.424-.187-.442.023-.927.468-1.084 4.381-1.536 7.685.48 7.823.567.415.26.555.787.312 1.178-.242.39-.776.495-1.191.238-.12-.072-2.727-1.621-6.267-.379-.266.091-.553.046-.783-.096z"
     fill="#65471B" />
  <path
     d="m 24.566992,14.14329 1.466493,-1.466493 c 0.319799,-0.319799 0.319799,-0.836711 0,-1.15651 -0.319798,-0.319798 -0.836711,-0.319798 -1.156509,0 L 23.410483,12.98678 21.94399,11.520287 c -0.319798,-0.319798 -0.836711,-0.319798 -1.156509,0 -0.319799,0.319799 -0.319799,0.836711 0,1.15651 l 1.466493,1.466493 -1.466493,1.466492 c -0.319799,0.319799 -0.319799,0.836711 0,1.15651 0.15949,0.15949 0.368872,0.239644 0.578255,0.239644 0.209382,0 0.418764,-0.08015 0.578254,-0.239644 l 1.466493,-1.466493 1.466493,1.466493 c 0.15949,0.15949 0.368872,0.239644 0.578255,0.239644 0.209382,0 0.418764,-0.08015 0.578254,-0.239644 0.319799,-0.319799 0.319799,-0.836711 0,-1.15651 z"
     id="path1461"
     style="fill:#65471b;fill-opacity:1;stroke-width:0.817899" />
  <path
     d="m 12.570944,12.462573 1.466493,-1.466493 c 0.319799,-0.319799 0.319799,-0.836711 0,-1.1565085 -0.319798,-0.319799 -0.836711,-0.319799 -1.156509,0 L 11.414435,11.306064 9.9479418,9.8395715 c -0.319798,-0.319799 -0.83671,-0.319799 -1.156509,0 -0.319798,0.3197975 -0.319798,0.8367095 0,1.1565085 l 1.4664932,1.466493 -1.4664932,1.466493 c -0.319798,0.319798 -0.319798,0.83671 0,1.156509 0.159491,0.15949 0.368873,0.239644 0.578255,0.239644 0.209382,0 0.418764,-0.08015 0.578254,-0.239644 l 1.4664932,-1.466493 1.466493,1.466493 c 0.15949,0.15949 0.368872,0.239644 0.578254,0.239644 0.209383,0 0.418765,-0.08015 0.578255,-0.239644 0.319799,-0.319799 0.319799,-0.836711 0,-1.156509 z"
     id="path1459"
     style="fill:#65471b;fill-opacity:1;stroke-width:0.817899" />
</svg>
