<?xml version="1.0" encoding="UTF-8" standalone="no"?>
<svg
   viewBox="0 0 36 36"
   version="1.1"
   id="svg7"
   sodipodi:docname="thinking_frog.svg"
   xml:space="preserve"
   inkscape:version="1.3.2 (091e20e, 2023-11-25)"
   inkscape:export-filename="thinking_frog.png"
   inkscape:export-xdpi="682.66669"
   inkscape:export-ydpi="682.66669"
   xmlns:inkscape="http://www.inkscape.org/namespaces/inkscape"
   xmlns:sodipodi="http://sodipodi.sourceforge.net/DTD/sodipodi-0.dtd"
   xmlns="http://www.w3.org/2000/svg"
   xmlns:svg="http://www.w3.org/2000/svg"><defs
     id="defs7" /><sodipodi:namedview
     id="namedview7"
     pagecolor="#ffffff"
     bordercolor="#000000"
     borderopacity="0.25"
     inkscape:showpageshadow="2"
     inkscape:pageopacity="0.0"
     inkscape:pagecheckerboard="0"
     inkscape:deskcolor="#d1d1d1"
     inkscape:zoom="3.2777778"
     inkscape:cx="21.661017"
     inkscape:cy="79.016949"
     inkscape:window-width="1920"
     inkscape:window-height="957"
     inkscape:window-x="0"
     inkscape:window-y="25"
     inkscape:window-maximized="1"
     inkscape:current-layer="g7" /><path
     fill="#c6e5b3"
     d="m 33.734861,21.568545 c 0,6.651768 -7.189726,10.705635 -16.058452,10.705635 -8.8687267,0 -16.0584528,-4.053867 -16.0584528,-10.705635 0,-6.651768 7.1897261,-13.3820437 16.0584528,-13.3820437 8.868726,0 16.058452,6.7302757 16.058452,13.3820437 z"
     id="path1"
     style="stroke-width:0.892136" /><path
     fill="#77b255"
     d="m 29.947743,13.250267 c 1.220442,-0.98135 2.002846,-2.4846 2.002846,-4.1716299 0,-2.955647 -2.39717,-5.3528171 -5.352818,-5.3528171 -2.552402,0 -4.683715,1.787841 -5.219889,4.1796583 C 20.22881,7.4745765 18.98428,7.2292391 17.676409,7.2292391 c -1.30698,0 -2.552402,0.2453374 -3.701474,0.6762392 C 13.438761,5.513661 11.307448,3.72582 8.7550462,3.72582 c -2.9556474,0 -5.3528175,2.3971701 -5.3528175,5.3528171 0,1.6870299 0.7824035,3.1902799 2.0028459,4.1716299 -2.3597004,2.390925 -3.7871184,5.360846 -3.7871184,8.318278 0,6.651768 7.1897261,0.892136 16.0584528,0.892136 8.868726,0 16.058452,5.759632 16.058452,-0.892136 0,-2.957432 -1.427418,-5.927353 -3.787118,-8.318278 z"
     id="path2"
     style="stroke-width:0.892136" /><circle
     fill="#ffffff"
     cx="8.3089781"
     cy="8.6325693"
     r="3.1224768"
     id="circle2"
     style="stroke-width:0.892136" /><circle
     fill="#292f33"
     cx="8.3089781"
     cy="8.6325693"
     r="1.3382044"
     id="circle3"
     style="stroke-width:0.892136" /><circle
     fill="#ffffff"
     cx="27.043839"
     cy="8.6325693"
     r="3.1224768"
     id="circle4"
     style="stroke-width:0.892136" /><circle
     fill="#292f33"
     cx="27.043839"
     cy="8.6325693"
     r="1.3382044"
     id="circle5"
     style="stroke-width:0.892136" /><circle
     fill="#5c913b"
     cx="14.107863"
     cy="19.784271"
     r="0.89213628"
     id="circle6"
     style="stroke-width:0.892136" /><circle
     fill="#5c913b"
     cx="21.244953"
     cy="19.784271"
     r="0.89213628"
     id="circle7"
     style="stroke-width:0.892136" /><g
     id="g7"
     transform="translate(51.711864,-0.16099277)"><path
       fill="#f19020"
       d="m -38.650371,35.250012 c 0,0 1.114652,-0.362151 1.25916,-1.191312 0.152439,-0.856475 -0.549836,-1.028299 -0.549836,-1.028299 0,0 0.917275,-0.183279 1.032705,-1.21246 0.108382,-0.970144 -0.758668,-1.201005 -0.758668,-1.201005 0,0 0.854713,-0.352459 0.895246,-1.356086 0.03348,-0.845021 -0.876742,-1.25828 -0.876742,-1.25828 0,0 4.439224,-1.075881 4.895658,-1.181619 0.454673,-0.105738 1.163116,-0.541906 0.941947,-1.492665 -0.219405,-0.95164 -1.060902,-0.985123 -1.495308,-0.883791 -0.435287,0.101332 -5.942462,1.379878 -7.842217,1.822214 l -1.267972,0.294303 c -0.47582,0.111906 -0.691701,-0.09693 -0.355983,-0.451147 0.447623,-0.472296 0.733996,-0.994817 0.833566,-1.861866 0.104856,-0.911988 -0.204427,-2.038095 -0.381538,-2.475145 -0.329549,-0.811537 -0.885553,-1.453013 -1.52791,-1.6733 -1.001865,-0.343648 -1.713833,0.282849 -1.35873,1.375472 0.532213,1.633649 0.183278,2.973875 -0.733997,3.782768 -2.157931,1.900637 -3.161559,3.255842 -2.493648,6.144245 0.72959,3.150104 3.856784,5.177626 7.006888,4.448035 z"
       id="path2-5"
       style="fill:#198028;fill-opacity:1;stroke-width:0.881148" /></g><path
     d="m 26.918719,3.1105019 c -1.015295,-0.008 -2.162376,0.1441724 -3.394531,0.5761719 -0.444999,0.1569999 -0.65575,0.6419848 -0.46875,1.0839844 0.076,0.1809998 0.205328,0.3258282 0.361328,0.4238281 0.23,0.1419999 0.517204,0.1867031 0.783203,0.095703 3.539997,-1.2419987 6.147579,0.3069064 6.267578,0.3789063 0.415,0.2569997 0.949407,0.1517184 1.191407,-0.2382813 0.243,-0.3909996 0.102499,-0.9177346 -0.3125,-1.1777343 -0.09919,-0.062531 -1.83309,-1.1221338 -4.427735,-1.1425781 z"
     style="fill:#3e651b;fill-opacity:1"
     id="path9" /><path
     d="M 7.6308594,0.03125 C 6.5353819,0.05926023 5.2823424,0.27742246 3.9492188,0.84960938 3.5162192,1.0346092 3.3406408,1.5329379 3.5566406,1.9609375 c 0.088,0.1749998 0.2266252,0.3123907 0.390625,0.4003906 0.2379998,0.1269999 0.5281565,0.1500155 0.7851563,0.041016 3.4459965,-1.47899858 6.1562971,-0.109875 6.2792971,-0.046875 0.432999,0.2279997 0.955875,0.08664 1.171875,-0.3183594 0.217,-0.4069996 0.04237,-0.921344 -0.390625,-1.15234377 C 11.693969,0.83182818 10.04091,-0.0303725 7.6308594,0.03125 Z"
     style="fill:#3e651b;fill-opacity:1"
     id="path8" /></svg>
