<?xml version="1.0" encoding="UTF-8" standalone="no"?>
<svg
   viewBox="0 0 36 36"
   version="1.1"
   id="svg3"
   sodipodi:docname="thinking_rolling_eyes.svg"
   xml:space="preserve"
   inkscape:version="1.3.2 (091e20e, 2023-11-25)"
   xmlns:inkscape="http://www.inkscape.org/namespaces/inkscape"
   xmlns:sodipodi="http://sodipodi.sourceforge.net/DTD/sodipodi-0.dtd"
   xmlns="http://www.w3.org/2000/svg"
   xmlns:svg="http://www.w3.org/2000/svg"><defs
     id="defs3" /><sodipodi:namedview
     id="namedview3"
     pagecolor="#ffffff"
     bordercolor="#000000"
     borderopacity="0.25"
     inkscape:showpageshadow="2"
     inkscape:pageopacity="0.0"
     inkscape:pagecheckerboard="0"
     inkscape:deskcolor="#d1d1d1"
     inkscape:zoom="9.2709556"
     inkscape:cx="-0.053931873"
     inkscape:cy="11.325693"
     inkscape:window-width="1920"
     inkscape:window-height="957"
     inkscape:window-x="0"
     inkscape:window-y="25"
     inkscape:window-maximized="1"
     inkscape:current-layer="svg3" /><circle
     fill="#FFCC4D"
     cx="18"
     cy="18"
     r="18"
     id="circle1" /><g
     id="g5"
     transform="translate(0,-2.2881356)"><circle
       fill="#f4f7f9"
       cx="24.5"
       cy="13.5"
       r="5.5"
       id="circle2" /><circle
       fill="#f4f7f9"
       cx="11.5"
       cy="13.5"
       r="5.5"
       id="circle3" /><path
       d="M 23.5,13 C 24.881,13 26,11.881 26,10.5 26,9.248 25.077,8.22 23.876,8.038 23.087,8.127 22.35,8.386 21.699,8.774 21.268,9.223 21,9.829 21,10.5 c 0,1.381 1.119,2.5 2.5,2.5 z"
       id="path5"
       style="fill:#65471b;fill-opacity:1" /><path
       d="M 10.5,13 C 11.881,13 13,11.881 13,10.5 13,9.248 12.077,8.22 10.876,8.038 10.086,8.127 9.35,8.386 8.698,8.774 8.268,9.223 8,9.829 8,10.5 8,11.881 9.119,13 10.5,13 Z"
       id="path4"
       style="fill:#65471b;fill-opacity:1" /></g><path
     d="m 23.56316,21.875418 c -2.496221,-1.359389 -8.555131,-2.354457 -11.921762,1.365965 -0.120099,0.131393 -0.13,0.330619 -0.0235,0.474072 0.05145,0.07073 0.124632,0.118287 0.204804,0.139769 0.0821,0.022 0.172679,0.01625 0.255305,-0.02166 3.646669,-1.693891 7.850378,-0.56751 10.361785,0.105419 1.579289,0.42317 2.449588,0.656366 2.632832,-0.02751 0.183244,-0.683875 -0.352795,-1.407261 -1.509464,-2.036055 z"
     id="path3"
     style="display:none;fill:#65471b;fill-opacity:1" /><circle
     fill="#ffcb4c"
     cx="86.033897"
     cy="5.5688715"
     r="17"
     id="circle1-8" /><path
     fill="#65471b"
     d="m 12.985782,21.883339 c -0.145,-0.116 -0.258,-0.274 -0.312,-0.464 -0.134,-0.46 0.13,-0.918 0.59,-1.021 4.528,-1.021 7.577,1.363 7.706,1.465 0.384,0.306 0.459,0.845 0.173,1.205 -0.286,0.358 -0.828,0.401 -1.211,0.097 -0.11,-0.084 -2.523,-1.923 -6.182,-1.098 -0.274,0.061 -0.554,-0.016 -0.764,-0.184 z"
     id="path1" /><ellipse
     fill="#65471b"
     cx="81.152901"
     cy="-0.27512822"
     rx="2.125"
     ry="2.6559999"
     id="ellipse1" /><ellipse
     fill="#65471b"
     cx="92.408897"
     cy="0.78687209"
     rx="2.125"
     ry="2.6559999"
     id="ellipse2" /><path
     fill="#f19020"
     d="m 16.162209,35.293092 c 0,0 1.265,-0.411 1.429,-1.352 0.173,-0.972 -0.624,-1.167 -0.624,-1.167 0,0 1.041,-0.208 1.172,-1.376 0.123,-1.101 -0.861,-1.363 -0.861,-1.363 0,0 0.97,-0.4 1.016,-1.539 0.038,-0.959 -0.995,-1.428 -0.995,-1.428 0,0 5.038,-1.221 5.556,-1.341 0.516,-0.12 1.32,-0.615 1.069,-1.694 -0.249,-1.08 -1.204,-1.118 -1.697,-1.003 -0.494,0.115 -6.744,1.566 -8.9,2.068 l -1.439,0.334 c -0.54,0.127 -0.785,-0.11 -0.404,-0.512 0.508,-0.536 0.833,-1.129 0.946,-2.113 0.119,-1.035 -0.232,-2.313 -0.433,-2.809 -0.374,-0.921 -1.005,-1.649 -1.734,-1.899 -1.1369997,-0.39 -1.9449997,0.321 -1.5419997,1.561 0.604,1.854 0.208,3.375 -0.833,4.293 -2.449,2.157 -3.588,3.695 -2.83,6.973 0.828,3.575 4.377,5.876 7.9519997,5.048 z"
     id="path2" /><path
     fill="#65471b"
     d="m 77.329898,-5.098128 c -0.164,-0.088 -0.303,-0.224 -0.391,-0.399 -0.216,-0.428 -0.04,-0.927 0.393,-1.112 4.266,-1.831 7.699,-0.043 7.843,0.034 0.433,0.231 0.608,0.747 0.391,1.154 -0.216,0.405 -0.74,0.546 -1.173,0.318 -0.123,-0.063 -2.832,-1.432 -6.278,0.047 -0.257,0.109 -0.547,0.085 -0.785,-0.042 z m 12.135,3.75 c -0.156,-0.098 -0.286,-0.243 -0.362,-0.424 -0.187,-0.442 0.023,-0.927 0.468,-1.084 4.381,-1.536 7.685,0.48 7.823,0.567 0.415,0.26 0.555,0.787 0.312,1.178 -0.242,0.39 -0.776,0.495 -1.191,0.238 -0.12,-0.072 -2.727,-1.621 -6.267,-0.379 -0.266,0.091 -0.553,0.046 -0.783,-0.096 z"
     id="path3-0" /></svg>
