<?xml version="1.0" encoding="UTF-8" standalone="no"?>
<svg
   xmlns:dc="http://purl.org/dc/elements/1.1/"
   xmlns:cc="http://creativecommons.org/ns#"
   xmlns:rdf="http://www.w3.org/1999/02/22-rdf-syntax-ns#"
   xmlns:svg="http://www.w3.org/2000/svg"
   xmlns="http://www.w3.org/2000/svg"
   xmlns:sodipodi="http://sodipodi.sourceforge.net/DTD/sodipodi-0.dtd"
   xmlns:inkscape="http://www.inkscape.org/namespaces/inkscape"
   inkscape:export-ydpi="682.66998"
   inkscape:export-xdpi="682.66998"
   inkscape:export-filename="/Users/JP25309/personal/custom-emoji/emojis/thinking_melting_face.png"
   inkscape:version="1.0 (4035a4f, 2020-05-01)"
   sodipodi:docname="thinking_melting_face.svg"
   id="svg861"
   version="1.1"
   xml:space="preserve"
   viewBox="0 0 36 36"><metadata
     id="metadata867"><rdf:RDF><cc:Work
         rdf:about=""><dc:format>image/svg+xml</dc:format><dc:type
           rdf:resource="http://purl.org/dc/dcmitype/StillImage" /></cc:Work></rdf:RDF></metadata><defs
     id="defs865" /><sodipodi:namedview
     inkscape:current-layer="svg861"
     inkscape:window-maximized="1"
     inkscape:window-y="23"
     inkscape:window-x="0"
     inkscape:cy="32.602539"
     inkscape:cx="-27.264731"
     inkscape:zoom="9.2916667"
     showgrid="false"
     id="namedview863"
     inkscape:window-height="1035"
     inkscape:window-width="1920"
     inkscape:pageshadow="2"
     inkscape:pageopacity="0"
     guidetolerance="10"
     gridtolerance="10"
     objecttolerance="10"
     borderopacity="1"
     bordercolor="#666666"
     pagecolor="#ffffff" /><path
     id="path853"
     d="M35.07 32.558a1.92 1.92 0 0 0 .836-2.241c-.259-.81-1.07-1.317-1.921-1.317H32a1 1 0 0 1 0-2h1.5a1.5 1.5 0 1 0-.04-3c-.8.021-1.46-.623-1.46-1.423v-.003c0-.293.06-.578.176-.847a15.294 15.294 0 0 0 1.294-7.191C32.978 6.66 26.411.269 18.524.009 9.724-.281 2.5 6.766 2.5 15.5c0 2.371.548 4.609 1.5 6.619v1.88c0 1.086-.865 2.021-1.951 2a2 2 0 0 0-2.034 2.167C.101 29.225 1.069 30 2.133 30h8.039A1.17 1.17 0 0 1 11 32l-3.03.757a1.281 1.281 0 0 0 0 2.485c1.932.483 3.914.737 5.905.756l2.712.026c1.406.014 2.803-.31 4.029-1a8.289 8.289 0 0 1 5.642-.913c3.028.588 6.167.034 8.812-1.553z"
     fill="#FFCC4D" /><ellipse
     id="ellipse857"
     ry="3"
     rx="2"
     cy="11.246637"
     cx="12.70852"
     fill="#65471b" /><ellipse
     id="ellipse859"
     ry="3"
     rx="2"
     cy="14.96861"
     cx="24.506727"
     fill="#65471b" /><path
     inkscape:transform-center-y="0.88404386"
     inkscape:transform-center-x="-1.0957991"
     id="path1432"
     d="m 12.77936,21.405788 c -0.138481,-0.12371 -0.242727,-0.287618 -0.286321,-0.480272 -0.108805,-0.466603 0.179702,-0.909578 0.64462,-0.987424 4.576798,-0.773394 7.491721,1.772796 7.614987,1.881656 0.366802,0.326418 0.412395,0.868697 0.107256,1.21262 -0.305034,0.341927 -0.84857,0.355406 -1.214481,0.03104 -0.105274,-0.08986 -2.414756,-2.057283 -6.113187,-1.43237 -0.27691,0.04602 -0.552311,-0.04609 -0.75287,-0.225251 z"
     fill="#65471b" /><path
     style="stroke-width:0.798402"
     id="path1438"
     d="m 12.307767,32.871922 c 0,0 1.060029,-0.06382 1.375556,-0.758107 0.328701,-0.716437 -0.248085,-1.027029 -0.248085,-1.027029 0,0 0.846197,0.04811 1.181765,-0.828216 0.315939,-0.826158 -0.391912,-1.226044 -0.391912,-1.226044 0,0 0.829851,-0.114505 1.093912,-0.985476 0.221768,-0.733476 -0.482424,-1.303159 -0.482424,-1.303159 0,0 4.138249,0.06719 4.562626,0.07838 0.422833,0.01079 1.143461,-0.210435 1.165969,-1.094625 0.02425,-0.884562 -0.706131,-1.105527 -1.110185,-1.115566 -0.404828,-0.01024 -5.525834,-0.14285 -7.29267,-0.187464 l -1.179045,-0.03059 c -0.442783,-0.0102 -0.584568,-0.242494 -0.209484,-0.476719 0.50011,-0.312293 0.870237,-0.70535 1.154978,-1.443098 0.29961,-0.775956 0.284765,-1.833994 0.228946,-2.257621 -0.104243,-0.786767 -0.445813,-1.47595 -0.959016,-1.815402 -0.80041,-0.529499 -1.5674652,-0.142157 -1.5048108,0.896947 0.094799,1.55392 -0.5163775,2.649876 -1.5050208,3.150438 -2.3252995,1.175559 -3.5140643,2.135586 -3.5859497,4.820845 -0.077377,2.92882 2.203589,5.419021 5.132409,5.496398 z"
     fill="#f19020" /><path
     id="path1440"
     d="M 9.8331497,6.62454 C 9.6712111,6.5328018 9.5353668,6.3936496 9.4514036,6.2166774 9.2452766,5.783836 9.4326748,5.2890038 9.8698039,5.1139833 14.176675,3.3813054 17.567764,5.2475707 17.709961,5.3278531 c 0.427588,0.24087 0.590707,0.7607479 0.36443,1.162664 -0.225232,0.3999395 -0.752328,0.5288845 -1.179985,0.2910136 -0.121523,-0.065804 -2.798412,-1.496575 -6.277427,-0.096998 -0.259432,0.103077 -0.548805,0.072432 -0.7838293,-0.059993 z m 12.0458013,4.027329 c -0.153711,-0.101552 -0.280351,-0.249495 -0.35218,-0.432191 -0.176814,-0.4461725 0.04425,-0.9262286 0.492738,-1.0729812 4.415076,-1.4351181 7.67197,0.6561287 7.807938,0.7462708 0.408928,0.2694494 0.536805,0.7995224 0.284901,1.1848464 -0.250881,0.384347 -0.787149,0.477072 -1.196145,0.210621 -0.118317,-0.07473 -2.689105,-1.6831168 -6.25666,-0.522633 -0.268017,0.08487 -0.553909,0.0333 -0.780592,-0.113933 z"
     fill="#65471b" /></svg>
