<?xml version="1.0" encoding="UTF-8" standalone="no"?>
<svg
   viewBox="0 0 36 36"
   version="1.1"
   id="svg22"
   sodipodi:docname="three_eyes.svg"
   xml:space="preserve"
   inkscape:version="1.2.1 (9c6d41e, 2022-07-14)"
   inkscape:export-filename="three_eyes.png"
   inkscape:export-xdpi="682.66669"
   inkscape:export-ydpi="682.66669"
   xmlns:inkscape="http://www.inkscape.org/namespaces/inkscape"
   xmlns:sodipodi="http://sodipodi.sourceforge.net/DTD/sodipodi-0.dtd"
   xmlns="http://www.w3.org/2000/svg"
   xmlns:svg="http://www.w3.org/2000/svg"><defs
     id="defs26" /><sodipodi:namedview
     id="namedview24"
     pagecolor="#ffffff"
     bordercolor="#000000"
     borderopacity="0.25"
     inkscape:showpageshadow="2"
     inkscape:pageopacity="0.0"
     inkscape:pagecheckerboard="0"
     inkscape:deskcolor="#d1d1d1"
     showgrid="false"
     inkscape:zoom="4.4973764"
     inkscape:cx="24.903408"
     inkscape:cy="17.121093"
     inkscape:window-width="1512"
     inkscape:window-height="916"
     inkscape:window-x="1920"
     inkscape:window-y="95"
     inkscape:window-maximized="1"
     inkscape:current-layer="g222" /><ellipse
     fill="#f5f8fa"
     cx="8.9282694"
     cy="21.950623"
     rx="7.9530001"
     ry="13.281"
     id="ellipse2" /><path
     fill="#e1e8ed"
     d="m 8.9282696,35.981622 c -4.88,0 -8.703,-6.163 -8.703,-14.031 0,-7.868 3.823,-14.0309999 8.703,-14.0309999 4.8800004,0 8.7030004,6.1629999 8.7030004,14.0309999 0,7.868 -3.823,14.031 -8.7030004,14.031 z m 0,-26.5619999 c -3.972,0 -7.203,5.6209999 -7.203,12.5309999 0,6.91 3.231,12.531 7.203,12.531 3.9720004,0 7.2030004,-5.621 7.2030004,-12.531 0,-6.91 -3.231,-12.5309999 -7.2030004,-12.5309999 z"
     id="path4" /><circle
     fill="#8899a6"
     cx="6.6942697"
     cy="21.950623"
     r="4.96"
     id="circle6" /><circle
     fill="#292f33"
     cx="6.6942697"
     cy="21.950623"
     r="3.5650001"
     id="circle8" /><circle
     fill="#f5f8fa"
     cx="8.0112696"
     cy="19.393621"
     r="1.426"
     id="circle10" /><ellipse
     fill="#f5f8fa"
     cx="27.334269"
     cy="21.950623"
     rx="7.9530001"
     ry="13.281"
     id="ellipse12" /><path
     fill="#e1e8ed"
     d="m 27.33427,35.981622 c -4.88,0 -8.703,-6.163 -8.703,-14.031 0,-7.868 3.823,-14.0309999 8.703,-14.0309999 4.88,0 8.704,6.1629999 8.704,14.0309999 0,7.868 -3.824,14.031 -8.704,14.031 z m 0,-26.5619999 c -3.972,0 -7.203,5.6219999 -7.203,12.5309999 0,6.91 3.231,12.531 7.203,12.531 3.972,0 7.204,-5.621 7.204,-12.531 0,-6.91 -3.232,-12.5309999 -7.204,-12.5309999 z"
     id="path14" /><circle
     fill="#8899a6"
     cx="25.100269"
     cy="21.950623"
     r="4.96"
     id="circle16" /><circle
     fill="#292f33"
     cx="25.100269"
     cy="21.950623"
     r="3.5650001"
     id="circle18" /><circle
     fill="#f5f8fa"
     cx="26.417269"
     cy="19.393621"
     r="1.426"
     id="circle20" /><g
     id="g222"
     transform="matrix(0.45712845,0,0,0.45712845,9.7190267,-3.0710327)"><path
       fill="#e1e8ed"
       d="m 35.059,18 c 0,3.304 -7.642,11 -17.067,11 C 8.566,29 0.925,22.249 0.925,18 c 0,-3.314 34.134,-3.314 34.134,0 z"
       id="path198" /><path
       fill="#292f33"
       d="M 35.059,18 H 0.925 c 0,-3.313 7.642,-11 17.067,-11 9.425,0 17.067,7.686 17.067,11 z"
       id="path200" /><path
       fill="#f5f8fa"
       d="m 33.817,18 c 0,2.904 -7.087,9.667 -15.826,9.667 C 9.251,27.667 2.166,21.732 2.166,18 2.166,15.088 9.251,8.334 17.991,8.334 26.73,8.333 33.817,15.088 33.817,18 Z"
       id="path202" /><g
       id="g247"
       transform="translate(-4.7013261)"><circle
         fill="#8b5e3c"
         cx="18"
         cy="18"
         r="8.4580002"
         id="circle204" /><circle
         fill="#292f33"
         cx="18"
         cy="18"
         r="4.7080002"
         id="circle206" /><circle
         fill="#f5f8fa"
         cx="14.983"
         cy="15"
         r="2"
         id="circle208" /></g></g></svg>
